<svg width="29" height="26" viewBox="0 0 29 26" fill="none" xmlns="http://www.w3.org/2000/svg">
<g opacity="0.7">
<path opacity="0.7" d="M2.73103 19.1139V15.8979H1.07303C0.789115 15.8995 0.517257 16.0129 0.316399 16.2136C0.115541 16.4143 0.00187166 16.686 3.4067e-05 16.9699V23.1589C-0.00664225 23.3035 0.0162477 23.4478 0.0673025 23.5832C0.118357 23.7185 0.196502 23.842 0.296952 23.9461C0.397403 24.0502 0.518045 24.1327 0.651491 24.1886C0.784937 24.2444 0.928379 24.2725 1.07303 24.2709H2.02403V25.6059C2.02655 25.6964 2.06361 25.7824 2.12758 25.8464C2.19156 25.9104 2.2776 25.9474 2.36803 25.9499C2.41319 25.9505 2.45799 25.942 2.49975 25.9248C2.54151 25.9076 2.57936 25.8821 2.61103 25.8499L4.16703 24.2909H11.043C11.3268 24.2891 11.5984 24.1756 11.799 23.9749C11.9997 23.7743 12.1132 23.5027 12.115 23.2189V21.6819H5.30003C4.61911 21.6812 3.96629 21.4104 3.48471 20.929C3.00313 20.4476 2.73209 19.7949 2.73103 19.1139Z" fill="black"/>
<path d="M18.486 23.259C18.4175 23.2585 18.3499 23.244 18.2873 23.2163C18.2247 23.1886 18.1684 23.1483 18.122 23.098L15.755 20.71H5.29901C4.86492 20.7095 4.44875 20.5369 4.14171 20.23C3.83467 19.9232 3.6618 19.5071 3.66101 19.073L3.66101 9.64801C3.66154 9.21375 3.83428 8.79742 4.14135 8.49035C4.44842 8.18328 4.86475 8.01054 5.29901 8.01001H20.468C20.9024 8.01027 21.319 8.1829 21.6263 8.49C21.9336 8.7971 22.1065 9.21357 22.107 9.64801V19.073C22.1062 19.5073 21.9332 19.9235 21.626 20.2304C21.3187 20.5373 20.9023 20.7097 20.468 20.71H19.011V22.733C19.0118 22.8022 18.9988 22.8709 18.9727 22.935C18.9466 22.9991 18.908 23.0574 18.8591 23.1064C18.8102 23.1554 18.752 23.1941 18.6879 23.2203C18.6239 23.2465 18.5552 23.2597 18.486 23.259ZM18.243 13.086C17.8425 13.0914 17.4599 13.2531 17.1767 13.5364C16.8935 13.8198 16.7322 14.2025 16.727 14.603C16.7372 14.9985 16.9014 15.3743 17.1847 15.6504C17.468 15.9265 17.8479 16.0811 18.2435 16.0811C18.6391 16.0811 19.019 15.9265 19.3023 15.6504C19.5856 15.3743 19.7499 14.9985 19.76 14.603C19.7548 14.2023 19.5933 13.8194 19.31 13.5361C19.0266 13.2527 18.6437 13.0912 18.243 13.086ZM12.943 13.086C12.5425 13.0914 12.1599 13.2531 11.8767 13.5364C11.5935 13.8198 11.4322 14.2025 11.427 14.603C11.4372 14.9985 11.6014 15.3743 11.8847 15.6504C12.168 15.9265 12.5479 16.0811 12.9435 16.0811C13.3391 16.0811 13.719 15.9265 14.0023 15.6504C14.2856 15.3743 14.4499 14.9985 14.46 14.603C14.4548 14.2025 14.2935 13.8198 14.0103 13.5364C13.7272 13.2531 13.3446 13.0914 12.944 13.086H12.943ZM7.62401 13.086C7.22346 13.0914 6.84086 13.2531 6.5577 13.5364C6.27454 13.8198 6.11319 14.2025 6.10801 14.603C6.10801 15.0053 6.26784 15.3912 6.55233 15.6757C6.83682 15.9602 7.22268 16.12 7.62501 16.12C8.02734 16.12 8.4132 15.9602 8.69769 15.6757C8.98218 15.3912 9.14201 15.0053 9.14201 14.603C9.13683 14.2023 8.97534 13.8194 8.69196 13.5361C8.40859 13.2527 8.02473 13.0912 7.62401 13.086Z" fill="black"/>
</g>
<path d="M23 11C25.7614 11 28 8.76142 28 6C28 3.23858 25.7614 1 23 1C20.2386 1 18 3.23858 18 6C18 8.76142 20.2386 11 23 11Z" fill="#6CA828" stroke="white" stroke-width="2" stroke-miterlimit="10"/>
</svg>
