<svg width="68" height="68" viewBox="0 0 68 68" fill="none" xmlns="http://www.w3.org/2000/svg">
<g clip-path="url(#clip0)">
<path d="M65.0586 0.000709511C64.4727 0.0636906 63.9253 0.322653 63.505 0.735633L51.3278 12.9155C45.5635 8.75179 37.5683 9.49979 32.2015 14.6312C32.2015 14.8299 29.9653 17.0112 27.9541 18.9622L25.4172 16.4279C25.1061 16.1062 24.7177 15.8697 24.2891 15.7411C23.8605 15.6124 23.406 15.5958 22.9692 15.693C22.4906 15.7796 22.0456 15.998 21.6842 16.3236C21.3229 16.6492 21.0595 17.0691 20.9236 17.5361C20.7878 18.0032 20.7849 18.4989 20.9152 18.9675C21.0456 19.4361 21.304 19.859 21.6615 20.1889L47.8153 46.3427C48.0623 46.5897 48.3554 46.7855 48.6781 46.9192C49.0007 47.0528 49.3466 47.1216 49.6958 47.1216C50.045 47.1216 50.3908 47.0528 50.7135 46.9192C51.0361 46.7855 51.3293 46.5897 51.5763 46.3427C51.8232 46.0958 52.0191 45.8026 52.1527 45.4799C52.2864 45.1573 52.3552 44.8115 52.3552 44.4622C52.3552 44.113 52.2864 43.7672 52.1527 43.4445C52.0191 43.1219 51.8232 42.8287 51.5763 42.5818L49.0419 40.0501L53.373 35.7975C58.4992 30.6713 59.0196 22.7022 55.0076 16.7575L67.2686 4.49656C67.6805 4.11381 67.9581 3.60848 68.0603 3.05552C68.1624 2.50256 68.0836 1.93141 67.8355 1.42677C67.5874 0.922127 67.1833 0.510874 66.6831 0.253998C66.1829 -0.0028787 65.6132 -0.0916988 65.0586 0.000709511ZM18.0627 20.8427C17.9521 20.8627 17.8429 20.8898 17.7358 20.9238C17.2572 21.0104 16.8122 21.2288 16.4508 21.5544C16.0895 21.88 15.8261 22.2999 15.6902 22.7669C15.5544 23.2339 15.5515 23.7296 15.6818 24.1982C15.8122 24.6668 16.0706 25.0898 16.4281 25.4196L18.9624 27.9539L14.6313 32.2013C9.50518 37.3275 8.98472 45.2992 12.9967 51.2466L0.733182 63.5023C0.233759 64.0017 -0.046814 64.679 -0.046814 65.3853C-0.046814 66.0916 0.233759 66.769 0.733182 67.2684C1.2326 67.7678 1.90997 68.0484 2.61626 68.0484C3.32255 68.0484 3.99991 67.7678 4.49934 67.2684L16.6766 55.0886C22.4409 59.2522 30.4361 58.5042 35.8029 53.3729C35.8029 53.1741 38.039 50.9929 40.0503 49.0418L42.5872 51.5761C42.8341 51.8229 43.1273 52.0186 43.4498 52.1521C43.7724 52.2856 44.1181 52.3542 44.4673 52.3541C44.8164 52.354 45.162 52.2851 45.4845 52.1514C45.807 52.0177 46.1 51.8217 46.3468 51.5748C46.5936 51.3278 46.7893 51.0347 46.9228 50.7121C47.0563 50.3895 47.1249 50.0438 47.1248 49.6947C47.1247 49.3456 47.0558 48.9999 46.9221 48.6774C46.7884 48.3549 46.5924 48.0619 46.3455 47.8152L20.1916 21.6613C19.9217 21.3738 19.5902 21.151 19.222 21.0097C18.8538 20.8684 18.4583 20.8122 18.0653 20.8453L18.0627 20.8427Z" fill="url(#paint0_linear)"/>
</g>
<defs>
<linearGradient id="paint0_linear" x1="34.0285" y1="-0.0348511" x2="34.0285" y2="68.0484" gradientUnits="userSpaceOnUse">
<stop stop-color="#00B3C6"/>
<stop offset="1" stop-color="#1E48A1"/>
</linearGradient>
<clipPath id="clip0">
<rect width="68" height="68" fill="white"/>
</clipPath>
</defs>
</svg>
