<svg width="56" height="67" viewBox="0 0 56 67" fill="none" xmlns="http://www.w3.org/2000/svg">
<path d="M41.227 66.3552L40.273 65.8883C39.739 65.6274 27.189 59.3515 27.189 47.3017V39.3006C27.1887 38.0764 27.5814 36.8911 28.2982 35.9523C29.0151 35.0135 30.0104 34.3811 31.11 34.1657C33.4483 33.5894 35.6638 32.5259 37.636 31.0332C38.6957 30.2461 39.9464 29.8254 41.2265 29.8254C42.5066 29.8254 43.7573 30.2461 44.817 31.0332C46.7895 32.5261 49.0053 33.5895 51.344 34.1657C52.4433 34.3813 53.4384 35.0139 54.1551 35.9526C54.8718 36.8914 55.2643 38.0766 55.264 39.3006V47.3017C55.264 59.3515 42.714 65.6264 42.18 65.8883L41.227 66.3552ZM41.227 34.9538C40.8799 34.9542 40.541 35.0688 40.254 35.2826C37.7464 37.1826 34.9199 38.5185 31.938 39.213C31.9188 39.2163 31.9013 39.2269 31.8885 39.2429C31.8757 39.2589 31.8684 39.2794 31.868 39.3006V47.3017C31.868 54.3558 38.41 59.0019 41.223 60.6734C44.037 58.992 50.586 54.3229 50.586 47.3017V39.3006C50.5856 39.2795 50.5784 39.2592 50.5658 39.2432C50.5533 39.2272 50.536 39.2165 50.517 39.213C47.5347 38.5186 44.7078 37.1827 42.2 35.2826C41.9129 35.069 41.5739 34.9549 41.227 34.9549V34.9538ZM27.188 66.239H5.89797C4.34738 66.2373 2.86074 65.5615 1.76421 64.3598C0.667683 63.1582 0.0508246 61.5289 0.0489716 59.8294V47.3938C0.0456791 46.0053 0.457713 44.654 1.22197 43.5467C0.457713 42.4394 0.0456791 41.088 0.0489716 39.6996V27.1335C0.045529 25.7454 0.45759 24.3944 1.22197 23.2875C0.458609 22.1814 0.0466274 20.8318 0.0489716 19.4448V7.00374C0.0508241 5.30413 0.667651 3.67472 1.76415 2.47292C2.86065 1.27111 4.34729 0.595048 5.89797 0.593018L44.736 0.593018C46.2867 0.595048 47.7733 1.27111 48.8698 2.47292C49.9663 3.67472 50.5831 5.30413 50.585 7.00374V19.4448C50.5881 20.8329 50.1761 22.1839 49.412 23.2908C50.1762 24.3982 50.5882 25.7495 50.585 27.1379H45.906C45.9057 26.7979 45.7824 26.4719 45.563 26.2315C45.3436 25.9911 45.0462 25.8559 44.736 25.8556H5.89797C5.58775 25.8559 5.29031 25.9911 5.07095 26.2315C4.85159 26.4719 4.72824 26.7979 4.72797 27.1379V39.6996C4.7285 40.0394 4.85197 40.3652 5.0713 40.6053C5.29063 40.8455 5.58792 40.9806 5.89797 40.9809H22.509V46.1103H5.89797C5.58758 46.1106 5.28999 46.246 5.0706 46.4866C4.85121 46.7273 4.72797 47.0536 4.72797 47.3938V59.8283C4.72824 60.1683 4.85159 60.4943 5.07095 60.7348C5.29031 60.9752 5.58775 61.1104 5.89797 61.1107H27.188V66.2379V66.239ZM5.89797 5.72137C5.58775 5.72166 5.29031 5.85686 5.07095 6.09729C4.85159 6.33772 4.72824 6.66372 4.72797 7.00374V19.4448C4.72824 19.7849 4.85159 20.1109 5.07095 20.3513C5.29031 20.5917 5.58775 20.7269 5.89797 20.7272H44.736C45.0462 20.7269 45.3436 20.5917 45.563 20.3513C45.7824 20.1109 45.9057 19.7849 45.906 19.4448V7.00374C45.9057 6.66372 45.7824 6.33772 45.563 6.09729C45.3436 5.85686 45.0462 5.72166 44.736 5.72137H5.89797ZM11.513 56.2388C11.0502 56.2388 10.5977 56.0884 10.2129 55.8066C9.82812 55.5247 9.5282 55.1242 9.35109 54.6555C9.17398 54.1869 9.12764 53.6712 9.21793 53.1737C9.30822 52.6762 9.53109 52.2192 9.85834 51.8605C10.1856 51.5019 10.6025 51.2576 11.0565 51.1586C11.5104 51.0597 11.9809 51.1105 12.4085 51.3046C12.836 51.4987 13.2015 51.8274 13.4586 52.2492C13.7157 52.671 13.853 53.1668 13.853 53.6741C13.8522 54.354 13.6054 55.0058 13.1667 55.4866C12.7281 55.9674 12.1333 56.2379 11.513 56.2388ZM11.513 35.9807C11.0501 35.9807 10.5977 35.8303 10.2128 35.5484C9.828 35.2666 9.52808 34.866 9.351 34.3973C9.17392 33.9285 9.12764 33.4128 9.21801 32.9153C9.30838 32.4177 9.53134 31.9607 9.8587 31.6021C10.1861 31.2435 10.6031 30.9993 11.0571 30.9004C11.5111 30.8016 11.9816 30.8526 12.4091 31.0468C12.8367 31.2411 13.2021 31.57 13.4591 31.9919C13.7161 32.4138 13.8532 32.9098 13.853 33.4171C13.8522 34.097 13.6054 34.7487 13.1667 35.2293C12.728 35.7099 12.1332 35.9802 11.513 35.9807ZM41.227 15.8509H27.188V10.7215H41.227V15.8498V15.8509ZM11.513 15.8509C11.0502 15.8509 10.5977 15.7005 10.2129 15.4187C9.82812 15.1369 9.5282 14.7363 9.35109 14.2677C9.17398 13.7991 9.12764 13.2834 9.21793 12.7859C9.30822 12.2884 9.53109 11.8314 9.85834 11.4727C10.1856 11.114 10.6025 10.8697 11.0565 10.7708C11.5104 10.6718 11.9809 10.7226 12.4085 10.9167C12.836 11.1108 13.2015 11.4396 13.4586 11.8613C13.7157 12.2831 13.853 12.779 13.853 13.2862C13.8522 13.9662 13.6054 14.618 13.1667 15.0988C12.7281 15.5796 12.1333 15.8501 11.513 15.8509Z" fill="url(#paint0_linear)"/>
<defs>
<linearGradient id="paint0_linear" x1="27.6565" y1="0.593018" x2="27.6565" y2="66.3552" gradientUnits="userSpaceOnUse">
<stop stop-color="#00B3C6"/>
<stop offset="1" stop-color="#1E48A1"/>
</linearGradient>
</defs>
</svg>
