<svg width="65" height="65" viewBox="0 0 65 65" fill="none" xmlns="http://www.w3.org/2000/svg">
<path d="M62.1875 -3.98979e-06C61.6275 0.0601985 61.1042 0.307736 60.7025 0.702496L56.5625 4.8425C51.0525 0.867496 43.41 1.58 38.28 6.485C38.28 6.675 36.1425 8.76 34.22 10.625L31.795 8.2025C31.5372 7.92799 31.2208 7.71527 30.8692 7.5802C30.5177 7.44514 30.1403 7.39123 29.765 7.4225C29.6593 7.44159 29.5549 7.46747 29.4525 7.5C28.995 7.58279 28.5696 7.79153 28.2242 8.10276C27.8788 8.41399 27.627 8.81537 27.4972 9.2618C27.3673 9.70824 27.3645 10.182 27.4891 10.63C27.6137 11.0779 27.8608 11.4822 28.2025 11.7975L33.905 17.5L25.705 25.7025C25.4689 25.9384 25.2817 26.2185 25.1538 26.5267C25.026 26.835 24.9602 27.1654 24.9601 27.4991C24.96 27.8328 25.0256 28.1633 25.1532 28.4716C25.2808 28.78 25.4679 29.0602 25.7037 29.2962C25.9396 29.5323 26.2197 29.7196 26.528 29.8474C26.8362 29.9752 27.1666 30.041 27.5004 30.0412C27.8341 30.0413 28.1645 29.9757 28.4729 29.8481C28.7812 29.7205 29.0614 29.5334 29.2975 29.2975L37.5 21.095L43.9075 27.5L35.7025 35.7025C35.2258 36.1792 34.9579 36.8258 34.9579 37.5C34.9579 38.1742 35.2258 38.8208 35.7025 39.2975C36.1792 39.7742 36.8258 40.042 37.5 40.042C38.1742 40.042 38.8208 39.7742 39.2975 39.2975L47.5 31.095L53.2025 36.795C53.4384 37.031 53.7185 37.2183 54.0267 37.3461C54.335 37.4739 54.6654 37.5398 54.9991 37.5399C55.3328 37.54 55.6633 37.4744 55.9716 37.3468C56.28 37.2192 56.5602 37.0321 56.7962 36.7962C57.0323 36.5604 57.2196 36.2803 57.3474 35.972C57.4752 35.6638 57.541 35.3333 57.5412 34.9996C57.5413 34.6659 57.4757 34.3354 57.3481 34.0271C57.2205 33.7187 57.0334 33.4385 56.7975 33.2025L54.375 30.78L58.515 26.72C63.415 21.82 63.9125 14.2 60.0775 8.515L64.3 4.3C64.6949 3.93439 64.9613 3.4511 65.0596 2.92197C65.1579 2.39285 65.0828 1.84614 64.8455 1.3631C64.6082 0.880074 64.2213 0.486514 63.7424 0.24093C63.2636 -0.00465514 62.7182 -0.0891533 62.1875 -3.98979e-06ZM9.76499 27.4225C9.65927 27.4416 9.55488 27.4675 9.45249 27.5C8.99498 27.5828 8.56963 27.7915 8.22422 28.1028C7.87881 28.414 7.62704 28.8154 7.49718 29.2618C7.36733 29.7082 7.36454 30.182 7.48914 30.63C7.61373 31.0779 7.86077 31.4822 8.20249 31.7975L10.625 34.22L6.48499 38.28C1.58499 43.18 1.08749 50.8 4.92249 56.485L0.699991 60.7C0.222601 61.1774 -0.0455933 61.8249 -0.0455933 62.5C-0.0455933 63.1751 0.222601 63.8226 0.699991 64.3C1.17738 64.7774 1.82486 65.0456 2.49999 65.0456C3.17512 65.0456 3.8226 64.7774 4.29999 64.3L8.43999 60.1575C13.95 64.1375 21.5925 63.4225 26.7225 58.5175C26.7225 58.3275 28.86 56.2425 30.7825 54.3775L33.2075 56.8C33.4435 57.0359 33.7237 57.223 34.0321 57.3506C34.3404 57.4782 34.6709 57.5438 35.0046 57.5437C35.3383 57.5435 35.6688 57.4777 35.977 57.3499C36.2853 57.2221 36.5654 57.0348 36.8012 56.7987C37.0371 56.5627 37.2242 56.2825 37.3518 55.9741C37.4794 55.6658 37.545 55.3353 37.5449 55.0016C37.5448 54.6679 37.4789 54.3375 37.3511 54.0292C37.2233 53.7209 37.036 53.4409 36.8 53.205L11.8 28.205C11.5419 27.9301 11.2251 27.7172 10.8731 27.5821C10.5211 27.4471 10.1432 27.3933 9.76749 27.425L9.76499 27.4225Z" fill="url(#paint0_linear)"/>
<defs>
<linearGradient id="paint0_linear" x1="32.528" y1="-0.0345459" x2="32.528" y2="65.0456" gradientUnits="userSpaceOnUse">
<stop stop-color="#00B3C6"/>
<stop offset="1" stop-color="#1E48A1"/>
</linearGradient>
</defs>
</svg>
