<svg width="500" height="500" viewBox="0 0 500 500" fill="none" xmlns="http://www.w3.org/2000/svg">
<path d="M182.302 152.946H80.5957V382.398H182.302V152.946Z" fill="#F5F5F5"/>
<path d="M172.757 161.002H90.1445V374.343H172.757V161.002Z" fill="#E6E6E6"/>
<path d="M167.072 171.002H95.8242V175.881H167.072V171.002Z" fill="#FAFAFA"/>
<path d="M167.072 182.088H95.8242V186.967H167.072V182.088Z" fill="#FAFAFA"/>
<path d="M167.072 193.174H95.8242V198.053H167.072V193.174Z" fill="#FAFAFA"/>
<path d="M167.072 204.26H95.8242V209.139H167.072V204.26Z" fill="#FAFAFA"/>
<path d="M167.072 215.346H95.8242V220.225H167.072V215.346Z" fill="#FAFAFA"/>
<path d="M167.072 226.432H95.8242V231.311H167.072V226.432Z" fill="#FAFAFA"/>
<path d="M167.072 237.518H95.8242V242.397H167.072V237.518Z" fill="#FAFAFA"/>
<path d="M167.072 248.604H95.8242V253.483H167.072V248.604Z" fill="#FAFAFA"/>
<path d="M167.072 259.689H95.8242V264.568H167.072V259.689Z" fill="#FAFAFA"/>
<path d="M167.072 270.775H95.8242V275.654H167.072V270.775Z" fill="#FAFAFA"/>
<path d="M167.072 281.861H95.8242V286.74H167.072V281.861Z" fill="#FAFAFA"/>
<path d="M167.072 292.947H95.8242V297.826H167.072V292.947Z" fill="#FAFAFA"/>
<path d="M167.072 304.033H95.8242V308.913H167.072V304.033Z" fill="#FAFAFA"/>
<path d="M167.072 315.119H95.8242V319.999H167.072V315.119Z" fill="#FAFAFA"/>
<path d="M167.072 326.205H95.8242V331.085H167.072V326.205Z" fill="#FAFAFA"/>
<path d="M167.072 337.291H95.8242V342.171H167.072V337.291Z" fill="#FAFAFA"/>
<path d="M167.072 348.377H95.8242V353.257H167.072V348.377Z" fill="#FAFAFA"/>
<path d="M167.072 359.463H95.8242V364.343H167.072V359.463Z" fill="#FAFAFA"/>
<path d="M80.597 152.946H52.459V382.398H80.597V152.946Z" fill="#E6E6E6"/>
<path d="M168.334 149H88.5117V152.946H168.334V149Z" fill="#F0F0F0"/>
<path d="M88.5117 149H66.4277V152.946H88.5117V149Z" fill="#E0E0E0"/>
<path d="M75.548 169.834C77.2314 169.834 78.596 166.501 78.596 162.39C78.596 158.279 77.2314 154.946 75.548 154.946C73.8646 154.946 72.5 158.279 72.5 162.39C72.5 166.501 73.8646 169.834 75.548 169.834Z" fill="#F5F5F5"/>
<path d="M55.52 169.834C56.6594 169.834 57.583 166.501 57.583 162.39C57.583 158.279 56.6594 154.946 55.52 154.946C54.3807 154.946 53.457 158.279 53.457 162.39C53.457 166.501 54.3807 169.834 55.52 169.834Z" fill="#F5F5F5"/>
<path d="M75.548 380.398C77.2314 380.398 78.596 377.066 78.596 372.955C78.596 368.844 77.2314 365.512 75.548 365.512C73.8646 365.512 72.5 368.844 72.5 372.955C72.5 377.066 73.8646 380.398 75.548 380.398Z" fill="#F5F5F5"/>
<path d="M55.52 380.398C56.6594 380.398 57.583 377.066 57.583 372.955C57.583 368.844 56.6594 365.512 55.52 365.512C54.3807 365.512 53.457 368.844 53.457 372.955C53.457 377.066 54.3807 380.398 55.52 380.398Z" fill="#F5F5F5"/>
<path d="M371.658 204.125H292.637V382.398H371.658V204.125Z" fill="#F5F5F5"/>
<path d="M364.241 210.384H300.055V376.14H364.241V210.384Z" fill="#E6E6E6"/>
<path d="M359.824 218.153H304.469V221.944H359.824V218.153Z" fill="#FAFAFA"/>
<path d="M359.824 226.767H304.469V230.558H359.824V226.767Z" fill="#FAFAFA"/>
<path d="M359.824 235.38H304.469V239.171H359.824V235.38Z" fill="#FAFAFA"/>
<path d="M359.824 243.993H304.469V247.784H359.824V243.993Z" fill="#FAFAFA"/>
<path d="M359.824 252.606H304.469V256.397H359.824V252.606Z" fill="#FAFAFA"/>
<path d="M359.824 261.22H304.469V265.011H359.824V261.22Z" fill="#FAFAFA"/>
<path d="M359.824 269.833H304.469V273.624H359.824V269.833Z" fill="#FAFAFA"/>
<path d="M359.824 278.446H304.469V282.237H359.824V278.446Z" fill="#FAFAFA"/>
<path d="M359.824 287.06H304.469V290.851H359.824V287.06Z" fill="#FAFAFA"/>
<path d="M359.824 295.673H304.469V299.464H359.824V295.673Z" fill="#FAFAFA"/>
<path d="M359.824 304.286H304.469V308.077H359.824V304.286Z" fill="#FAFAFA"/>
<path d="M359.824 312.899H304.469V316.69H359.824V312.899Z" fill="#FAFAFA"/>
<path d="M359.824 321.513H304.469V325.304H359.824V321.513Z" fill="#FAFAFA"/>
<path d="M359.824 330.126H304.469V333.917H359.824V330.126Z" fill="#FAFAFA"/>
<path d="M359.824 338.739H304.469V342.53H359.824V338.739Z" fill="#FAFAFA"/>
<path d="M359.824 347.353H304.469V351.144H359.824V347.353Z" fill="#FAFAFA"/>
<path d="M359.824 355.966H304.469V359.757H359.824V355.966Z" fill="#FAFAFA"/>
<path d="M359.824 364.579H304.469V368.37H359.824V364.579Z" fill="#FAFAFA"/>
<path d="M292.637 204.125H270.775V382.398H292.637V204.125Z" fill="#E6E6E6"/>
<path d="M360.805 201.059H298.787V204.125H360.805V201.059Z" fill="#F0F0F0"/>
<path d="M298.787 201.059H281.629V204.125H298.787V201.059Z" fill="#E0E0E0"/>
<path d="M288.715 217.246C290.023 217.246 291.084 214.657 291.084 211.463C291.084 208.269 290.023 205.68 288.715 205.68C287.406 205.68 286.346 208.269 286.346 211.463C286.346 214.657 287.406 217.246 288.715 217.246Z" fill="#F5F5F5"/>
<path d="M273.154 217.246C274.039 217.246 274.757 214.657 274.757 211.463C274.757 208.269 274.039 205.68 273.154 205.68C272.268 205.68 271.551 208.269 271.551 211.463C271.551 214.657 272.268 217.246 273.154 217.246Z" fill="#F5F5F5"/>
<path d="M288.715 380.845C290.023 380.845 291.084 378.255 291.084 375.061C291.084 371.867 290.023 369.277 288.715 369.277C287.406 369.277 286.346 371.867 286.346 375.061C286.346 378.255 287.406 380.845 288.715 380.845Z" fill="#F5F5F5"/>
<path d="M273.154 380.845C274.039 380.845 274.757 378.255 274.757 375.061C274.757 371.867 274.039 369.277 273.154 369.277C272.268 369.277 271.551 371.867 271.551 375.061C271.551 378.255 272.268 380.845 273.154 380.845Z" fill="#F5F5F5"/>
<path d="M288.715 211.962H242.085C235.659 211.962 230.431 206.733 230.431 200.308V184.596C230.431 178.721 225.651 173.942 219.776 173.942H182.303V172.942H219.776C226.203 172.942 231.431 178.171 231.431 184.596V200.308C231.431 206.183 236.21 210.962 242.085 210.962H288.715V211.962Z" fill="#E0E0E0"/>
<path d="M273.154 375.562H259.044C252.617 375.562 247.389 370.334 247.389 363.907V272.375C247.389 266.5 242.61 261.721 236.735 261.721H182.303V260.721H236.735C243.161 260.721 248.389 265.95 248.389 272.375V363.907C248.389 369.782 253.169 374.562 259.044 374.562H273.154V375.562Z" fill="#E0E0E0"/>
<path d="M431.638 98.713H378.846V104.114H431.638V98.713Z" fill="#F0F0F0"/>
<path d="M378.845 98.713H364.24V104.114H378.845V98.713Z" fill="#E0E0E0"/>
<path d="M431.638 85.486H378.846V90.886H431.638V85.486Z" fill="#F0F0F0"/>
<path d="M378.845 85.486H364.24V90.886H378.845V85.486Z" fill="#E0E0E0"/>
<path d="M431.638 72.259H378.846V77.659H431.638V72.259Z" fill="#F0F0F0"/>
<path d="M378.845 72.259H364.24V77.659H378.845V72.259Z" fill="#E0E0E0"/>
<path d="M431.638 59.031H378.846V64.431H431.638V59.031Z" fill="#F0F0F0"/>
<path d="M378.845 59.031H364.24V64.431H378.845V59.031Z" fill="#E0E0E0"/>
<g opacity="0.4">
<path opacity="0.4" d="M426.378 45.586H381.826V98.713H426.378V45.586Z" fill="#F0F0F0"/>
<path opacity="0.4" d="M381.826 45.586H369.5V98.713H381.826V45.586Z" fill="#E0E0E0"/>
</g>
<path d="M295.381 186.539H256.834V190.482H295.381V186.539Z" fill="#F0F0F0"/>
<path d="M256.834 186.539H246.17V190.482H256.834V186.539Z" fill="#E0E0E0"/>
<path d="M295.381 176.881H256.834V180.824H295.381V176.881Z" fill="#F0F0F0"/>
<path d="M256.834 176.881H246.17V180.824H256.834V176.881Z" fill="#E0E0E0"/>
<path d="M295.381 167.223H256.834V171.166H295.381V167.223Z" fill="#F0F0F0"/>
<path d="M256.834 167.223H246.17V171.166H256.834V167.223Z" fill="#E0E0E0"/>
<path d="M295.381 157.564H256.834V161.507H295.381V157.564Z" fill="#F0F0F0"/>
<path d="M256.834 157.564H246.17V161.507H256.834V157.564Z" fill="#E0E0E0"/>
<g opacity="0.4">
<path opacity="0.4" d="M291.543 147.747H259.012V186.539H291.543V147.747Z" fill="#F0F0F0"/>
<path opacity="0.4" d="M259.012 147.747H250.012V186.539H259.012V147.747Z" fill="#E0E0E0"/>
</g>
<path d="M472.778 311.549H423.098V316.631H472.778V311.549Z" fill="#F0F0F0"/>
<path d="M423.098 311.549H409.354V316.631H423.098V311.549Z" fill="#E0E0E0"/>
<path d="M472.778 299.101H423.098V304.183H472.778V299.101Z" fill="#F0F0F0"/>
<path d="M423.098 299.101H409.354V304.183H423.098V299.101Z" fill="#E0E0E0"/>
<path d="M472.778 286.652H423.098V291.735H472.778V286.652Z" fill="#F0F0F0"/>
<path d="M423.098 286.652H409.354V291.735H423.098V286.652Z" fill="#E0E0E0"/>
<path d="M472.778 274.205H423.098V279.287H472.778V274.205Z" fill="#F0F0F0"/>
<path d="M423.098 274.205H409.354V279.287H423.098V274.205Z" fill="#E0E0E0"/>
<g opacity="0.4">
<path opacity="0.4" d="M467.827 261.553H425.902V311.549H467.827V261.553Z" fill="#F0F0F0"/>
<path opacity="0.4" d="M425.902 261.553H414.303V311.549H425.902V261.553Z" fill="#E0E0E0"/>
</g>
<path d="M250 427.561C357.082 427.561 443.889 422.492 443.889 416.238C443.889 409.985 357.082 404.915 250 404.915C142.918 404.915 56.1113 409.985 56.1113 416.238C56.1113 422.492 142.918 427.561 250 427.561Z" fill="#F5F5F5"/>
<path d="M427.364 115.275H318.475V219.719H427.364V115.275Z" fill="#407BFF"/>
<path opacity="0.4" d="M427.364 115.275H318.475V219.719H427.364V115.275Z" fill="white"/>
<path opacity="0.7" d="M427.365 115.275H353.143V219.719H427.365V115.275Z" fill="white"/>
<path d="M423.654 120.609H356.854V133.544H423.654V120.609Z" fill="#407BFF"/>
<path d="M423.654 136.777H356.854V149.713H423.654V136.777Z" fill="#407BFF"/>
<path d="M423.654 152.946H356.854V165.881H423.654V152.946Z" fill="#407BFF"/>
<path d="M423.654 169.115H356.854V182.049H423.654V169.115Z" fill="#407BFF"/>
<path d="M423.654 185.283H356.854V198.219H423.654V185.283Z" fill="#407BFF"/>
<path d="M423.654 201.451H356.854V214.387H423.654V201.451Z" fill="#407BFF"/>
<path d="M349.254 120.609H322.365V133.544H349.254V120.609Z" fill="#407BFF"/>
<path d="M349.254 136.777H322.365V149.713H349.254V136.777Z" fill="#407BFF"/>
<path d="M349.254 152.946H322.365V165.881H349.254V152.946Z" fill="#407BFF"/>
<path d="M349.254 169.115H322.365V182.049H349.254V169.115Z" fill="#407BFF"/>
<path d="M349.254 185.283H322.365V198.219H349.254V185.283Z" fill="#407BFF"/>
<path d="M349.254 201.451H322.365V214.387H349.254V201.451Z" fill="#407BFF"/>
<path opacity="0.4" d="M337.475 123.195H324.854V130.957H337.475V123.195Z" fill="#263238"/>
<path opacity="0.4" d="M337.475 139.364H324.854V147.125H337.475V139.364Z" fill="#263238"/>
<path opacity="0.4" d="M337.475 155.533H324.854V163.295H337.475V155.533Z" fill="#263238"/>
<path opacity="0.4" d="M337.475 171.701H324.854V179.463H337.475V171.701Z" fill="#263238"/>
<path opacity="0.4" d="M337.475 187.87H324.854V195.631H337.475V187.87Z" fill="#263238"/>
<path opacity="0.4" d="M337.475 204.039H324.854V211.8H337.475V204.039Z" fill="#263238"/>
<path opacity="0.7" d="M420.379 122.294H418.818V131.859H420.379V122.294Z" fill="white"/>
<path opacity="0.7" d="M417.379 122.294H415.818V131.859H417.379V122.294Z" fill="white"/>
<path opacity="0.7" d="M414.379 122.294H412.818V131.859H414.379V122.294Z" fill="white"/>
<path opacity="0.7" d="M411.379 122.294H409.818V131.859H411.379V122.294Z" fill="white"/>
<path opacity="0.7" d="M408.379 122.294H406.818V131.859H408.379V122.294Z" fill="white"/>
<path opacity="0.7" d="M420.379 138.463H418.818V148.027H420.379V138.463Z" fill="white"/>
<path opacity="0.7" d="M417.379 138.463H415.818V148.027H417.379V138.463Z" fill="white"/>
<path opacity="0.7" d="M414.379 138.463H412.818V148.027H414.379V138.463Z" fill="white"/>
<path opacity="0.7" d="M411.379 138.463H409.818V148.027H411.379V138.463Z" fill="white"/>
<path opacity="0.7" d="M408.379 138.463H406.818V148.027H408.379V138.463Z" fill="white"/>
<path opacity="0.7" d="M420.379 154.631H418.818V164.196H420.379V154.631Z" fill="white"/>
<path opacity="0.7" d="M417.379 154.631H415.818V164.196H417.379V154.631Z" fill="white"/>
<path opacity="0.7" d="M414.379 154.631H412.818V164.196H414.379V154.631Z" fill="white"/>
<path opacity="0.7" d="M411.379 154.631H409.818V164.196H411.379V154.631Z" fill="white"/>
<path opacity="0.7" d="M408.379 154.631H406.818V164.196H408.379V154.631Z" fill="white"/>
<path opacity="0.7" d="M420.379 170.8H418.818V180.365H420.379V170.8Z" fill="white"/>
<path opacity="0.7" d="M417.379 170.8H415.818V180.365H417.379V170.8Z" fill="white"/>
<path opacity="0.7" d="M414.379 170.8H412.818V180.365H414.379V170.8Z" fill="white"/>
<path opacity="0.7" d="M411.379 170.8H409.818V180.365H411.379V170.8Z" fill="white"/>
<path opacity="0.7" d="M408.379 170.8H406.818V180.365H408.379V170.8Z" fill="white"/>
<path opacity="0.7" d="M420.379 186.969H418.818V196.533H420.379V186.969Z" fill="white"/>
<path opacity="0.7" d="M417.379 186.969H415.818V196.533H417.379V186.969Z" fill="white"/>
<path opacity="0.7" d="M414.379 186.969H412.818V196.533H414.379V186.969Z" fill="white"/>
<path opacity="0.7" d="M411.379 186.969H409.818V196.533H411.379V186.969Z" fill="white"/>
<path opacity="0.7" d="M408.379 186.969H406.818V196.533H408.379V186.969Z" fill="white"/>
<path opacity="0.7" d="M420.379 203.137H418.818V212.701H420.379V203.137Z" fill="white"/>
<path opacity="0.7" d="M417.379 203.137H415.818V212.701H417.379V203.137Z" fill="white"/>
<path opacity="0.7" d="M414.379 203.137H412.818V212.701H414.379V203.137Z" fill="white"/>
<path opacity="0.7" d="M411.379 203.137H409.818V212.701H411.379V203.137Z" fill="white"/>
<path opacity="0.7" d="M408.379 203.137H406.818V212.701H408.379V203.137Z" fill="white"/>
<path opacity="0.2" d="M383.031 209.508C383.908 209.508 384.619 208.797 384.619 207.92C384.619 207.043 383.908 206.332 383.031 206.332C382.154 206.332 381.443 207.043 381.443 207.92C381.443 208.797 382.154 209.508 383.031 209.508Z" fill="white"/>
<path opacity="0.2" d="M373.031 209.508C373.908 209.508 374.619 208.797 374.619 207.92C374.619 207.043 373.908 206.332 373.031 206.332C372.154 206.332 371.443 207.043 371.443 207.92C371.443 208.797 372.154 209.508 373.031 209.508Z" fill="white"/>
<path opacity="0.4" d="M363.031 209.508C363.908 209.508 364.619 208.797 364.619 207.92C364.619 207.043 363.908 206.332 363.031 206.332C362.154 206.332 361.443 207.043 361.443 207.92C361.443 208.797 362.154 209.508 363.031 209.508Z" fill="white"/>
<path opacity="0.4" d="M383.031 193.338C383.908 193.338 384.619 192.627 384.619 191.75C384.619 190.873 383.908 190.162 383.031 190.162C382.154 190.162 381.443 190.873 381.443 191.75C381.443 192.627 382.154 193.338 383.031 193.338Z" fill="white"/>
<path opacity="0.2" d="M373.031 193.338C373.908 193.338 374.619 192.627 374.619 191.75C374.619 190.873 373.908 190.162 373.031 190.162C372.154 190.162 371.443 190.873 371.443 191.75C371.443 192.627 372.154 193.338 373.031 193.338Z" fill="white"/>
<path opacity="0.4" d="M363.031 193.338C363.908 193.338 364.619 192.627 364.619 191.75C364.619 190.873 363.908 190.162 363.031 190.162C362.154 190.162 361.443 190.873 361.443 191.75C361.443 192.627 362.154 193.338 363.031 193.338Z" fill="white"/>
<path opacity="0.2" d="M383.031 177.17C383.908 177.17 384.619 176.459 384.619 175.582C384.619 174.705 383.908 173.994 383.031 173.994C382.154 173.994 381.443 174.705 381.443 175.582C381.443 176.459 382.154 177.17 383.031 177.17Z" fill="white"/>
<path opacity="0.4" d="M373.031 177.17C373.908 177.17 374.619 176.459 374.619 175.582C374.619 174.705 373.908 173.994 373.031 173.994C372.154 173.994 371.443 174.705 371.443 175.582C371.443 176.459 372.154 177.17 373.031 177.17Z" fill="white"/>
<path opacity="0.2" d="M363.031 177.17C363.908 177.17 364.619 176.459 364.619 175.582C364.619 174.705 363.908 173.994 363.031 173.994C362.154 173.994 361.443 174.705 361.443 175.582C361.443 176.459 362.154 177.17 363.031 177.17Z" fill="white"/>
<path opacity="0.4" d="M383.031 161.002C383.908 161.002 384.619 160.291 384.619 159.414C384.619 158.537 383.908 157.826 383.031 157.826C382.154 157.826 381.443 158.537 381.443 159.414C381.443 160.291 382.154 161.002 383.031 161.002Z" fill="white"/>
<path opacity="0.2" d="M373.031 161.002C373.908 161.002 374.619 160.291 374.619 159.414C374.619 158.537 373.908 157.826 373.031 157.826C372.154 157.826 371.443 158.537 371.443 159.414C371.443 160.291 372.154 161.002 373.031 161.002Z" fill="white"/>
<path opacity="0.2" d="M363.031 161.002C363.908 161.002 364.619 160.291 364.619 159.414C364.619 158.537 363.908 157.826 363.031 157.826C362.154 157.826 361.443 158.537 361.443 159.414C361.443 160.291 362.154 161.002 363.031 161.002Z" fill="white"/>
<path opacity="0.2" d="M383.031 144.833C383.908 144.833 384.619 144.122 384.619 143.245C384.619 142.368 383.908 141.657 383.031 141.657C382.154 141.657 381.443 142.368 381.443 143.245C381.443 144.122 382.154 144.833 383.031 144.833Z" fill="white"/>
<path opacity="0.4" d="M373.031 144.833C373.908 144.833 374.619 144.122 374.619 143.245C374.619 142.368 373.908 141.657 373.031 141.657C372.154 141.657 371.443 142.368 371.443 143.245C371.443 144.122 372.154 144.833 373.031 144.833Z" fill="white"/>
<path opacity="0.4" d="M363.031 144.833C363.908 144.833 364.619 144.122 364.619 143.245C364.619 142.368 363.908 141.657 363.031 141.657C362.154 141.657 361.443 142.368 361.443 143.245C361.443 144.122 362.154 144.833 363.031 144.833Z" fill="white"/>
<path opacity="0.4" d="M383.031 128.664C383.908 128.664 384.619 127.953 384.619 127.076C384.619 126.199 383.908 125.488 383.031 125.488C382.154 125.488 381.443 126.199 381.443 127.076C381.443 127.953 382.154 128.664 383.031 128.664Z" fill="white"/>
<path opacity="0.2" d="M373.031 128.664C373.908 128.664 374.619 127.953 374.619 127.076C374.619 126.199 373.908 125.488 373.031 125.488C372.154 125.488 371.443 126.199 371.443 127.076C371.443 127.953 372.154 128.664 373.031 128.664Z" fill="white"/>
<path opacity="0.4" d="M363.031 128.664C363.908 128.664 364.619 127.953 364.619 127.076C364.619 126.199 363.908 125.488 363.031 125.488C362.154 125.488 361.443 126.199 361.443 127.076C361.443 127.953 362.154 128.664 363.031 128.664Z" fill="white"/>
<path d="M226.635 311.793H117.746V416.238H226.635V311.793Z" fill="#407BFF"/>
<path opacity="0.4" d="M226.635 311.793H117.746V416.238H226.635V311.793Z" fill="white"/>
<path opacity="0.7" d="M226.634 311.793H152.412V416.238H226.634V311.793Z" fill="white"/>
<path d="M222.923 317.127H156.123V330.063H222.923V317.127Z" fill="#407BFF"/>
<path d="M222.923 333.295H156.123V346.231H222.923V333.295Z" fill="#407BFF"/>
<path d="M222.923 349.464H156.123V362.399H222.923V349.464Z" fill="#407BFF"/>
<path d="M222.923 365.633H156.123V378.568H222.923V365.633Z" fill="#407BFF"/>
<path d="M222.923 381.801H156.123V394.737H222.923V381.801Z" fill="#407BFF"/>
<path d="M222.923 397.97H156.123V410.905H222.923V397.97Z" fill="#407BFF"/>
<path d="M148.524 317.127H121.635V330.063H148.524V317.127Z" fill="#407BFF"/>
<path d="M148.524 333.295H121.635V346.231H148.524V333.295Z" fill="#407BFF"/>
<path d="M148.524 349.464H121.635V362.399H148.524V349.464Z" fill="#407BFF"/>
<path d="M148.524 365.633H121.635V378.568H148.524V365.633Z" fill="#407BFF"/>
<path d="M148.524 381.801H121.635V394.737H148.524V381.801Z" fill="#407BFF"/>
<path d="M148.524 397.97H121.635V410.905H148.524V397.97Z" fill="#407BFF"/>
<path opacity="0.4" d="M136.747 319.714H124.125V327.475H136.747V319.714Z" fill="#263238"/>
<path opacity="0.4" d="M136.747 335.883H124.125V343.644H136.747V335.883Z" fill="#263238"/>
<path opacity="0.4" d="M136.747 352.051H124.125V359.813H136.747V352.051Z" fill="#263238"/>
<path opacity="0.4" d="M136.747 368.22H124.125V375.981H136.747V368.22Z" fill="#263238"/>
<path opacity="0.4" d="M136.747 384.389H124.125V392.149H136.747V384.389Z" fill="#263238"/>
<path opacity="0.4" d="M136.747 400.557H124.125V408.319H136.747V400.557Z" fill="#263238"/>
<path opacity="0.7" d="M219.649 318.813H218.088V328.377H219.649V318.813Z" fill="white"/>
<path opacity="0.7" d="M216.649 318.813H215.088V328.377H216.649V318.813Z" fill="white"/>
<path opacity="0.7" d="M213.649 318.813H212.088V328.377H213.649V318.813Z" fill="white"/>
<path opacity="0.7" d="M210.649 318.813H209.088V328.377H210.649V318.813Z" fill="white"/>
<path opacity="0.7" d="M207.649 318.813H206.088V328.377H207.649V318.813Z" fill="white"/>
<path opacity="0.7" d="M219.649 334.98H218.088V344.544H219.649V334.98Z" fill="white"/>
<path opacity="0.7" d="M216.649 334.98H215.088V344.544H216.649V334.98Z" fill="white"/>
<path opacity="0.7" d="M213.649 334.98H212.088V344.544H213.649V334.98Z" fill="white"/>
<path opacity="0.7" d="M210.649 334.98H209.088V344.544H210.649V334.98Z" fill="white"/>
<path opacity="0.7" d="M207.649 334.98H206.088V344.544H207.649V334.98Z" fill="white"/>
<path opacity="0.7" d="M219.649 351.149H218.088V360.714H219.649V351.149Z" fill="white"/>
<path opacity="0.7" d="M216.649 351.149H215.088V360.714H216.649V351.149Z" fill="white"/>
<path opacity="0.7" d="M213.649 351.149H212.088V360.714H213.649V351.149Z" fill="white"/>
<path opacity="0.7" d="M210.649 351.149H209.088V360.714H210.649V351.149Z" fill="white"/>
<path opacity="0.7" d="M207.649 351.149H206.088V360.714H207.649V351.149Z" fill="white"/>
<path opacity="0.7" d="M219.649 367.317H218.088V376.882H219.649V367.317Z" fill="white"/>
<path opacity="0.7" d="M216.649 367.317H215.088V376.882H216.649V367.317Z" fill="white"/>
<path opacity="0.7" d="M213.649 367.317H212.088V376.882H213.649V367.317Z" fill="white"/>
<path opacity="0.7" d="M210.649 367.317H209.088V376.882H210.649V367.317Z" fill="white"/>
<path opacity="0.7" d="M207.649 367.317H206.088V376.882H207.649V367.317Z" fill="white"/>
<path opacity="0.7" d="M219.649 383.486H218.088V393.05H219.649V383.486Z" fill="white"/>
<path opacity="0.7" d="M216.649 383.486H215.088V393.05H216.649V383.486Z" fill="white"/>
<path opacity="0.7" d="M213.649 383.486H212.088V393.05H213.649V383.486Z" fill="white"/>
<path opacity="0.7" d="M210.649 383.486H209.088V393.05H210.649V383.486Z" fill="white"/>
<path opacity="0.7" d="M207.649 383.486H206.088V393.05H207.649V383.486Z" fill="white"/>
<path opacity="0.7" d="M219.649 399.654H218.088V409.219H219.649V399.654Z" fill="white"/>
<path opacity="0.7" d="M216.649 399.654H215.088V409.219H216.649V399.654Z" fill="white"/>
<path opacity="0.7" d="M213.649 399.654H212.088V409.219H213.649V399.654Z" fill="white"/>
<path opacity="0.7" d="M210.649 399.654H209.088V409.219H210.649V399.654Z" fill="white"/>
<path opacity="0.7" d="M207.649 399.654H206.088V409.219H207.649V399.654Z" fill="white"/>
<path opacity="0.2" d="M162.303 325.182C163.18 325.182 163.891 324.471 163.891 323.594C163.891 322.717 163.18 322.006 162.303 322.006C161.426 322.006 160.715 322.717 160.715 323.594C160.715 324.471 161.426 325.182 162.303 325.182Z" fill="white"/>
<path opacity="0.2" d="M172.303 325.182C173.18 325.182 173.891 324.471 173.891 323.594C173.891 322.717 173.18 322.006 172.303 322.006C171.426 322.006 170.715 322.717 170.715 323.594C170.715 324.471 171.426 325.182 172.303 325.182Z" fill="white"/>
<path opacity="0.4" d="M182.303 325.182C183.18 325.182 183.891 324.471 183.891 323.594C183.891 322.717 183.18 322.006 182.303 322.006C181.426 322.006 180.715 322.717 180.715 323.594C180.715 324.471 181.426 325.182 182.303 325.182Z" fill="white"/>
<path opacity="0.4" d="M162.303 341.351C163.18 341.351 163.891 340.64 163.891 339.763C163.891 338.886 163.18 338.175 162.303 338.175C161.426 338.175 160.715 338.886 160.715 339.763C160.715 340.64 161.426 341.351 162.303 341.351Z" fill="white"/>
<path opacity="0.2" d="M172.303 341.351C173.18 341.351 173.891 340.64 173.891 339.763C173.891 338.886 173.18 338.175 172.303 338.175C171.426 338.175 170.715 338.886 170.715 339.763C170.715 340.64 171.426 341.351 172.303 341.351Z" fill="white"/>
<path opacity="0.4" d="M182.303 341.351C183.18 341.351 183.891 340.64 183.891 339.763C183.891 338.886 183.18 338.175 182.303 338.175C181.426 338.175 180.715 338.886 180.715 339.763C180.715 340.64 181.426 341.351 182.303 341.351Z" fill="white"/>
<path opacity="0.2" d="M162.303 357.52C163.18 357.52 163.891 356.809 163.891 355.932C163.891 355.055 163.18 354.344 162.303 354.344C161.426 354.344 160.715 355.055 160.715 355.932C160.715 356.809 161.426 357.52 162.303 357.52Z" fill="white"/>
<path opacity="0.4" d="M172.303 357.52C173.18 357.52 173.891 356.809 173.891 355.932C173.891 355.055 173.18 354.344 172.303 354.344C171.426 354.344 170.715 355.055 170.715 355.932C170.715 356.809 171.426 357.52 172.303 357.52Z" fill="white"/>
<path opacity="0.2" d="M182.303 357.52C183.18 357.52 183.891 356.809 183.891 355.932C183.891 355.055 183.18 354.344 182.303 354.344C181.426 354.344 180.715 355.055 180.715 355.932C180.715 356.809 181.426 357.52 182.303 357.52Z" fill="white"/>
<path opacity="0.4" d="M162.303 373.688C163.18 373.688 163.891 372.977 163.891 372.1C163.891 371.223 163.18 370.512 162.303 370.512C161.426 370.512 160.715 371.223 160.715 372.1C160.715 372.977 161.426 373.688 162.303 373.688Z" fill="white"/>
<path opacity="0.2" d="M172.303 373.688C173.18 373.688 173.891 372.977 173.891 372.1C173.891 371.223 173.18 370.512 172.303 370.512C171.426 370.512 170.715 371.223 170.715 372.1C170.715 372.977 171.426 373.688 172.303 373.688Z" fill="white"/>
<path opacity="0.2" d="M182.303 373.688C183.18 373.688 183.891 372.977 183.891 372.1C183.891 371.223 183.18 370.512 182.303 370.512C181.426 370.512 180.715 371.223 180.715 372.1C180.715 372.977 181.426 373.688 182.303 373.688Z" fill="white"/>
<path opacity="0.2" d="M162.303 389.857C163.18 389.857 163.891 389.146 163.891 388.269C163.891 387.392 163.18 386.681 162.303 386.681C161.426 386.681 160.715 387.392 160.715 388.269C160.715 389.146 161.426 389.857 162.303 389.857Z" fill="white"/>
<path opacity="0.4" d="M172.303 389.857C173.18 389.857 173.891 389.146 173.891 388.269C173.891 387.392 173.18 386.681 172.303 386.681C171.426 386.681 170.715 387.392 170.715 388.269C170.715 389.146 171.426 389.857 172.303 389.857Z" fill="white"/>
<path opacity="0.4" d="M182.303 389.857C183.18 389.857 183.891 389.146 183.891 388.269C183.891 387.392 183.18 386.681 182.303 386.681C181.426 386.681 180.715 387.392 180.715 388.269C180.715 389.146 181.426 389.857 182.303 389.857Z" fill="white"/>
<path opacity="0.4" d="M162.303 406.026C163.18 406.026 163.891 405.315 163.891 404.438C163.891 403.561 163.18 402.85 162.303 402.85C161.426 402.85 160.715 403.561 160.715 404.438C160.715 405.315 161.426 406.026 162.303 406.026Z" fill="white"/>
<path opacity="0.2" d="M172.303 406.026C173.18 406.026 173.891 405.315 173.891 404.438C173.891 403.561 173.18 402.85 172.303 402.85C171.426 402.85 170.715 403.561 170.715 404.438C170.715 405.315 171.426 406.026 172.303 406.026Z" fill="white"/>
<path opacity="0.4" d="M182.303 406.026C183.18 406.026 183.891 405.315 183.891 404.438C183.891 403.561 183.18 402.85 182.303 402.85C181.426 402.85 180.715 403.561 180.715 404.438C180.715 405.315 181.426 406.026 182.303 406.026Z" fill="white"/>
<path d="M386.506 219.72H384.506V311.337H386.506V219.72Z" fill="#407BFF"/>
<path opacity="0.7" d="M327.332 365.016H316.133V363.016H327.332V365.016ZM304.133 365.016H292.133V363.016H304.133V365.016ZM280.133 365.016H268.133V363.016H280.133V365.016ZM256.133 365.016H244.133V363.016H256.133V365.016Z" fill="#407BFF"/>
<path d="M352.673 308.068L338.243 378.85C337.551 382.245 340.793 385.115 344.078 384.017L412.592 361.122C415.878 360.024 416.742 355.782 414.149 353.485L360.066 305.597C357.472 303.303 353.365 304.675 352.673 308.068Z" fill="#407BFF"/>
<path d="M346.732 372.746L358.096 317.01C358.378 315.627 360.051 315.067 361.108 316.002L403.696 353.712C404.753 354.648 404.4 356.377 403.062 356.823L349.11 374.851C347.771 375.299 346.45 374.129 346.732 372.746Z" fill="white"/>
<path d="M360.49 333.662L362.064 338.372C362.089 338.447 362.119 338.521 362.153 338.594L367.488 349.807C367.915 350.704 368.945 351.143 369.887 350.828L371.978 350.13C372.918 349.816 373.478 348.85 373.283 347.878L370.839 335.695C370.823 335.615 370.802 335.536 370.776 335.459L369.203 330.751C368.859 329.722 367.745 329.165 366.715 329.51L361.732 331.175C360.702 331.518 360.146 332.632 360.49 333.662Z" fill="#263238"/>
<path d="M373.005 360.125C374.959 360.125 376.543 358.541 376.543 356.587C376.543 354.633 374.959 353.049 373.005 353.049C371.051 353.049 369.467 354.633 369.467 356.587C369.467 358.541 371.051 360.125 373.005 360.125Z" fill="#263238"/>
<path d="M166.829 172.444C161.793 173.888 138.974 195.555 150.589 206.777C162.204 218 188.446 219.5 194.959 212.834C201.472 206.166 202.536 189.703 194.959 175.666C190.27 166.979 166.829 162.777 166.829 172.444Z" fill="#263238"/>
<path opacity="0.5" d="M166.829 172.444C161.793 173.888 138.974 195.555 150.589 206.777C162.204 218 188.446 219.5 194.959 212.834C201.472 206.166 202.536 189.703 194.959 175.666C190.27 166.979 166.829 162.777 166.829 172.444Z" fill="white"/>
<path d="M200.31 233.764L200.297 234.399L200.299 235.202C200.307 235.751 200.307 236.307 200.336 236.871C200.381 237.995 200.478 239.132 200.618 240.261C200.876 242.525 201.322 244.758 201.888 246.943C202.484 249.117 203.233 251.234 204.163 253.254C204.634 254.26 205.149 255.243 205.706 256.199C205.975 256.685 206.276 257.148 206.572 257.617C206.715 257.855 206.88 258.076 207.036 258.305L207.46 258.922C207.473 258.981 207.346 258.861 207.074 258.768C206.804 258.67 206.476 258.666 206.409 258.715C206.25 258.836 206.943 258.747 207.682 258.338C209.229 257.533 211.095 256.037 212.802 254.411C216.278 251.133 219.634 247.199 222.834 243.356L222.896 243.283C223.953 242.012 225.84 241.84 227.111 242.898C228.166 243.777 228.462 245.231 227.924 246.425C226.785 248.954 225.528 251.279 224.141 253.628C222.75 255.958 221.232 258.235 219.493 260.463C218.62 261.576 217.678 262.663 216.632 263.739C215.586 264.814 214.433 265.876 212.987 266.862C211.531 267.811 209.793 268.876 207.022 269.163C205.661 269.295 204.006 269.089 202.564 268.422C201.114 267.776 199.969 266.8 199.154 265.86L198.378 264.941C198.14 264.653 197.894 264.37 197.672 264.071C197.217 263.479 196.757 262.887 196.337 262.27C195.462 261.055 194.703 259.769 193.977 258.469C193.256 257.165 192.618 255.824 192.02 254.467C191.452 253.1 190.944 251.712 190.493 250.31C189.606 247.503 188.979 244.633 188.614 241.735C188.437 240.284 188.317 238.827 188.261 237.354C188.231 236.619 188.217 235.877 188.229 235.125L188.27 233.979L188.305 233.382L188.363 232.666C188.628 229.368 191.516 226.91 194.814 227.176C197.987 227.432 200.383 230.115 200.323 233.256L200.31 233.764Z" fill="#7F3E3B"/>
<path d="M238.291 239.98L236.199 239.144C234.812 238.589 233.261 238.603 231.885 239.185L224.048 242.492L222.031 246.109C224.919 250.724 229.969 248.349 229.969 248.349L234.895 248.712C235.835 248.781 236.732 248.306 237.202 247.488L239.507 243.478C240.25 242.186 239.675 240.534 238.291 239.98Z" fill="#7F3E3B"/>
<path d="M196.446 223.859C200.088 226.083 203.831 241.941 203.831 241.941L188.104 249.929C188.104 249.929 181.399 232.791 184.526 228.207C187.782 223.435 191.132 220.614 196.446 223.859Z" fill="#263238"/>
<path opacity="0.2" d="M199.49 235.789C200.124 237.553 200.261 240.731 199.434 244.176L188.105 249.928C188.105 249.928 184.189 239.924 183.744 233.157C187.756 229.213 196.959 228.709 199.49 235.789Z" fill="black"/>
<path d="M199.017 231.235C198.49 239.202 196.304 260.188 191.423 272.75C190.034 276.324 195.09 278.223 189.536 281.717L150.099 279.527C146.774 276.778 149.729 273.06 149.495 271.252C147.541 256.169 150.422 251.501 146.469 218.364C146.469 218.364 155.101 217.012 163.876 217.106C170.74 217.179 176.361 217.292 182.347 218.195C185.009 218.596 187.784 219.133 190.294 219.668C195.675 220.813 199.38 225.746 199.017 231.235Z" fill="#263238"/>
<path opacity="0.2" d="M148.047 234.279C150.247 235.969 152.137 238.32 153.087 240.719C154.787 244.969 150.347 253.15 148.727 255.89C148.748 250.49 148.808 244.24 148.047 234.279Z" fill="black"/>
<path d="M179.478 225.973C179.478 225.973 172.757 231.481 172.174 237.334C166.091 232.666 159.091 222.465 163.878 217.105C168.913 215.848 179.478 225.973 179.478 225.973Z" fill="#407BFF"/>
<path d="M180.34 227.713C180.34 227.713 185.507 232.136 185.59 237.334C188.987 232.834 188.987 221.584 182.348 218.194C177.312 216.938 180.34 227.713 180.34 227.713Z" fill="#407BFF"/>
<path d="M215.549 365.19L224.11 369.701L236.471 348.982L227.911 344.473L215.549 365.19Z" fill="#7F3E3B"/>
<path d="M225.343 367.451L220.326 357.357C220.143 356.99 219.741 356.818 219.356 356.945L210.798 359.763C209.91 360.056 209.481 361.158 209.916 361.997C211.725 365.486 212.775 367.079 214.981 371.518C216.338 374.248 218.169 380.209 220.044 383.981C221.877 387.669 225.747 386.1 225.304 384.362C223.319 376.569 224.722 372.589 225.535 369.225C225.684 368.621 225.61 367.988 225.343 367.451Z" fill="#263238"/>
<g opacity="0.2">
<path opacity="0.2" d="M227.905 344.477L236.469 348.989L229.09 361.346L221.18 355.739L227.905 344.477Z" fill="black"/>
</g>
<path d="M183.527 281.668C183.527 281.668 243.862 273.19 249.313 291.019C259.548 324.498 233.96 357.69 233.96 357.69L222.22 351.255C222.22 351.255 234.589 323.594 230.169 307.074C218.726 303.882 163.168 330.062 162.963 288.746C162.954 286.959 163.893 285.32 165.65 284.994L183.527 281.668Z" fill="#407BFF"/>
<g opacity="0.3">
<path opacity="0.3" d="M183.527 281.668C183.527 281.668 243.862 273.19 249.313 291.019C259.548 324.498 233.96 357.69 233.96 357.69L222.22 351.255C222.22 351.255 234.589 323.594 230.169 307.074C218.726 303.882 163.168 330.062 162.963 288.746C162.954 286.959 163.893 285.32 165.65 284.994L183.527 281.668Z" fill="white"/>
</g>
<path d="M219.963 351.322L233.926 360.972L237.891 356.348L222.534 345.518L219.963 351.322Z" fill="#407BFF"/>
<path d="M226.512 372.736C226.548 372.754 226.584 372.77 226.622 372.785C227.046 372.949 227.485 372.879 227.928 372.576C228.262 372.347 228.324 372.056 228.316 371.855C228.269 370.575 225.152 368.721 224.797 368.513C224.71 368.46 224.612 368.472 224.536 368.528C224.46 368.584 224.424 368.68 224.446 368.773C224.738 370.033 225.391 372.184 226.512 372.736ZM225.048 369.225C226.273 370.002 227.816 371.2 227.84 371.873C227.843 371.957 227.826 372.069 227.659 372.184C227.35 372.397 227.067 372.449 226.794 372.342C226.143 372.101 225.514 370.943 225.048 369.225Z" fill="#407BFF"/>
<path d="M224.865 369.1C225.983 369.652 228.295 370.133 229.117 369.496C229.291 369.361 229.555 369.05 229.354 368.484C229.227 368.127 228.979 367.873 228.622 367.724C227.271 367.177 224.679 368.451 224.569 368.505C224.493 368.544 224.444 368.618 224.438 368.703C224.432 368.787 224.472 368.868 224.542 368.915C224.633 368.978 224.742 369.039 224.865 369.1ZM228.51 368.195C228.704 368.291 228.834 368.437 228.906 368.643C229.008 368.931 228.916 369.049 228.825 369.12C228.27 369.551 226.307 369.256 225.2 368.74C226.086 368.361 227.638 367.84 228.443 368.166C228.467 368.176 228.489 368.186 228.51 368.195Z" fill="#407BFF"/>
<path d="M149.633 277.104L148.379 280.684C148.22 280.957 148.537 281.265 149.007 281.293L190.872 283.76C191.239 283.781 191.553 283.62 191.59 283.391L192.172 279.772C192.212 279.521 191.907 279.29 191.505 279.265L150.314 276.837C150.011 276.819 149.735 276.927 149.633 277.104Z" fill="#407BFF"/>
<path d="M155.029 282.043L153.926 281.979C153.706 281.965 153.546 281.842 153.569 281.706L154.365 277.005C154.388 276.868 154.587 276.767 154.807 276.779L155.91 276.844C156.13 276.857 156.291 276.979 156.267 277.117L155.471 281.816C155.448 281.954 155.249 282.057 155.029 282.043Z" fill="#263238"/>
<path d="M187.747 283.972L186.644 283.907C186.424 283.894 186.264 283.771 186.287 283.634L187.083 278.935C187.106 278.796 187.305 278.695 187.525 278.708L188.629 278.772C188.848 278.786 189.009 278.909 188.986 279.045L188.19 283.745C188.166 283.883 187.966 283.984 187.747 283.972Z" fill="#263238"/>
<path d="M171.457 283.012L170.354 282.947C170.134 282.934 169.973 282.811 169.997 282.674L170.793 277.974C170.816 277.836 171.015 277.735 171.235 277.747L172.338 277.812C172.558 277.825 172.718 277.948 172.695 278.085L171.899 282.785C171.875 282.922 171.676 283.024 171.457 283.012Z" fill="#263238"/>
<path d="M166.802 198.646C167.616 204.658 168.269 213.385 163.877 217.106C163.877 217.106 171.102 221.35 178.009 230.252C178.738 231.191 180.182 231.122 180.82 230.118C185.905 222.109 182.348 218.194 182.348 218.194C178.479 217.334 178.952 213.888 180.379 209.339L166.802 198.646Z" fill="#7F3E3B"/>
<path d="M183.206 219.855C183.801 221.706 183.999 225.112 180.821 230.118C180.183 231.122 178.74 231.191 178.01 230.252C173.97 225.045 169.822 221.433 167.074 219.33C171.201 220.5 177.003 226.185 179.478 228.944C181.228 227.585 183.257 222.465 183.206 219.855Z" fill="white"/>
<path opacity="0.2" d="M170.536 203.279L178.056 207.509L180.376 209.339C179.646 211.669 179.166 213.709 179.396 215.259C174.465 213.859 168.835 207.32 170.536 203.279Z" fill="black"/>
<path d="M167.006 184.598C165.427 194.43 164.549 198.557 168.331 204.633C174.019 213.772 186.44 213.561 190.925 204.4C194.962 196.154 196.865 181.462 188.238 175.474C179.738 169.574 168.585 174.767 167.006 184.598Z" fill="#7F3E3B"/>
<path d="M194.751 185C193.501 179.666 194.119 170.666 184.06 171.166C174.7 171.632 169.006 170.23 169.065 175.605C158.723 180.662 158.087 185.9 165.335 190.85C170.849 192.173 172.262 185.838 171.627 180.65C175.672 182.976 183.246 179.621 186.81 179.75C191.418 179.916 196.001 190.334 194.751 185Z" fill="#263238"/>
<path opacity="0.5" d="M194.751 185C193.501 179.666 194.119 170.666 184.06 171.166C174.7 171.632 169.006 170.23 169.065 175.605C158.723 180.662 158.087 185.9 165.335 190.85C170.849 192.173 172.262 185.838 171.627 180.65C175.672 182.976 183.246 179.621 186.81 179.75C191.418 179.916 196.001 190.334 194.751 185Z" fill="white"/>
<path opacity="0.2" d="M179.349 190.131C179.349 190.131 176.784 190.16 175.285 188.982C177.63 189.298 179.349 190.131 179.349 190.131Z" fill="black"/>
<path opacity="0.2" d="M179.593 189.438C179.593 189.438 177.259 189.115 176.32 187.789C178.333 188.411 179.593 189.438 179.593 189.438Z" fill="black"/>
<path d="M183.149 189.417C182.633 189.301 182.07 189.847 181.893 190.636C181.716 191.425 181.99 192.159 182.507 192.275C183.023 192.391 183.585 191.845 183.763 191.056C183.94 190.267 183.665 189.533 183.149 189.417Z" fill="#263238"/>
<path d="M192.07 191.426C191.553 191.311 190.992 191.857 190.815 192.647C190.639 193.436 190.914 194.17 191.43 194.285C191.947 194.401 192.508 193.854 192.685 193.065C192.861 192.275 192.586 191.541 192.07 191.426Z" fill="#263238"/>
<path d="M191.838 191.414L193.857 191.293C193.857 191.293 192.552 192.557 191.838 191.414Z" fill="#263238"/>
<path d="M187.751 193.447C187.751 193.447 188.329 197.147 189.436 199.118C188.175 199.857 186.502 199.015 186.502 199.015L187.751 193.447Z" fill="#630F0F"/>
<path d="M182.471 199.534C182.102 199.459 181.706 199.408 181.284 199.389C181.153 199.382 181.041 199.484 181.035 199.615C181.029 199.747 181.13 199.864 181.262 199.863C184.811 200.035 186.35 202.585 186.366 202.61C186.433 202.724 186.578 202.762 186.691 202.695C186.804 202.629 186.842 202.482 186.776 202.37C186.716 202.268 185.428 200.132 182.471 199.534Z" fill="#263238"/>
<path d="M162.755 191.754C163.059 193.796 164.277 195.507 165.657 196.494C167.732 197.98 169.638 196.334 169.789 193.922C169.925 191.75 169.01 188.359 166.577 187.83C164.18 187.31 162.407 189.42 162.755 191.754Z" fill="#7F3E3B"/>
<path d="M181.303 183.942C181.462 184.064 181.687 184.076 181.861 183.955C183.67 182.707 186.335 183.664 186.361 183.674C186.607 183.766 186.881 183.639 186.971 183.393C187.062 183.147 186.939 182.874 186.689 182.783C186.561 182.735 183.531 181.649 181.32 183.175C181.104 183.323 181.05 183.62 181.199 183.835C181.229 183.877 181.265 183.913 181.303 183.942Z" fill="#263238"/>
<path d="M192.321 188.202C192.161 188.228 192.018 188.334 191.953 188.496C191.857 188.74 191.976 189.016 192.22 189.113C194.662 190.084 196.471 188.838 196.546 188.785C196.76 188.633 196.811 188.336 196.66 188.123C196.509 187.908 196.214 187.859 195.998 188.008C195.926 188.059 194.511 189.001 192.571 188.23C192.489 188.197 192.403 188.189 192.321 188.202Z" fill="#263238"/>
<path d="M229.018 397.918L238.245 395.007L232.217 371.646L222.99 374.558L229.018 397.918Z" fill="#7F3E3B"/>
<path d="M237.515 392.547L226.812 389.012C226.423 388.883 226.018 389.049 225.837 389.411L221.82 397.476C221.403 398.312 221.884 399.393 222.788 399.674C226.54 400.843 228.411 401.218 233.118 402.773C236.014 403.729 241.538 406.622 245.537 407.943C249.448 409.234 251.055 405.38 249.508 404.472C242.573 400.4 240.731 396.602 238.914 393.659C238.586 393.129 238.085 392.735 237.515 392.547Z" fill="#263238"/>
<g opacity="0.2">
<path opacity="0.2" d="M222.988 374.564L232.22 371.652L235.81 385.59L226.261 387.268L222.988 374.564Z" fill="black"/>
</g>
<path d="M169.788 280.778C169.788 280.778 225.535 284.601 226.539 303.216C228.425 338.174 236.64 379.554 236.64 379.554L223.808 383.37C223.808 383.37 207.091 341.35 204.096 314.197C193.756 308.347 143.137 328.717 148.126 282.704C148.318 280.928 149.853 279.602 151.637 279.708L169.788 280.778Z" fill="#407BFF"/>
<g opacity="0.4">
<path opacity="0.4" d="M169.788 280.778C169.788 280.778 225.535 284.601 226.539 303.216C228.425 338.174 236.64 379.554 236.64 379.554L223.808 383.37C223.808 383.37 207.091 341.35 204.096 314.197C193.756 308.347 143.137 328.717 148.126 282.704C148.318 280.928 149.853 279.602 151.637 279.708L169.788 280.778Z" fill="white"/>
</g>
<path d="M222.265 385.024L238.946 381.891L238.45 375.819L219.949 379.114L222.265 385.024Z" fill="#407BFF"/>
<path d="M242.092 395.436C242.13 395.423 242.167 395.409 242.204 395.392C242.619 395.206 242.878 394.845 242.973 394.317C243.046 393.919 242.883 393.671 242.734 393.535C241.791 392.667 238.281 393.579 237.884 393.684C237.784 393.709 237.724 393.786 237.71 393.88C237.696 393.974 237.739 394.067 237.82 394.116C238.923 394.795 240.911 395.844 242.092 395.436ZM238.567 394.005C239.981 393.682 241.916 393.427 242.413 393.884C242.476 393.942 242.542 394.033 242.507 394.232C242.44 394.602 242.278 394.838 242.01 394.959C241.381 395.25 240.116 394.883 238.567 394.005Z" fill="#407BFF"/>
<path d="M238.351 394.047C239.529 393.641 241.497 392.335 241.623 391.303C241.65 391.084 241.614 390.679 241.072 390.424C240.727 390.262 240.374 390.26 240.017 390.409C238.678 390.984 237.76 393.722 237.721 393.839C237.695 393.92 237.713 394.008 237.769 394.071C237.825 394.134 237.91 394.163 237.993 394.146C238.1 394.125 238.221 394.092 238.351 394.047ZM240.272 390.82C240.476 390.75 240.672 390.76 240.869 390.853C241.146 390.984 241.165 391.131 241.152 391.246C241.067 391.943 239.477 393.131 238.332 393.555C238.686 392.659 239.408 391.189 240.206 390.846C240.227 390.836 240.25 390.828 240.272 390.82Z" fill="#407BFF"/>
<path d="M182.912 189.413L184.931 189.292C184.931 189.292 183.626 190.555 182.912 189.413Z" fill="#263238"/>
<path d="M151.706 233.081C150.737 236.008 149.692 239.144 148.782 242.215C147.841 245.302 146.957 248.403 146.102 251.504C145.26 254.608 144.504 257.721 143.788 260.83C143.124 263.943 142.505 267.053 142.043 270.15C141.629 272.808 141.639 275.899 141.748 279.043C141.897 282.191 142.114 285.41 142.441 288.637C143.068 295.09 143.859 301.653 144.684 308.141L144.691 308.194C144.899 309.829 143.741 311.323 142.107 311.53C140.674 311.712 139.349 310.844 138.904 309.526C136.733 303.11 134.936 296.671 133.497 290.036C132.804 286.717 132.151 283.366 131.713 279.916C131.295 276.466 130.918 272.902 131.249 268.968C131.802 261.995 133.008 255.228 134.573 248.591C135.352 245.274 136.234 241.987 137.2 238.731C138.203 235.46 139.182 232.286 140.434 228.971C141.604 225.871 145.067 224.308 148.166 225.478C151.184 226.618 152.746 229.929 151.747 232.964L151.706 233.081Z" fill="#7F3E3B"/>
<path d="M146.47 218.363C142.322 219.361 136.6 233.105 136.6 233.105L149.426 244.744C149.426 244.744 158.201 233.967 156.799 228.599C155.338 223.008 151.204 217.223 146.47 218.363Z" fill="#263238"/>
<path d="M153.586 315.393L153.537 315.11C153.206 313.191 151.997 311.538 150.268 310.641L143.39 307.074L139.319 307.835C138.557 311.935 143.585 315.963 143.585 315.963L144.676 318.284C145.437 319.903 147.299 320.682 148.986 320.089L151.308 319.273C152.912 318.708 153.875 317.068 153.586 315.393Z" fill="#7F3E3B"/>
<path d="M222.272 242.268C220.901 243.565 220.464 245.33 221.297 246.211C222.13 247.092 223.917 246.755 225.288 245.458C226.66 244.162 227.096 242.397 226.264 241.516C225.431 240.635 223.644 240.972 222.272 242.268Z" fill="#407BFF"/>
<path d="M226.656 249.95C226.608 249.95 226.56 249.947 226.511 249.939C226.331 249.914 222.114 249.222 223.054 242.356C223.129 241.809 223.629 241.434 224.181 241.502C224.728 241.576 225.111 242.081 225.036 242.628C224.371 247.471 226.773 247.957 226.798 247.961C227.344 248.04 227.723 248.547 227.644 249.094C227.573 249.592 227.146 249.95 226.656 249.95Z" fill="#407BFF"/>
<path d="M222.615 242.551C221.598 243.512 221.175 244.715 221.669 245.238C222.164 245.761 223.389 245.406 224.405 244.445C225.422 243.484 225.845 242.281 225.351 241.758C224.857 241.235 223.632 241.59 222.615 242.551Z" fill="white"/>
<path d="M64.0293 95.2402H76.1582V98H60.6367V72.4062H64.0293V95.2402ZM83.0312 98H79.7793V78.9805H83.0312V98ZM79.5156 73.9355C79.5156 73.4082 79.6738 72.9629 79.9902 72.5996C80.3184 72.2363 80.7988 72.0547 81.4316 72.0547C82.0645 72.0547 82.5449 72.2363 82.873 72.5996C83.2012 72.9629 83.3652 73.4082 83.3652 73.9355C83.3652 74.4629 83.2012 74.9023 82.873 75.2539C82.5449 75.6055 82.0645 75.7812 81.4316 75.7812C80.7988 75.7812 80.3184 75.6055 79.9902 75.2539C79.6738 74.9023 79.5156 74.4629 79.5156 73.9355ZM95.8809 95.6973C97.041 95.6973 98.0547 95.3457 98.9219 94.6426C99.7891 93.9395 100.27 93.0605 100.363 92.0059H103.439C103.381 93.0957 103.006 94.1328 102.314 95.1172C101.623 96.1016 100.697 96.8867 99.5371 97.4727C98.3887 98.0586 97.1699 98.3516 95.8809 98.3516C93.291 98.3516 91.2285 97.4902 89.6934 95.7676C88.1699 94.0332 87.4082 91.666 87.4082 88.666V88.1211C87.4082 86.2695 87.748 84.623 88.4277 83.1816C89.1074 81.7402 90.0801 80.6211 91.3457 79.8242C92.623 79.0273 94.1289 78.6289 95.8633 78.6289C97.9961 78.6289 99.7656 79.2676 101.172 80.5449C102.59 81.8223 103.346 83.4805 103.439 85.5195H100.363C100.27 84.2891 99.8008 83.2812 98.957 82.4961C98.125 81.6992 97.0938 81.3008 95.8633 81.3008C94.2109 81.3008 92.9277 81.8984 92.0137 83.0938C91.1113 84.2773 90.6602 85.9941 90.6602 88.2441V88.8594C90.6602 91.0508 91.1113 92.7383 92.0137 93.9219C92.916 95.1055 94.2051 95.6973 95.8809 95.6973ZM114.988 98.3516C112.41 98.3516 110.312 97.5078 108.695 95.8203C107.078 94.1211 106.27 91.8535 106.27 89.0176V88.4199C106.27 86.5332 106.627 84.8516 107.342 83.375C108.068 81.8867 109.076 80.7266 110.365 79.8945C111.666 79.0508 113.072 78.6289 114.584 78.6289C117.057 78.6289 118.979 79.4434 120.35 81.0723C121.721 82.7012 122.406 85.0332 122.406 88.0684V89.4219H109.521C109.568 91.2969 110.113 92.8145 111.156 93.9746C112.211 95.123 113.547 95.6973 115.164 95.6973C116.312 95.6973 117.285 95.4629 118.082 94.9941C118.879 94.5254 119.576 93.9043 120.174 93.1309L122.16 94.6777C120.566 97.127 118.176 98.3516 114.988 98.3516ZM114.584 81.3008C113.271 81.3008 112.17 81.7812 111.279 82.7422C110.389 83.6914 109.838 85.0273 109.627 86.75H119.154V86.5039C119.061 84.8516 118.615 83.5742 117.818 82.6719C117.021 81.7578 115.943 81.3008 114.584 81.3008ZM129.262 78.9805L129.367 81.3711C130.82 79.543 132.719 78.6289 135.062 78.6289C139.082 78.6289 141.109 80.8965 141.145 85.4316V98H137.893V85.4141C137.881 84.043 137.564 83.0293 136.943 82.373C136.334 81.7168 135.379 81.3887 134.078 81.3887C133.023 81.3887 132.098 81.6699 131.301 82.2324C130.504 82.7949 129.883 83.5332 129.438 84.4473V98H126.186V78.9805H129.262ZM157.123 92.9551C157.123 92.0762 156.789 91.3965 156.121 90.916C155.465 90.4238 154.311 90.002 152.658 89.6504C151.018 89.2988 149.711 88.877 148.738 88.3848C147.777 87.8926 147.062 87.3066 146.594 86.627C146.137 85.9473 145.908 85.1387 145.908 84.2012C145.908 82.6426 146.564 81.3242 147.877 80.2461C149.201 79.168 150.889 78.6289 152.939 78.6289C155.096 78.6289 156.842 79.1855 158.178 80.2988C159.525 81.4121 160.199 82.8359 160.199 84.5703H156.93C156.93 83.6797 156.549 82.9121 155.787 82.2676C155.037 81.623 154.088 81.3008 152.939 81.3008C151.756 81.3008 150.83 81.5586 150.162 82.0742C149.494 82.5898 149.16 83.2637 149.16 84.0957C149.16 84.8809 149.471 85.4727 150.092 85.8711C150.713 86.2695 151.832 86.6504 153.449 87.0137C155.078 87.377 156.396 87.8105 157.404 88.3145C158.412 88.8184 159.156 89.4277 159.637 90.1426C160.129 90.8457 160.375 91.707 160.375 92.7266C160.375 94.4258 159.695 95.791 158.336 96.8223C156.977 97.8418 155.213 98.3516 153.045 98.3516C151.521 98.3516 150.174 98.082 149.002 97.543C147.83 97.0039 146.91 96.2539 146.242 95.293C145.586 94.3203 145.258 93.2715 145.258 92.1465H148.51C148.568 93.2363 149.002 94.1035 149.811 94.748C150.631 95.3809 151.709 95.6973 153.045 95.6973C154.275 95.6973 155.26 95.4512 155.998 94.959C156.748 94.4551 157.123 93.7871 157.123 92.9551ZM172.504 98.3516C169.926 98.3516 167.828 97.5078 166.211 95.8203C164.594 94.1211 163.785 91.8535 163.785 89.0176V88.4199C163.785 86.5332 164.143 84.8516 164.857 83.375C165.584 81.8867 166.592 80.7266 167.881 79.8945C169.182 79.0508 170.588 78.6289 172.1 78.6289C174.572 78.6289 176.494 79.4434 177.865 81.0723C179.236 82.7012 179.922 85.0332 179.922 88.0684V89.4219H167.037C167.084 91.2969 167.629 92.8145 168.672 93.9746C169.727 95.123 171.062 95.6973 172.68 95.6973C173.828 95.6973 174.801 95.4629 175.598 94.9941C176.395 94.5254 177.092 93.9043 177.689 93.1309L179.676 94.6777C178.082 97.127 175.691 98.3516 172.504 98.3516ZM172.1 81.3008C170.787 81.3008 169.686 81.7812 168.795 82.7422C167.904 83.6914 167.354 85.0273 167.143 86.75H176.67V86.5039C176.576 84.8516 176.131 83.5742 175.334 82.6719C174.537 81.7578 173.459 81.3008 172.1 81.3008ZM207.607 86.1699H196.516V95.2402H209.4V98H193.141V72.4062H209.225V75.1836H196.516V83.4102H207.607V86.1699ZM219.473 85.9238L223.691 78.9805H227.488L221.266 88.3848L227.682 98H223.92L219.525 90.8809L215.131 98H211.352L217.768 88.3848L211.545 78.9805H215.307L219.473 85.9238ZM247.018 88.7012C247.018 91.5957 246.355 93.9277 245.031 95.6973C243.707 97.4668 241.914 98.3516 239.652 98.3516C237.344 98.3516 235.527 97.6191 234.203 96.1543V105.312H230.951V78.9805H233.922L234.08 81.0898C235.404 79.4492 237.244 78.6289 239.6 78.6289C241.885 78.6289 243.689 79.4902 245.014 81.2129C246.35 82.9355 247.018 85.332 247.018 88.4023V88.7012ZM243.766 88.332C243.766 86.1875 243.309 84.4941 242.395 83.252C241.48 82.0098 240.227 81.3887 238.633 81.3887C236.664 81.3887 235.188 82.2617 234.203 84.0078V93.0957C235.176 94.8301 236.664 95.6973 238.668 95.6973C240.227 95.6973 241.463 95.082 242.377 93.8516C243.303 92.6094 243.766 90.7695 243.766 88.332ZM254.699 98H251.447V78.9805H254.699V98ZM251.184 73.9355C251.184 73.4082 251.342 72.9629 251.658 72.5996C251.986 72.2363 252.467 72.0547 253.1 72.0547C253.732 72.0547 254.213 72.2363 254.541 72.5996C254.869 72.9629 255.033 73.4082 255.033 73.9355C255.033 74.4629 254.869 74.9023 254.541 75.2539C254.213 75.6055 253.732 75.7812 253.1 75.7812C252.467 75.7812 251.986 75.6055 251.658 75.2539C251.342 74.9023 251.184 74.4629 251.184 73.9355ZM269.113 81.8984C268.621 81.8164 268.088 81.7754 267.514 81.7754C265.381 81.7754 263.934 82.6836 263.172 84.5V98H259.92V78.9805H263.084L263.137 81.1777C264.203 79.4785 265.715 78.6289 267.672 78.6289C268.305 78.6289 268.785 78.7109 269.113 78.875V81.8984ZM279.66 98.3516C277.082 98.3516 274.984 97.5078 273.367 95.8203C271.75 94.1211 270.941 91.8535 270.941 89.0176V88.4199C270.941 86.5332 271.299 84.8516 272.014 83.375C272.74 81.8867 273.748 80.7266 275.037 79.8945C276.338 79.0508 277.744 78.6289 279.256 78.6289C281.729 78.6289 283.65 79.4434 285.021 81.0723C286.393 82.7012 287.078 85.0332 287.078 88.0684V89.4219H274.193C274.24 91.2969 274.785 92.8145 275.828 93.9746C276.883 95.123 278.219 95.6973 279.836 95.6973C280.984 95.6973 281.957 95.4629 282.754 94.9941C283.551 94.5254 284.248 93.9043 284.846 93.1309L286.832 94.6777C285.238 97.127 282.848 98.3516 279.66 98.3516ZM279.256 81.3008C277.943 81.3008 276.842 81.7812 275.951 82.7422C275.061 83.6914 274.51 85.0273 274.299 86.75H283.826V86.5039C283.732 84.8516 283.287 83.5742 282.49 82.6719C281.693 81.7578 280.615 81.3008 279.256 81.3008ZM290.066 88.332C290.066 85.4141 290.758 83.0703 292.141 81.3008C293.523 79.5195 295.334 78.6289 297.572 78.6289C299.799 78.6289 301.562 79.3906 302.863 80.9141V71H306.115V98H303.127L302.969 95.9609C301.668 97.5547 299.857 98.3516 297.537 98.3516C295.334 98.3516 293.535 97.4492 292.141 95.6445C290.758 93.8398 290.066 91.4844 290.066 88.5781V88.332ZM293.318 88.7012C293.318 90.8574 293.764 92.5449 294.654 93.7637C295.545 94.9824 296.775 95.5918 298.346 95.5918C300.408 95.5918 301.914 94.666 302.863 92.8145V84.0781C301.891 82.2852 300.396 81.3887 298.381 81.3887C296.787 81.3887 295.545 82.0039 294.654 83.2344C293.764 84.4648 293.318 86.2871 293.318 88.7012Z" fill="#3C96D3"/>
</svg>
