<svg width="116" height="119" viewBox="0 0 116 119" fill="none" xmlns="http://www.w3.org/2000/svg">
<path d="M112.823 44.7235C111.277 46.3153 109.587 47.7561 107.815 49.0026C106.035 50.2396 104.176 51.273 102.328 52.1333C100.483 53.0008 98.6378 53.6766 96.867 54.2086C95.1004 54.7568 93.4043 55.1584 91.8329 55.4706C90.2635 55.7935 88.8142 56.0108 87.5302 56.1844C86.2455 56.3557 85.1244 56.479 84.199 56.56C83.2744 56.6511 82.5489 56.701 82.0532 56.7367C81.558 56.7732 81.2939 56.7925 81.2939 56.7925C81.2939 56.7925 81.5552 56.748 82.0444 56.6649C82.5338 56.5826 83.2531 56.4633 84.1609 56.2854C85.07 56.1176 86.1704 55.8892 87.4228 55.5993C88.6745 55.3064 90.0812 54.9564 91.5874 54.4935C93.0959 54.0414 94.7092 53.4924 96.3619 52.8009C98.0197 52.1252 99.7202 51.3106 101.382 50.3256C103.047 49.3472 104.685 48.2178 106.214 46.924C107.734 45.6206 109.144 44.1614 110.403 42.59C111.673 41.0276 112.761 39.3268 113.694 37.5844C114.35 36.395 114.907 35.1709 115.405 33.9461C114.933 28.2189 112.522 22.128 107.633 15.8158C107.522 17.5986 107.3 19.404 106.935 21.1894C106.515 23.2456 105.922 25.2824 105.074 27.1837C104.231 29.0853 103.161 30.8473 101.934 32.3815C100.708 33.9194 99.3358 35.2276 97.9474 36.3269C96.5644 37.4376 95.1364 38.2993 93.8106 39.0488C92.4788 39.7925 91.2137 40.375 90.0858 40.8634C88.9558 41.3475 87.9602 41.7365 87.1308 42.0326C86.3067 42.3418 85.6515 42.553 85.2058 42.7032C84.7601 42.8525 84.5223 42.9323 84.5223 42.9323C84.5223 42.9323 84.7508 42.8293 85.1793 42.6357C85.607 42.4417 86.2402 42.1649 87.0242 41.7766C87.8137 41.4017 88.7602 40.9174 89.823 40.3294C90.8829 39.7377 92.0626 39.0428 93.2784 38.1933C94.4873 37.3383 95.7702 36.3757 96.9639 35.1997C98.1639 34.0342 99.3057 32.6966 100.275 31.1896C101.248 29.6848 102.043 28.0135 102.623 26.2416C103.208 24.47 103.553 22.5917 103.744 20.6984C103.936 18.8039 103.965 16.8856 103.852 14.9934C103.794 13.6573 103.657 12.3354 103.49 11.0401C100.125 7.53653 95.9863 3.97772 90.9791 0.387329C91.95 11.05 100.619 42.8712 47.3017 42.3656C48.494 39.8464 49.4072 37.0455 49.9269 33.9815C45.8257 38.9355 38.9519 38.4041 37.5058 38.1542C35.1302 37.7436 32.9586 37.4901 30.9635 37.3601C32.0863 36.7715 33.6126 35.7532 35.4625 33.9815C31.9345 36.9168 28.4882 36.2616 20.6762 37.9815C20.5088 38.0189 20.3358 38.0532 20.1733 38.0928C20.0779 38.1147 19.9901 38.1321 19.8933 38.1545H19.9423C11.2531 40.3621 9.63704 45.8716 9.63704 45.8716C-6.17644 50.2581 2.23489 56.803 2.23489 56.803C5.17225 51.329 18.8643 55.0421 24.3273 56.5718C53.03 66.6025 75.1777 103.793 47.7194 119C66.0133 112.124 85.1681 77.0985 63.6459 60.9826C69.0264 63.5612 73.9766 69.4703 76.1658 73.3654C94.2019 68.4619 110.626 57.2657 114.588 42.7558C114.025 43.4329 113.442 44.0947 112.823 44.7235ZM15.7102 46.8763C15.7102 46.8763 15.8742 45.1657 21.001 44.7413C21.001 44.7415 18.7666 49.4792 15.7102 46.8763Z" fill="white"/>
</svg>
