<?xml version="1.0" encoding="utf-8"?>
<!-- Generator: Adobe Illustrator 16.0.0, SVG Export Plug-In . SVG Version: 6.00 Build 0)  -->
<!DOCTYPE svg PUBLIC "-//W3C//DTD SVG 1.1//EN" "http://www.w3.org/Graphics/SVG/1.1/DTD/svg11.dtd">
<svg version="1.1" id="Layer_1" xmlns="http://www.w3.org/2000/svg" xmlns:xlink="http://www.w3.org/1999/xlink" x="0px" y="0px"
	 width="224.786px" height="166.654px" viewBox="0 0 224.786 166.654" enable-background="new 0 0 224.786 166.654"
	 xml:space="preserve">
<path fill="#FFFFFF" d="M98.842,0C60.575,0,29.444,30.838,29.444,68.744c0,17.553,6.684,33.583,17.652,45.743l-0.976,0.968h-6.361
	L0,154.84l11.927,11.814l39.76-39.386v-6.301l0.976-0.967c12.277,10.865,28.459,17.485,46.179,17.485
	c38.268,0,69.399-30.838,69.399-68.743S137.109,0,98.842,0 M98.842,123.869c-30.686,0-55.649-24.729-55.649-55.125
	c0-30.396,24.963-55.125,55.649-55.125c30.686,0,55.649,24.729,55.649,55.125S129.527,123.869,98.842,123.869"/>
<path fill="#D1212E" d="M221.939,66.587c0-0.187-0.028-0.373-0.051-0.617h-0.74c-4.006,0-8.011-0.013-12.017,0.014
	c-0.553,0.004-0.844-0.171-1.082-0.65c-2.09-4.235-4.205-8.459-6.297-12.693c-0.6-1.211-1.397-2.15-2.74-2.594
	c-1.907-0.63-4.428,0.662-4.915,2.587c-0.412,1.634-0.813,3.271-1.22,4.908c-0.889,3.56-1.774,7.121-2.672,10.679
	c-0.027,0.11-0.151,0.196-0.27,0.34c-0.135-0.532-0.248-0.963-0.348-1.396c-0.898-3.89-1.795-7.779-2.691-11.668
	c-0.768-3.328-1.533-6.656-2.305-9.983c-0.549-2.371-1.105-4.739-1.652-7.111c-0.406-1.768-0.813-3.535-1.201-5.308
	c-0.338-1.548-1.238-2.646-2.736-3.093c-1.373-0.41-2.69-0.163-3.84,0.804c-1.162,0.977-1.324,2.334-1.477,3.692
	c-0.314,2.806-0.592,5.615-0.902,8.422c-0.33,2.976-0.697,5.949-1.027,8.926c-0.299,2.721-0.555,5.447-0.858,8.167
	c-0.469,4.167-0.978,8.328-1.44,12.495c-0.435,3.912-0.83,7.828-1.252,11.741c-0.104,0.967-0.246,1.93-0.396,3.074
	c-0.158-0.317-0.259-0.473-0.313-0.643c-0.933-2.832-1.853-5.666-2.787-8.495c-1.013-3.053-2.056-6.094-3.051-9.15
	c-0.642-1.973-2.064-3.063-4.138-3.063c-5.033-0.003-10.065-0.002-15.101,0.001c-0.229,0-0.457,0.025-0.713,0.039v7.858
	c0.289,0.015,0.562,0.043,0.834,0.043c3.877,0.003,7.752,0.005,11.629-0.001c0.39,0,0.699,0.029,0.847,0.486
	c0.536,1.664,1.106,3.317,1.655,4.978c0.818,2.468,1.625,4.938,2.449,7.405c0.715,2.145,1.453,4.279,2.17,6.426
	c0.828,2.484,1.633,4.98,2.461,7.468c0.715,2.145,1.502,4.268,2.148,6.432c0.506,1.689,2.102,3.179,4.373,2.951
	c1.336-0.135,3.199-1.296,3.434-3.436c0.129-1.191,0.265-2.384,0.4-3.572c0.346-2.994,0.705-5.988,1.037-8.986
	c0.309-2.764,0.582-5.531,0.887-8.295c0.207-1.871,0.451-3.738,0.66-5.606c0.188-1.657,0.336-3.32,0.521-4.978
	c0.332-2.955,0.69-5.908,1.02-8.863c0.223-1.977,0.408-3.957,0.617-5.936c0.08-0.751,0.18-1.5,0.297-2.443
	c0.15,0.282,0.24,0.391,0.27,0.513c0.22,0.934,0.424,1.872,0.64,2.807c0.771,3.349,1.547,6.697,2.313,10.047
	c0.59,2.579,1.156,5.164,1.754,7.743c0.605,2.62,1.254,5.229,1.844,7.853c0.349,1.548,1.709,2.861,3.298,3.084
	c1.627,0.229,3.437-0.618,4.055-2.07c0.449-1.05,0.697-2.188,0.992-3.3c0.45-1.69,0.869-3.391,1.293-5.089
	c0.476-1.905,0.94-3.814,1.414-5.722c0.435-1.76,0.864-3.521,1.308-5.28c0.248-0.982,0.514-1.962,0.797-3.037
	c0.147,0.169,0.233,0.236,0.278,0.325c1.019,1.965,2.089,3.907,3.025,5.91c0.708,1.517,1.936,2.153,3.45,2.17
	c5.14,0.057,10.279,0.016,15.42,0.032c0.513,0.002,0.66-0.152,0.652-0.656C221.929,71.042,221.943,68.815,221.939,66.587"/>
<path fill="none" stroke="#FFFFFF" stroke-width="5.669" stroke-miterlimit="10" d="M221.939,66.587
	c0-0.187-0.028-0.373-0.051-0.617h-0.74c-4.006,0-8.011-0.013-12.017,0.014c-0.553,0.004-0.844-0.171-1.082-0.65
	c-2.09-4.235-4.205-8.459-6.297-12.693c-0.6-1.211-1.397-2.15-2.74-2.594c-1.907-0.63-4.428,0.662-4.915,2.587
	c-0.412,1.634-0.813,3.271-1.22,4.908c-0.889,3.56-1.774,7.121-2.672,10.679c-0.027,0.11-0.151,0.196-0.27,0.34
	c-0.135-0.532-0.248-0.963-0.348-1.396c-0.898-3.89-1.795-7.779-2.691-11.668c-0.768-3.328-1.533-6.656-2.305-9.983
	c-0.549-2.371-1.105-4.739-1.652-7.111c-0.406-1.768-0.813-3.535-1.201-5.308c-0.338-1.548-1.238-2.646-2.736-3.093
	c-1.373-0.41-2.69-0.163-3.84,0.804c-1.162,0.977-1.324,2.334-1.477,3.692c-0.314,2.806-0.592,5.615-0.902,8.422
	c-0.33,2.976-0.697,5.949-1.027,8.926c-0.299,2.721-0.555,5.447-0.858,8.167c-0.469,4.167-0.978,8.328-1.44,12.495
	c-0.435,3.912-0.83,7.828-1.252,11.741c-0.104,0.967-0.246,1.93-0.396,3.074c-0.158-0.317-0.259-0.473-0.313-0.643
	c-0.933-2.832-1.853-5.666-2.787-8.495c-1.013-3.053-2.056-6.094-3.051-9.15c-0.642-1.973-2.064-3.063-4.138-3.063
	c-5.033-0.003-10.065-0.002-15.101,0.001c-0.229,0-0.457,0.025-0.713,0.039v7.858c0.289,0.015,0.562,0.043,0.834,0.043
	c3.877,0.003,7.752,0.005,11.629-0.001c0.39,0,0.699,0.029,0.847,0.486c0.536,1.664,1.106,3.317,1.655,4.978
	c0.818,2.468,1.625,4.938,2.449,7.405c0.715,2.145,1.453,4.279,2.17,6.426c0.828,2.484,1.633,4.98,2.461,7.468
	c0.715,2.145,1.502,4.268,2.148,6.432c0.506,1.689,2.102,3.179,4.373,2.951c1.336-0.135,3.199-1.296,3.434-3.436
	c0.129-1.191,0.265-2.384,0.4-3.572c0.346-2.994,0.705-5.988,1.037-8.986c0.309-2.764,0.582-5.531,0.887-8.295
	c0.207-1.871,0.451-3.738,0.66-5.606c0.188-1.657,0.336-3.32,0.521-4.978c0.332-2.955,0.69-5.908,1.02-8.863
	c0.223-1.977,0.408-3.957,0.617-5.936c0.08-0.751,0.18-1.5,0.297-2.443c0.15,0.282,0.24,0.391,0.27,0.513
	c0.22,0.934,0.424,1.872,0.64,2.807c0.771,3.349,1.547,6.697,2.313,10.047c0.59,2.579,1.156,5.164,1.754,7.743
	c0.605,2.62,1.254,5.229,1.844,7.853c0.349,1.548,1.709,2.861,3.298,3.084c1.627,0.229,3.437-0.618,4.055-2.07
	c0.449-1.05,0.697-2.188,0.992-3.3c0.45-1.69,0.869-3.391,1.293-5.089c0.476-1.905,0.94-3.814,1.414-5.722
	c0.435-1.76,0.864-3.521,1.308-5.28c0.248-0.982,0.514-1.962,0.797-3.037c0.147,0.169,0.233,0.236,0.278,0.325
	c1.019,1.965,2.089,3.907,3.025,5.91c0.708,1.517,1.936,2.153,3.45,2.17c5.14,0.057,10.279,0.016,15.42,0.032
	c0.513,0.002,0.66-0.152,0.652-0.656C221.929,71.042,221.943,68.815,221.939,66.587z"/>
<path fill="#FFCA05" d="M221.939,66.587c0-0.187-0.028-0.373-0.051-0.617h-0.74c-4.006,0-8.011-0.013-12.017,0.014
	c-0.553,0.004-0.844-0.171-1.082-0.65c-2.09-4.235-4.205-8.459-6.297-12.693c-0.6-1.211-1.397-2.15-2.74-2.594
	c-1.907-0.63-4.428,0.662-4.915,2.587c-0.412,1.634-0.813,3.271-1.22,4.908c-0.889,3.56-1.774,7.121-2.672,10.679
	c-0.027,0.11-0.151,0.196-0.27,0.34c-0.135-0.532-0.248-0.963-0.348-1.396c-0.898-3.89-1.795-7.779-2.691-11.668
	c-0.768-3.328-1.533-6.656-2.305-9.983c-0.549-2.371-1.105-4.739-1.652-7.111c-0.406-1.768-0.813-3.535-1.201-5.308
	c-0.338-1.548-1.238-2.646-2.736-3.093c-1.373-0.41-2.69-0.163-3.84,0.804c-1.162,0.977-1.324,2.334-1.477,3.692
	c-0.314,2.806-0.592,5.615-0.902,8.422c-0.33,2.976-0.697,5.949-1.027,8.926c-0.299,2.721-0.555,5.447-0.858,8.167
	c-0.469,4.167-0.978,8.328-1.44,12.495c-0.435,3.912-0.83,7.828-1.252,11.741c-0.104,0.967-0.246,1.93-0.396,3.074
	c-0.158-0.317-0.259-0.473-0.313-0.643c-0.933-2.832-1.853-5.666-2.787-8.495c-1.013-3.053-2.056-6.094-3.051-9.15
	c-0.642-1.973-2.064-3.063-4.138-3.063c-5.033-0.003-10.065-0.002-15.101,0.001c-0.229,0-0.457,0.025-0.713,0.039v7.858
	c0.289,0.015,0.562,0.043,0.834,0.043c3.877,0.003,7.752,0.005,11.629-0.001c0.39,0,0.699,0.029,0.847,0.486
	c0.536,1.664,1.106,3.317,1.655,4.978c0.818,2.468,1.625,4.938,2.449,7.405c0.715,2.145,1.453,4.279,2.17,6.426
	c0.828,2.484,1.633,4.98,2.461,7.468c0.715,2.145,1.502,4.268,2.148,6.432c0.506,1.689,2.102,3.179,4.373,2.951
	c1.336-0.135,3.199-1.296,3.434-3.436c0.129-1.191,0.265-2.384,0.4-3.572c0.346-2.994,0.705-5.988,1.037-8.986
	c0.309-2.764,0.582-5.531,0.887-8.295c0.207-1.871,0.451-3.738,0.66-5.606c0.188-1.657,0.336-3.32,0.521-4.978
	c0.332-2.955,0.69-5.908,1.02-8.863c0.223-1.977,0.408-3.957,0.617-5.936c0.08-0.751,0.18-1.5,0.297-2.443
	c0.15,0.282,0.24,0.391,0.27,0.513c0.22,0.934,0.424,1.872,0.64,2.807c0.771,3.349,1.547,6.697,2.313,10.047
	c0.59,2.579,1.156,5.164,1.754,7.743c0.605,2.62,1.254,5.229,1.844,7.853c0.349,1.548,1.709,2.861,3.298,3.084
	c1.627,0.229,3.437-0.618,4.055-2.07c0.449-1.05,0.697-2.188,0.992-3.3c0.45-1.69,0.869-3.391,1.293-5.089
	c0.476-1.905,0.94-3.814,1.414-5.722c0.435-1.76,0.864-3.521,1.308-5.28c0.248-0.982,0.514-1.962,0.797-3.037
	c0.147,0.169,0.233,0.236,0.278,0.325c1.019,1.965,2.089,3.907,3.025,5.91c0.708,1.517,1.936,2.153,3.45,2.17
	c5.14,0.057,10.279,0.016,15.42,0.032c0.513,0.002,0.66-0.152,0.652-0.656C221.929,71.042,221.943,68.815,221.939,66.587"/>
<rect x="129.667" y="65.969" fill="#FFCA05" width="27.102" height="7.918"/>
<path fill="#FFCA05" d="M146.85,68.3c0,26.682-21.631,48.312-48.313,48.312c-26.681,0-48.311-21.63-48.311-48.312
	c0-26.681,21.63-48.311,48.311-48.311C125.219,19.99,146.85,41.619,146.85,68.3"/>
<path fill="#FFFFFF" d="M99.322,75.479L88.034,88.554c2.935,2.811,6.913,4.536,11.288,4.536c4.374,0,8.353-1.728,11.288-4.536
	L99.322,75.479z"/>
<path fill="#FFFFFF" d="M126.806,73.582l-11.146-6.362v-5.36l5.676-3.249c1.349-0.772,2.187-2.219,2.187-3.773v-7.191
	c0-0.998-0.81-1.807-1.806-1.807c-0.998,0-1.807,0.809-1.807,1.807v7.191c0,0.264-0.144,0.508-0.371,0.639l-3.881,2.223
	c-0.054-2.669-2.022-4.874-4.588-5.289c-0.646-4.521-3.849-8.225-8.091-9.603l4.387-4.623c0.687-0.724,0.657-1.867-0.067-2.554
	c-0.723-0.688-1.867-0.657-2.554,0.066l-5.423,5.716l-5.424-5.716c-0.687-0.724-1.83-0.754-2.554-0.066
	c-0.724,0.687-0.754,1.83-0.067,2.554l4.387,4.623c-4.241,1.378-7.444,5.082-8.09,9.602c-2.553,0.414-4.517,2.601-4.588,5.252
	l-3.814-2.185c-0.229-0.131-0.37-0.376-0.37-0.639v-7.191c0-0.998-0.81-1.807-1.807-1.807c-0.998,0-1.807,0.809-1.807,1.807v7.191
	c0,1.555,0.838,3.001,2.188,3.773l5.607,3.211v5.398l-11.145,6.362c-0.866,0.495-1.168,1.598-0.673,2.465
	c0.333,0.584,0.943,0.911,1.571,0.911c0.303,0,0.611-0.077,0.894-0.238l9.353-5.34v5.37c0,0.381,0.014,0.757,0.04,1.131
	l-5.703,3.266c-1.349,0.773-2.188,2.22-2.188,3.773V95c0,0.998,0.809,1.807,1.807,1.807s1.807-0.809,1.807-1.807V84.92
	c0-0.262,0.142-0.508,0.37-0.639l4.616-2.644c0.461,1.467,1.122,2.848,1.954,4.105l11.829-13.702V54.097v-1.759h3.613v1.759v17.946
	l11.829,13.702c0.828-1.252,1.488-2.625,1.949-4.084l4.577,2.622c0.228,0.131,0.37,0.377,0.37,0.639V95
	c0,0.998,0.809,1.807,1.807,1.807s1.807-0.809,1.807-1.807V84.92c0-1.554-0.838-3-2.188-3.773l-5.66-3.24
	c0.026-0.383,0.041-0.768,0.041-1.156v-5.37l9.354,5.34c0.282,0.161,0.591,0.237,0.896,0.237c0.627,0,1.236-0.327,1.569-0.911
	C127.974,75.18,127.672,74.077,126.806,73.582"/>
</svg>
