<svg width="58" height="58" viewBox="0 0 58 58" fill="none" xmlns="http://www.w3.org/2000/svg">
<path d="M29 58C25.0729 58 21.3158 57.2354 17.7285 55.7061C14.1413 54.1768 11.0544 52.1188 8.46777 49.5322C5.88119 46.9456 3.82324 43.8587 2.29395 40.2715C0.764648 36.6842 0 32.9271 0 29C0 25.0729 0.764648 21.3158 2.29395 17.7285C3.82324 14.1413 5.88119 11.0544 8.46777 8.46777C11.0544 5.88119 14.1413 3.82324 17.7285 2.29395C21.3158 0.764648 25.0729 0 29 0C32.9271 0 36.6842 0.764648 40.2715 2.29395C43.8587 3.82324 46.9456 5.88119 49.5322 8.46777C52.1188 11.0544 54.1768 14.1413 55.7061 17.7285C57.2354 21.3158 58 25.0729 58 29C58 32.9271 57.2354 36.6842 55.7061 40.2715C54.1768 43.8587 52.1188 46.9456 49.5322 49.5322C46.9456 52.1188 43.8587 54.1768 40.2715 55.7061C36.6842 57.2354 32.9271 58 29 58ZM29 7.25C25.0729 7.25 21.4385 8.22233 18.0967 10.167C14.7549 12.1117 12.1117 14.7549 10.167 18.0967C8.22233 21.4385 7.25 25.0729 7.25 29C7.25 32.9271 8.22233 36.5615 10.167 39.9033C12.1117 43.2451 14.7549 45.8883 18.0967 47.833C21.4385 49.7777 25.0729 50.75 29 50.75C32.9271 50.75 36.5615 49.7777 39.9033 47.833C43.2451 45.8883 45.8883 43.2451 47.833 39.9033C49.7777 36.5615 50.75 32.9271 50.75 29C50.75 25.0729 49.7777 21.4385 47.833 18.0967C45.8883 14.7549 43.2451 12.1117 39.9033 10.167C36.5615 8.22233 32.9271 7.25 29 7.25ZM30.8125 47.125H27.1875C26.6966 47.125 26.2718 46.9456 25.9131 46.5869C25.5544 46.2282 25.375 45.8034 25.375 45.3125V41.6875C25.375 41.1966 25.5544 40.7718 25.9131 40.4131C26.2718 40.0544 26.6966 39.875 27.1875 39.875H30.8125C31.3034 39.875 31.7282 40.0544 32.0869 40.4131C32.4456 40.7718 32.625 41.1966 32.625 41.6875V45.3125C32.625 45.8034 32.4456 46.2282 32.0869 46.5869C31.7282 46.9456 31.3034 47.125 30.8125 47.125ZM30.8125 36.25H27.1875C26.6966 36.25 26.2718 36.0706 25.9131 35.7119C25.5544 35.3532 25.375 34.9284 25.375 34.4375V12.6875C25.375 12.1966 25.5544 11.7718 25.9131 11.4131C26.2718 11.0544 26.6966 10.875 27.1875 10.875H30.8125C31.3034 10.875 31.7282 11.0544 32.0869 11.4131C32.4456 11.7718 32.625 12.1966 32.625 12.6875V34.4375C32.625 34.9284 32.4456 35.3532 32.0869 35.7119C31.7282 36.0706 31.3034 36.25 30.8125 36.25Z" fill="url(#paint0_linear)"/>
<defs>
<linearGradient id="paint0_linear" x1="29" y1="0" x2="29" y2="58" gradientUnits="userSpaceOnUse">
<stop stop-color="#00B3C6"/>
<stop offset="1" stop-color="#1E48A1"/>
</linearGradient>
</defs>
</svg>
