<?xml version="1.0" encoding="utf-8"?>
<!-- Generator: Adobe Illustrator 16.0.0, SVG Export Plug-In . SVG Version: 6.00 Build 0)  -->
<!DOCTYPE svg PUBLIC "-//W3C//DTD SVG 1.1//EN" "http://www.w3.org/Graphics/SVG/1.1/DTD/svg11.dtd">
<svg version="1.1" id="Layer_1" xmlns="http://www.w3.org/2000/svg" xmlns:xlink="http://www.w3.org/1999/xlink" x="0px" y="0px"
	 width="410.095px" height="199.879px" viewBox="0 0 410.095 199.879" enable-background="new 0 0 410.095 199.879"
	 xml:space="preserve">
<path fill="#0087CC" d="M107.464,35.176c0,0-22.171-22.937-32.493-29.435c-8.72-5.49-13.242-5.693-16.294-5.624
	c-3.052-0.069-7.576,0.134-16.296,5.624C32.06,12.24,9.888,35.176,9.888,35.176s25.994-18.73,34.022-24.465
	c6.056-4.326,12.142-4.953,14.766-5.001c2.624,0.048,8.71,0.675,14.766,5.001C81.469,16.445,107.464,35.176,107.464,35.176"/>
<path fill="#003472" stroke="#005DAB" stroke-width="0.216" stroke-miterlimit="2.613" d="M107.464,35.176
	c0,0-22.171-22.937-32.493-29.435c-8.72-5.49-13.242-5.693-16.294-5.624c-3.052-0.069-7.576,0.134-16.296,5.624
	C32.06,12.24,9.888,35.176,9.888,35.176s25.994-18.73,34.022-24.465c6.056-4.326,12.142-4.953,14.766-5.001
	c2.624,0.048,8.71,0.675,14.766,5.001C81.469,16.445,107.464,35.176,107.464,35.176z"/>
<path fill="#003472" d="M93.12,49.811c0,0-15.653-16.192-22.939-20.781c-6.157-3.876-9.35-4.02-11.504-3.97
	c-2.155-0.05-5.349,0.094-11.505,3.97c-7.287,4.589-22.94,20.781-22.94,20.781S42.583,36.587,48.25,32.539
	c4.276-3.055,8.573-3.497,10.425-3.53c1.853,0.033,6.149,0.477,10.424,3.53C74.768,36.587,93.12,49.811,93.12,49.811"/>
<path fill="none" stroke="#005DAB" stroke-width="0.216" stroke-miterlimit="2.613" d="M93.12,49.811
	c0,0-15.653-16.192-22.939-20.781c-6.157-3.876-9.35-4.02-11.504-3.97c-2.155-0.05-5.349,0.094-11.505,3.97
	c-7.287,4.589-22.94,20.781-22.94,20.781S42.583,36.587,48.25,32.539c4.276-3.055,8.573-3.497,10.425-3.53
	c1.853,0.033,6.149,0.477,10.424,3.53C74.768,36.587,93.12,49.811,93.12,49.811z"/>
<path fill="#003472" d="M95.304,52.013c0,0,7.041,5.632,2.464,22.882c-4.576,17.25-11.617,32.035-20.418,46.117
	c-8.463,13.541-12.982,16.662-18.674,16.883c-5.693-0.221-10.212-3.342-18.675-16.883C31.2,106.93,24.159,92.145,19.583,74.895
	c-4.577-17.25,2.464-22.882,2.464-22.882L5.853,40.396c0,0-6.688,4.93-5.632,21.475c1.056,16.545,9.153,37.667,21.122,60.197
	c11.969,22.53,22.882,34.853,28.163,39.075c2.473,1.979,5.208,2.74,7.417,2.99c0.417,0.054,1.048,0.109,1.827,0.108h0.027
	c1.503,0.003,2.478-0.195,2.478-0.195v-0.012c2.011-0.329,4.381-1.125,6.59-2.894c5.281-4.225,16.194-16.545,28.163-39.075
	c11.969-22.53,20.066-43.651,21.122-60.197c1.056-16.545-5.633-21.475-5.633-21.475L95.304,52.013z"/>
<path fill="none" stroke="#005DAB" stroke-width="0.216" stroke-miterlimit="2.613" d="M95.304,52.013c0,0,7.041,5.632,2.464,22.882
	c-4.576,17.25-11.617,32.035-20.418,46.117c-8.463,13.541-12.982,16.662-18.674,16.883c-5.693-0.221-10.212-3.342-18.675-16.883
	C31.2,106.93,24.159,92.145,19.583,74.895c-4.577-17.25,2.464-22.882,2.464-22.882L5.853,40.396c0,0-6.688,4.93-5.632,21.475
	c1.056,16.545,9.153,37.667,21.122,60.197c11.969,22.53,22.882,34.853,28.163,39.075c2.473,1.979,5.208,2.74,7.417,2.99
	c0.417,0.054,1.048,0.109,1.827,0.108h0.027c1.503,0.003,2.478-0.195,2.478-0.195v-0.012c2.011-0.329,4.381-1.125,6.59-2.894
	c5.281-4.225,16.194-16.545,28.163-39.075c11.969-22.53,20.066-43.651,21.122-60.197c1.056-16.545-5.633-21.475-5.633-21.475
	L95.304,52.013z"/>
<path fill="#FFFFFF" d="M10.078,57.998c1.745,0,3.168-1.423,3.168-3.168s-1.423-3.169-3.168-3.169S6.91,53.084,6.91,54.83
	S8.333,57.998,10.078,57.998"/>
<path fill="#FFFFFF" d="M11.621,79.812c1.745,0,3.168-1.423,3.168-3.168s-1.423-3.168-3.168-3.168s-3.168,1.423-3.168,3.168
	S9.876,79.812,11.621,79.812"/>
<path fill="#FFFFFF" d="M18.815,100.466c1.745,0,3.168-1.423,3.168-3.168c0-1.744-1.423-3.168-3.168-3.168s-3.168,1.424-3.168,3.168
	C15.647,99.043,17.07,100.466,18.815,100.466"/>
<path fill="#FFFFFF" d="M29.408,122.068c1.745,0,3.168-1.424,3.168-3.168c0-1.746-1.423-3.168-3.168-3.168
	c-1.745,0-3.168,1.422-3.168,3.168C26.24,120.644,27.663,122.068,29.408,122.068"/>
<path fill="#FFFFFF" d="M41.729,141.75c1.745,0,3.168-1.423,3.168-3.168s-1.423-3.168-3.168-3.168s-3.168,1.423-3.168,3.168
	S39.984,141.75,41.729,141.75"/>
<path fill="#FFFFFF" d="M58.676,156.918c1.745,0,3.168-1.423,3.168-3.168s-1.423-3.168-3.168-3.168
	c-1.745,0-3.168,1.423-3.168,3.168S56.931,156.918,58.676,156.918"/>
<path fill="#003472" d="M20.639,42.156c1.745,0,3.168-1.424,3.168-3.169c0-1.744-1.423-3.168-3.168-3.168
	c-1.745,0-3.168,1.424-3.168,3.168C17.471,40.733,18.894,42.156,20.639,42.156"/>
<path fill="none" stroke="#005DAB" stroke-width="0.216" stroke-miterlimit="2.613" d="M20.639,42.156
	c1.745,0,3.168-1.424,3.168-3.169c0-1.744-1.423-3.168-3.168-3.168c-1.745,0-3.168,1.424-3.168,3.168
	C17.471,40.733,18.894,42.156,20.639,42.156z"/>
<path fill="#003472" d="M38.241,27.723c1.745,0,3.168-1.424,3.168-3.168c0-1.745-1.423-3.168-3.168-3.168
	c-1.745,0-3.168,1.423-3.168,3.168C35.073,26.3,36.496,27.723,38.241,27.723"/>
<path fill="none" stroke="#005DAB" stroke-width="0.216" stroke-miterlimit="2.613" d="M38.241,27.723
	c1.745,0,3.168-1.424,3.168-3.168c0-1.745-1.423-3.168-3.168-3.168c-1.745,0-3.168,1.423-3.168,3.168
	C35.073,26.3,36.496,27.723,38.241,27.723z"/>
<path fill="#003472" d="M97.031,42.156c1.745,0,3.168-1.424,3.168-3.169c0-1.744-1.423-3.168-3.168-3.168
	c-1.745,0-3.168,1.424-3.168,3.168C93.863,40.733,95.286,42.156,97.031,42.156"/>
<path fill="none" stroke="#005DAB" stroke-width="0.216" stroke-miterlimit="2.613" d="M97.031,42.156
	c1.745,0,3.168-1.424,3.168-3.169c0-1.744-1.423-3.168-3.168-3.168c-1.745,0-3.168,1.424-3.168,3.168
	C93.863,40.733,95.286,42.156,97.031,42.156z"/>
<path fill="#003472" d="M79.429,27.723c1.745,0,3.168-1.424,3.168-3.168c0-1.745-1.423-3.168-3.168-3.168
	c-1.745,0-3.168,1.423-3.168,3.168C76.261,26.3,77.684,27.723,79.429,27.723"/>
<path fill="none" stroke="#005DAB" stroke-width="0.216" stroke-miterlimit="2.613" d="M79.429,27.723
	c1.745,0,3.168-1.424,3.168-3.168c0-1.745-1.423-3.168-3.168-3.168c-1.745,0-3.168,1.423-3.168,3.168
	C76.261,26.3,77.684,27.723,79.429,27.723z"/>
<path fill="#0087CC" d="M58.676,18.57c1.745,0,3.168-1.423,3.168-3.168s-1.423-3.169-3.168-3.169c-1.745,0-3.168,1.424-3.168,3.169
	S56.931,18.57,58.676,18.57"/>
<path fill="#003472" stroke="#005DAB" stroke-width="0.216" stroke-miterlimit="2.613" d="M58.676,18.57
	c1.745,0,3.168-1.423,3.168-3.168s-1.423-3.169-3.168-3.169c-1.745,0-3.168,1.424-3.168,3.169S56.931,18.57,58.676,18.57z"/>
<polygon fill="#FFCA05" points="58.676,43.594 66.734,64.905 89.422,65.932 71.676,80.08 77.678,102.076 58.676,89.412 
	39.674,102.076 45.676,79.966 27.93,65.932 50.618,64.905 "/>
<path fill="#FFFFFF" d="M107.292,57.998c1.745,0,3.168-1.423,3.168-3.168s-1.423-3.169-3.168-3.169s-3.168,1.424-3.168,3.169
	S105.546,57.998,107.292,57.998"/>
<path fill="#FFFFFF" d="M105.749,79.812c1.745,0,3.168-1.423,3.168-3.168s-1.423-3.168-3.168-3.168s-3.168,1.423-3.168,3.168
	S104.003,79.812,105.749,79.812"/>
<path fill="#FFFFFF" d="M98.554,100.466c1.745,0,3.168-1.423,3.168-3.168c0-1.744-1.423-3.168-3.168-3.168
	c-1.745,0-3.168,1.424-3.168,3.168C95.386,99.043,96.809,100.466,98.554,100.466"/>
<path fill="#FFFFFF" d="M87.961,122.068c1.745,0,3.168-1.424,3.168-3.168c0-1.746-1.423-3.168-3.168-3.168s-3.168,1.422-3.168,3.168
	C84.793,120.644,86.216,122.068,87.961,122.068"/>
<path fill="#FFFFFF" d="M75.64,141.75c1.745,0,3.168-1.423,3.168-3.168s-1.423-3.168-3.168-3.168c-1.745,0-3.168,1.423-3.168,3.168
	S73.895,141.75,75.64,141.75"/>
<rect x="218.978" y="87.333" fill="#003472" width="91.279" height="15.213"/>
<rect x="218.978" y="117.759" fill="#003472" width="91.279" height="15.213"/>
<rect x="218.978" y="148.185" fill="#003472" width="91.279" height="15.213"/>
<polygon fill="#003472" points="318.816,87.332 410.095,87.332 410.095,102.545 334.029,102.545 334.029,148.185 410.095,148.185 
	410.095,163.398 318.816,163.398 318.816,158.644 318.816,148.185 318.816,102.545 318.816,92.086 "/>
<polygon fill="#003472" points="117.24,148.185 193.306,148.185 193.306,132.971 117.24,132.971 117.24,129.168 117.24,117.759 
	117.24,102.545 117.24,87.332 208.519,87.332 208.519,102.545 132.453,102.545 132.453,117.759 208.519,117.759 208.519,123.462 
	208.519,132.971 208.519,148.185 208.519,157.693 208.519,163.398 117.24,163.398 "/>
<path fill="#003472" d="M331.024,171.795c0.526,0,0.737,0.282,0.632,0.773l-5.933,26.679c-0.105,0.422-0.351,0.633-0.771,0.633
	h-3.511c-0.422,0-0.667-0.211-0.773-0.633l-5.896-26.679c-0.105-0.491,0.104-0.773,0.632-0.773h3.334
	c0.422,0,0.667,0.211,0.773,0.633l3.686,18.816l3.721-18.816c0.105-0.422,0.352-0.633,0.772-0.633H331.024z"/>
<path fill="#003472" d="M345.593,199.88c-0.315,0-0.491-0.176-0.563-0.491l-0.982-5.126h-6.249l-0.947,5.126
	c-0.07,0.315-0.246,0.491-0.562,0.491h-3.757c-0.387,0-0.562-0.211-0.456-0.597l5.827-26.996c0.071-0.352,0.281-0.492,0.597-0.492
	h4.88c0.316,0,0.526,0.141,0.597,0.492l5.828,26.996c0.07,0.386-0.07,0.597-0.491,0.597H345.593z M340.924,177.939l-2.247,12.251
	h4.493L340.924,177.939z"/>
<path fill="#003472" d="M354.017,172.357c0-0.352,0.176-0.563,0.563-0.563h8.424c3.301,0,5.056,1.791,5.056,5.091v17.938
	c0,3.3-1.755,5.056-5.056,5.056h-8.424c-0.387,0-0.563-0.176-0.563-0.563V172.357z M362.021,195.245
	c0.913,0,1.404-0.455,1.404-1.403v-15.973c0-0.948-0.491-1.439-1.404-1.439h-3.229v18.815H362.021L362.021,195.245z"/>
<path fill="#003472" d="M385.471,199.88c-0.315,0-0.492-0.176-0.563-0.491l-0.982-5.126h-6.249l-0.947,5.126
	c-0.07,0.315-0.246,0.491-0.562,0.491h-3.756c-0.388,0-0.563-0.211-0.457-0.597l5.827-26.996c0.07-0.352,0.281-0.492,0.597-0.492
	h4.881c0.315,0,0.525,0.141,0.596,0.492l5.828,26.996c0.07,0.386-0.07,0.597-0.492,0.597H385.471z M380.802,177.939l-2.247,12.251
	h4.493L380.802,177.939z"/>
<path fill="#003472" d="M409.026,185.417c0,2.352-0.878,3.896-2.563,4.634l2.423,9.196c0.104,0.422-0.105,0.633-0.493,0.633h-3.65
	c-0.351,0-0.526-0.176-0.597-0.492l-2.352-8.916h-2.424v8.846c0,0.352-0.21,0.563-0.562,0.563h-3.65
	c-0.352,0-0.563-0.211-0.563-0.563v-26.96c0-0.352,0.211-0.563,0.563-0.563h8.812c3.3,0,5.055,1.756,5.055,5.056L409.026,185.417
	L409.026,185.417z M402.847,185.837c0.913,0,1.404-0.49,1.404-1.403v-6.6c0-0.913-0.491-1.403-1.404-1.403h-3.476v9.407
	L402.847,185.837L402.847,185.837z"/>
</svg>
