<?xml version="1.0" encoding="utf-8"?>
<!-- Generator: Adobe Illustrator 16.0.0, SVG Export Plug-In . SVG Version: 6.00 Build 0)  -->
<!DOCTYPE svg PUBLIC "-//W3C//DTD SVG 1.1//EN" "http://www.w3.org/Graphics/SVG/1.1/DTD/svg11.dtd">
<svg version="1.1" id="Layer_1" xmlns="http://www.w3.org/2000/svg" xmlns:xlink="http://www.w3.org/1999/xlink" x="0px" y="0px"
	 width="535.549px" height="166.654px" viewBox="0 0 535.549 166.654" enable-background="new 0 0 535.549 166.654"
	 xml:space="preserve">
<path fill="#FFFFFF" d="M252.642,11.59c1.888,0,2.643,1.006,2.265,2.768l-21.263,95.621c-0.377,1.512-1.258,2.266-2.768,2.266
	h-12.582c-1.509,0-2.39-0.754-2.768-2.266l-21.137-95.621c-0.377-1.762,0.378-2.768,2.265-2.768h11.952
	c1.51,0,2.39,0.754,2.768,2.265l13.211,67.439l13.337-67.439c0.377-1.511,1.258-2.265,2.768-2.265H252.642z"/>
<path fill="#FFFFFF" d="M304.858,112.245c-1.133,0-1.762-0.63-2.015-1.762l-3.522-18.369h-22.396l-3.396,18.369
	c-0.252,1.132-0.881,1.762-2.012,1.762h-13.464c-1.384,0-2.013-0.755-1.636-2.139l20.886-96.755c0.253-1.258,1.007-1.762,2.14-1.762
	h17.488c1.133,0,1.887,0.504,2.139,1.762l20.888,96.755c0.251,1.384-0.252,2.139-1.762,2.139H304.858z M288.124,33.608
	l-8.053,43.909h16.104L288.124,33.608z"/>
<path fill="#FFFFFF" d="M335.051,13.603c0-1.259,0.629-2.013,2.015-2.013h30.194c11.828,0,18.119,6.416,18.119,18.243v64.293
	c0,11.826-6.291,18.118-18.119,18.118h-30.194c-1.386,0-2.015-0.63-2.015-2.014V13.603z M363.738,95.635
	c3.271,0,5.033-1.634,5.033-5.031V33.356c0-3.396-1.764-5.157-5.033-5.157h-11.575v67.437H363.738z"/>
<path fill="#FFFFFF" d="M447.782,112.245c-1.131,0-1.763-0.63-2.015-1.762l-3.521-18.369H419.85l-3.396,18.369
	c-0.252,1.132-0.881,1.762-2.014,1.762h-13.462c-1.386,0-2.014-0.755-1.637-2.139l20.885-96.755c0.253-1.258,1.009-1.762,2.14-1.762
	h17.49c1.131,0,1.887,0.504,2.139,1.762l20.886,96.755c0.251,1.384-0.252,2.139-1.763,2.139H447.782z M431.048,33.608l-8.052,43.909
	H439.1L431.048,33.608z"/>
<path fill="#FFFFFF" d="M532.204,60.408c0,8.429-3.146,13.965-9.185,16.606l8.683,32.964c0.377,1.512-0.378,2.266-1.765,2.266
	h-13.084c-1.258,0-1.887-0.629-2.14-1.762l-8.429-31.957h-8.683v31.705c0,1.26-0.754,2.014-2.014,2.014h-13.085
	c-1.258,0-2.014-0.754-2.014-2.014V13.603c0-1.259,0.756-2.013,2.014-2.013h31.58c11.827,0,18.118,6.291,18.118,18.118v30.7H532.204
	z M510.059,61.917c3.271,0,5.033-1.761,5.033-5.033V33.23c0-3.271-1.762-5.03-5.033-5.03h-12.455v33.718H510.059z"/>
<path fill="#FFCA05" d="M387.493,125.183h2.797v10.246c0.655-0.882,1.475-1.612,2.459-2.193c0.982-0.579,1.928-0.867,2.834-0.867
	c1.287,0,2.414,0.258,3.385,0.773c0.971,0.519,1.777,1.216,2.42,2.1c0.644,0.881,1.128,1.915,1.456,3.1
	c0.325,1.184,0.491,2.458,0.491,3.819c0,1.36-0.166,2.634-0.491,3.816c-0.328,1.187-0.826,2.219-1.494,3.103
	c-0.668,0.881-1.486,1.574-2.458,2.079c-0.971,0.504-2.098,0.756-3.385,0.756c-0.98,0-1.939-0.272-2.872-0.813
	c-0.933-0.542-1.714-1.354-2.345-2.438v2.835h-2.797V125.183L387.493,125.183z M390.29,142.16c0,1.008,0.113,1.954,0.34,2.835
	c0.229,0.883,0.555,1.657,0.983,2.325c0.428,0.669,0.966,1.19,1.606,1.568c0.643,0.377,1.366,0.567,2.174,0.567
	c0.832,0,1.569-0.19,2.213-0.567c0.643-0.378,1.184-0.899,1.625-1.568c0.44-0.668,0.774-1.442,1.002-2.325
	c0.227-0.881,0.342-1.827,0.342-2.835c0-1.009-0.115-1.96-0.342-2.856c-0.228-0.894-0.562-1.668-1.002-2.325
	c-0.441-0.653-0.982-1.178-1.625-1.567c-0.644-0.393-1.381-0.586-2.213-0.586c-0.808,0-1.519,0.183-2.136,0.547
	c-0.618,0.367-1.147,0.871-1.59,1.513c-0.438,0.644-0.773,1.387-1,2.231c-0.228,0.844-0.354,1.758-0.379,2.739L390.29,142.16
	L390.29,142.16z"/>
<path fill="#FFCA05" d="M415.206,148.019l5.292-15.312h2.912l-8.091,22.95c-0.252,0.73-0.55,1.354-0.89,1.871
	c-0.341,0.516-0.705,0.938-1.097,1.267c-0.392,0.327-0.781,0.561-1.172,0.699c-0.393,0.138-0.775,0.209-1.153,0.209
	c-0.354,0-0.692-0.026-1.02-0.076c-0.329-0.051-0.67-0.141-1.021-0.266v-2.421c0.201,0.078,0.453,0.158,0.756,0.247
	c0.304,0.087,0.604,0.132,0.907,0.132c0.327,0,0.624-0.101,0.888-0.301c0.267-0.203,0.492-0.455,0.683-0.757
	c0.188-0.303,0.353-0.618,0.49-0.945c0.14-0.328,0.245-0.617,0.321-0.87l0.869-2.723l-7.031-19.017h3.023L415.206,148.019z"/>
<polygon fill="#FFCA05" points="448.893,147.868 456.378,125.334 459.44,125.334 450.708,151.497 447.229,151.497 438.344,125.334 
	441.406,125.334 "/>
<path fill="#FFCA05" d="M466.663,143.332c0.074,0.933,0.289,1.794,0.643,2.589c0.353,0.795,0.831,1.475,1.438,2.042
	c0.604,0.567,1.314,1.008,2.135,1.323c0.818,0.315,1.722,0.474,2.703,0.474c0.855,0,1.688-0.095,2.496-0.284
	c0.807-0.189,1.512-0.492,2.117-0.908c0.604-0.415,1.09-0.958,1.455-1.626c0.364-0.668,0.549-1.479,0.549-2.438
	c0-0.782-0.195-1.443-0.587-1.986c-0.392-0.541-0.907-1.007-1.55-1.397c-0.644-0.392-1.374-0.731-2.191-1.021
	c-0.82-0.289-1.646-0.56-2.479-0.812c-1.06-0.305-2.111-0.649-3.156-1.041c-1.047-0.391-1.99-0.881-2.836-1.476
	c-0.846-0.591-1.531-1.322-2.062-2.192c-0.529-0.869-0.795-1.958-0.795-3.271c0-1.084,0.216-2.042,0.644-2.873
	c0.43-0.832,1.026-1.532,1.798-2.099c0.769-0.566,1.683-0.995,2.74-1.286c1.06-0.289,2.23-0.433,3.517-0.433
	c1.688,0,3.101,0.244,4.233,0.735c1.135,0.492,2.042,1.116,2.724,1.873c0.68,0.755,1.178,1.594,1.492,2.515
	c0.313,0.919,0.498,1.809,0.549,2.663h-2.873c-0.076-0.854-0.283-1.617-0.623-2.286c-0.341-0.666-0.789-1.229-1.343-1.683
	c-0.556-0.454-1.188-0.794-1.891-1.021c-0.707-0.228-1.463-0.341-2.27-0.341c-0.731,0-1.449,0.076-2.156,0.228
	c-0.705,0.151-1.336,0.397-1.89,0.737c-0.555,0.34-1.002,0.774-1.343,1.305c-0.34,0.528-0.51,1.185-0.51,1.965
	c0,0.808,0.194,1.488,0.586,2.042c0.391,0.555,0.907,1.034,1.549,1.438c0.645,0.401,1.382,0.749,2.213,1.04
	c0.832,0.289,1.688,0.572,2.571,0.851c1.059,0.327,2.109,0.68,3.156,1.058c1.045,0.38,1.979,0.857,2.798,1.437
	c0.819,0.58,1.487,1.293,2.004,2.137c0.518,0.844,0.774,1.909,0.774,3.195s-0.233,2.406-0.699,3.365
	c-0.467,0.958-1.122,1.764-1.967,2.419c-0.844,0.655-1.838,1.147-2.985,1.475c-1.146,0.327-2.4,0.491-3.763,0.491
	c-1.234,0-2.434-0.207-3.592-0.624c-1.158-0.416-2.193-1.007-3.101-1.777c-0.907-0.768-1.645-1.707-2.212-2.815
	c-0.566-1.109-0.864-2.345-0.89-3.705H466.663L466.663,143.332z"/>
<polygon fill="#FFCA05" points="506.286,125.334 506.286,127.867 491.617,127.867 491.617,136.714 505.416,136.714 505.416,139.248 
	491.617,139.248 491.617,148.964 506.928,148.964 506.928,151.498 488.818,151.498 488.818,125.334 "/>
<path fill="#FFCA05" d="M515.584,138.076c0,1.991,0.26,3.724,0.775,5.197c0.518,1.476,1.197,2.692,2.042,3.649
	c0.845,0.958,1.797,1.677,2.854,2.156c1.061,0.478,2.143,0.717,3.252,0.717c1.135,0,2.168-0.207,3.102-0.622
	c0.933-0.418,1.738-0.965,2.419-1.646c0.682-0.681,1.24-1.455,1.684-2.324c0.44-0.87,0.748-1.76,0.926-2.666h2.837
	c-0.253,1.36-0.677,2.628-1.267,3.8c-0.593,1.172-1.356,2.199-2.289,3.082c-0.932,0.882-2.018,1.575-3.252,2.079
	c-1.233,0.504-2.621,0.756-4.158,0.756c-1.789,0-3.401-0.321-4.84-0.965c-1.438-0.643-2.664-1.574-3.686-2.796
	c-1.021-1.225-1.81-2.71-2.363-4.463c-0.555-1.752-0.833-3.748-0.833-5.993c0-1.712,0.265-3.382,0.796-5.009
	c0.528-1.626,1.291-3.063,2.286-4.31c0.996-1.248,2.218-2.25,3.669-3.006c1.447-0.758,3.094-1.135,4.934-1.135
	c1.563,0,2.955,0.209,4.179,0.624c1.222,0.416,2.286,0.989,3.194,1.72c0.906,0.731,1.662,1.6,2.269,2.609
	c0.604,1.008,1.084,2.116,1.438,3.327h-2.95c-0.682-1.967-1.682-3.428-3.008-4.386c-1.32-0.959-3.029-1.437-5.121-1.437
	c-1.313,0-2.508,0.297-3.592,0.888c-1.086,0.592-2.018,1.4-2.797,2.421c-0.783,1.021-1.395,2.199-1.836,3.535
	C515.807,135.215,515.584,136.615,515.584,138.076"/>
<path fill="#FFFFFF" d="M98.842,0C60.575,0,29.444,30.838,29.444,68.744c0,17.553,6.684,33.583,17.652,45.743l-0.976,0.968h-6.361
	L0,154.839l11.927,11.815l39.76-39.385v-6.301l0.976-0.967c12.277,10.865,28.459,17.485,46.179,17.485
	c38.267,0,69.398-30.838,69.398-68.743C168.24,30.838,137.109,0,98.842,0 M98.842,123.869c-30.686,0-55.649-24.729-55.649-55.125
	c0-30.396,24.963-55.125,55.649-55.125c30.686,0,55.649,24.729,55.649,55.125C154.491,99.14,129.528,123.869,98.842,123.869"/>
<path fill="#D1212E" d="M221.94,66.587c0-0.187-0.03-0.373-0.051-0.617h-0.741c-4.005,0-8.01-0.013-12.015,0.014
	c-0.554,0.004-0.845-0.171-1.082-0.65c-2.091-4.235-4.206-8.459-6.298-12.693c-0.599-1.211-1.398-2.15-2.74-2.594
	c-1.908-0.63-4.428,0.662-4.915,2.587c-0.413,1.634-0.813,3.271-1.22,4.908c-0.887,3.56-1.775,7.121-2.671,10.679
	c-0.028,0.11-0.152,0.196-0.27,0.34c-0.133-0.532-0.247-0.963-0.347-1.396c-0.898-3.89-1.794-7.779-2.691-11.668
	c-0.767-3.328-1.534-6.656-2.304-9.983c-0.549-2.371-1.106-4.739-1.653-7.111c-0.407-1.768-0.814-3.535-1.201-5.308
	c-0.339-1.548-1.239-2.646-2.737-3.093c-1.373-0.41-2.692-0.163-3.84,0.804c-1.162,0.977-1.325,2.334-1.477,3.692
	c-0.315,2.806-0.591,5.615-0.902,8.422c-0.331,2.976-0.698,5.949-1.027,8.926c-0.3,2.721-0.555,5.447-0.86,8.167
	c-0.468,4.167-0.977,8.328-1.44,12.495c-0.435,3.912-0.83,7.828-1.252,11.741c-0.104,0.967-0.247,1.93-0.396,3.076
	c-0.157-0.319-0.257-0.475-0.313-0.645c-0.932-2.831-1.852-5.665-2.788-8.494c-1.011-3.053-2.054-6.094-3.05-9.15
	c-0.642-1.973-2.065-3.063-4.138-3.063c-5.033-0.003-10.066-0.002-15.099,0.001c-0.228,0-0.457,0.025-0.713,0.039v7.858
	c0.288,0.015,0.561,0.043,0.833,0.043c3.877,0.003,7.753,0.005,11.63-0.001c0.389,0,0.699,0.029,0.846,0.486
	c0.536,1.664,1.106,3.317,1.656,4.978c0.818,2.468,1.625,4.939,2.449,7.405c0.715,2.145,1.454,4.28,2.169,6.426
	c0.828,2.485,1.634,4.98,2.462,7.468c0.714,2.145,1.502,4.267,2.149,6.432c0.505,1.689,2.1,3.179,4.372,2.95
	c1.337-0.134,3.199-1.295,3.433-3.435c0.13-1.191,0.265-2.383,0.402-3.572c0.345-2.995,0.704-5.989,1.037-8.986
	c0.308-2.764,0.582-5.532,0.887-8.296c0.207-1.87,0.45-3.737,0.66-5.606c0.186-1.657,0.335-3.32,0.522-4.978
	c0.332-2.955,0.69-5.908,1.019-8.863c0.221-1.977,0.407-3.957,0.616-5.936c0.08-0.751,0.181-1.5,0.297-2.443
	c0.151,0.282,0.241,0.391,0.27,0.513c0.219,0.934,0.423,1.872,0.638,2.807c0.77,3.349,1.548,6.697,2.314,10.047
	c0.591,2.579,1.158,5.164,1.755,7.743c0.606,2.62,1.253,5.229,1.844,7.853c0.348,1.547,1.708,2.861,3.297,3.084
	c1.627,0.229,3.436-0.619,4.055-2.071c0.448-1.05,0.697-2.188,0.992-3.299c0.45-1.691,0.868-3.392,1.292-5.09
	c0.475-1.905,0.942-3.814,1.414-5.722c0.435-1.76,0.866-3.521,1.308-5.28c0.248-0.982,0.514-1.962,0.797-3.037
	c0.147,0.168,0.233,0.236,0.279,0.325c1.017,1.965,2.087,3.907,3.025,5.91c0.708,1.516,1.935,2.153,3.45,2.17
	c5.14,0.057,10.28,0.016,15.42,0.032c0.512,0.002,0.66-0.152,0.654-0.656C221.929,71.042,221.943,68.815,221.94,66.587"/>
<path fill="none" stroke="#FFFFFF" stroke-width="5.669" stroke-miterlimit="10" d="M221.94,66.587c0-0.187-0.03-0.373-0.051-0.617
	h-0.741c-4.005,0-8.01-0.013-12.015,0.014c-0.554,0.004-0.845-0.171-1.082-0.65c-2.091-4.235-4.206-8.459-6.298-12.693
	c-0.599-1.211-1.398-2.15-2.74-2.594c-1.908-0.63-4.428,0.662-4.915,2.587c-0.413,1.634-0.813,3.271-1.22,4.908
	c-0.887,3.56-1.775,7.121-2.671,10.679c-0.028,0.11-0.152,0.196-0.27,0.34c-0.133-0.532-0.247-0.963-0.347-1.396
	c-0.898-3.89-1.794-7.779-2.691-11.668c-0.767-3.328-1.534-6.656-2.304-9.983c-0.549-2.371-1.106-4.739-1.653-7.111
	c-0.407-1.768-0.814-3.535-1.201-5.308c-0.339-1.548-1.239-2.646-2.737-3.093c-1.373-0.41-2.692-0.163-3.84,0.804
	c-1.162,0.977-1.325,2.334-1.477,3.692c-0.315,2.806-0.591,5.615-0.902,8.422c-0.331,2.976-0.698,5.949-1.027,8.926
	c-0.3,2.721-0.555,5.447-0.86,8.167c-0.468,4.167-0.977,8.328-1.44,12.495c-0.435,3.912-0.83,7.828-1.252,11.741
	c-0.104,0.967-0.247,1.93-0.396,3.076c-0.157-0.319-0.257-0.475-0.313-0.645c-0.932-2.831-1.852-5.665-2.788-8.494
	c-1.011-3.053-2.054-6.094-3.05-9.15c-0.642-1.973-2.065-3.063-4.138-3.063c-5.033-0.003-10.066-0.002-15.099,0.001
	c-0.228,0-0.457,0.025-0.713,0.039v7.858c0.288,0.015,0.561,0.043,0.833,0.043c3.877,0.003,7.753,0.005,11.63-0.001
	c0.389,0,0.699,0.029,0.846,0.486c0.536,1.664,1.106,3.317,1.656,4.978c0.818,2.468,1.625,4.939,2.449,7.405
	c0.715,2.145,1.454,4.28,2.169,6.426c0.828,2.485,1.634,4.98,2.462,7.468c0.714,2.145,1.502,4.267,2.149,6.432
	c0.505,1.689,2.1,3.179,4.372,2.95c1.337-0.134,3.199-1.295,3.433-3.435c0.13-1.191,0.265-2.383,0.402-3.572
	c0.345-2.995,0.704-5.989,1.037-8.986c0.308-2.764,0.582-5.532,0.887-8.296c0.207-1.87,0.45-3.737,0.66-5.606
	c0.186-1.657,0.335-3.32,0.522-4.978c0.332-2.955,0.69-5.908,1.019-8.863c0.221-1.977,0.407-3.957,0.616-5.936
	c0.08-0.751,0.181-1.5,0.297-2.443c0.151,0.282,0.241,0.391,0.27,0.513c0.219,0.934,0.423,1.872,0.638,2.807
	c0.77,3.349,1.548,6.697,2.314,10.047c0.591,2.579,1.158,5.164,1.755,7.743c0.606,2.62,1.253,5.229,1.844,7.853
	c0.348,1.547,1.708,2.861,3.297,3.084c1.627,0.229,3.436-0.619,4.055-2.071c0.448-1.05,0.697-2.188,0.992-3.299
	c0.45-1.691,0.868-3.392,1.292-5.09c0.475-1.905,0.942-3.814,1.414-5.722c0.435-1.76,0.866-3.521,1.308-5.28
	c0.248-0.982,0.514-1.962,0.797-3.037c0.147,0.168,0.233,0.236,0.279,0.325c1.017,1.965,2.087,3.907,3.025,5.91
	c0.708,1.516,1.935,2.153,3.45,2.17c5.14,0.057,10.28,0.016,15.42,0.032c0.512,0.002,0.66-0.152,0.654-0.656
	C221.929,71.042,221.943,68.815,221.94,66.587z"/>
<path fill="#D1212E" d="M230.359,69.944c0,3.011-2.44,5.449-5.449,5.449c-3.009,0-5.449-2.438-5.449-5.449
	c0-3.009,2.44-5.448,5.449-5.448C227.919,64.496,230.359,66.936,230.359,69.944"/>
<circle fill="none" stroke="#FFFFFF" stroke-width="5.669" stroke-miterlimit="10" cx="224.91" cy="69.944" r="5.449"/>
<path fill="#FFCA05" d="M221.94,66.587c0-0.187-0.03-0.373-0.051-0.617h-0.741c-4.005,0-8.01-0.013-12.015,0.014
	c-0.554,0.004-0.845-0.171-1.082-0.65c-2.091-4.235-4.206-8.459-6.298-12.693c-0.599-1.211-1.398-2.15-2.74-2.594
	c-1.908-0.63-4.428,0.662-4.915,2.587c-0.413,1.634-0.813,3.271-1.22,4.908c-0.887,3.56-1.775,7.121-2.671,10.679
	c-0.028,0.11-0.152,0.196-0.27,0.34c-0.133-0.532-0.247-0.963-0.347-1.396c-0.898-3.89-1.794-7.779-2.691-11.668
	c-0.767-3.328-1.534-6.656-2.304-9.983c-0.549-2.371-1.106-4.739-1.653-7.111c-0.407-1.768-0.814-3.535-1.201-5.308
	c-0.339-1.548-1.239-2.646-2.737-3.093c-1.373-0.41-2.692-0.163-3.84,0.804c-1.162,0.977-1.325,2.334-1.477,3.692
	c-0.315,2.806-0.591,5.615-0.902,8.422c-0.331,2.976-0.698,5.949-1.027,8.926c-0.3,2.721-0.555,5.447-0.86,8.167
	c-0.468,4.167-0.977,8.328-1.44,12.495c-0.435,3.912-0.83,7.828-1.252,11.741c-0.104,0.967-0.247,1.93-0.396,3.076
	c-0.157-0.319-0.257-0.475-0.313-0.645c-0.932-2.831-1.852-5.665-2.788-8.494c-1.011-3.053-2.054-6.094-3.05-9.15
	c-0.642-1.973-2.065-3.063-4.138-3.063c-5.033-0.003-10.066-0.002-15.099,0.001c-0.228,0-0.457,0.025-0.713,0.039v7.858
	c0.288,0.015,0.561,0.043,0.833,0.043c3.877,0.003,7.753,0.005,11.63-0.001c0.389,0,0.699,0.029,0.846,0.486
	c0.536,1.664,1.106,3.317,1.656,4.978c0.818,2.468,1.625,4.939,2.449,7.405c0.715,2.145,1.454,4.28,2.169,6.426
	c0.828,2.485,1.634,4.98,2.462,7.468c0.714,2.145,1.502,4.267,2.149,6.432c0.505,1.689,2.1,3.179,4.372,2.95
	c1.337-0.134,3.199-1.295,3.433-3.435c0.13-1.191,0.265-2.383,0.402-3.572c0.345-2.995,0.704-5.989,1.037-8.986
	c0.308-2.764,0.582-5.532,0.887-8.296c0.207-1.87,0.45-3.737,0.66-5.606c0.186-1.657,0.335-3.32,0.522-4.978
	c0.332-2.955,0.69-5.908,1.019-8.863c0.221-1.977,0.407-3.957,0.616-5.936c0.08-0.751,0.181-1.5,0.297-2.443
	c0.151,0.282,0.241,0.391,0.27,0.513c0.219,0.934,0.423,1.872,0.638,2.807c0.77,3.349,1.548,6.697,2.314,10.047
	c0.591,2.579,1.158,5.164,1.755,7.743c0.606,2.62,1.253,5.229,1.844,7.853c0.348,1.547,1.708,2.861,3.297,3.084
	c1.627,0.229,3.436-0.619,4.055-2.071c0.448-1.05,0.697-2.188,0.992-3.299c0.45-1.691,0.868-3.392,1.292-5.09
	c0.475-1.905,0.942-3.814,1.414-5.722c0.435-1.76,0.866-3.521,1.308-5.28c0.248-0.982,0.514-1.962,0.797-3.037
	c0.147,0.168,0.233,0.236,0.279,0.325c1.017,1.965,2.087,3.907,3.025,5.91c0.708,1.516,1.935,2.153,3.45,2.17
	c5.14,0.057,10.28,0.016,15.42,0.032c0.512,0.002,0.66-0.152,0.654-0.656C221.929,71.042,221.943,68.815,221.94,66.587"/>
<path fill="#FFCA05" d="M230.359,69.944c0,3.011-2.44,5.449-5.449,5.449c-3.009,0-5.449-2.438-5.449-5.449
	c0-3.009,2.44-5.448,5.449-5.448C227.919,64.496,230.359,66.936,230.359,69.944"/>
<rect x="129.667" y="65.969" fill="#FFCA05" width="27.101" height="7.918"/>
<path fill="#FFCA05" d="M146.849,68.3c0,26.682-21.63,48.312-48.312,48.312c-26.681,0-48.311-21.63-48.311-48.312
	c0-26.681,21.63-48.311,48.311-48.311C125.219,19.99,146.849,41.619,146.849,68.3"/>
<path fill="#FFFFFF" d="M99.322,75.479L88.034,88.554c2.935,2.811,6.913,4.537,11.288,4.537c4.374,0,8.353-1.727,11.288-4.537
	L99.322,75.479z"/>
<path fill="#FFFFFF" d="M126.806,73.582l-11.145-6.362v-5.36l5.675-3.249c1.349-0.772,2.187-2.219,2.187-3.773v-7.191
	c0-0.998-0.809-1.807-1.806-1.807c-0.998,0-1.807,0.809-1.807,1.807v7.191c0,0.264-0.142,0.508-0.37,0.639l-3.881,2.223
	c-0.053-2.669-2.023-4.874-4.588-5.289c-0.646-4.521-3.849-8.225-8.091-9.603l4.387-4.623c0.687-0.724,0.657-1.867-0.067-2.554
	c-0.723-0.688-1.867-0.657-2.554,0.066l-5.423,5.716l-5.424-5.716c-0.687-0.724-1.83-0.754-2.554-0.066
	c-0.724,0.687-0.754,1.83-0.067,2.554l4.387,4.623c-4.241,1.378-7.444,5.082-8.09,9.602c-2.553,0.414-4.517,2.601-4.588,5.252
	l-3.814-2.185c-0.229-0.131-0.37-0.376-0.37-0.639v-7.191c0-0.998-0.81-1.807-1.807-1.807c-0.998,0-1.807,0.809-1.807,1.807v7.191
	c0,1.555,0.838,3.001,2.188,3.773l5.607,3.211v5.398l-11.145,6.362c-0.866,0.495-1.168,1.598-0.673,2.465
	c0.333,0.584,0.943,0.911,1.571,0.911c0.303,0,0.611-0.077,0.894-0.238l9.353-5.34v5.37c0,0.381,0.014,0.757,0.04,1.131
	l-5.703,3.266c-1.349,0.773-2.188,2.22-2.188,3.774V95c0,0.998,0.809,1.807,1.807,1.807s1.807-0.809,1.807-1.807V84.92
	c0-0.263,0.142-0.508,0.37-0.639l4.616-2.644c0.461,1.467,1.122,2.847,1.954,4.105l11.829-13.701V54.097v-1.759h3.613v1.759v17.946
	l11.829,13.701c0.827-1.252,1.487-2.624,1.948-4.084l4.578,2.622c0.228,0.131,0.37,0.376,0.37,0.638V95
	c0,0.998,0.809,1.807,1.806,1.807c0.999,0,1.807-0.809,1.807-1.807V84.92c0-1.555-0.838-3.001-2.187-3.774l-5.661-3.241
	c0.027-0.382,0.042-0.767,0.042-1.155v-5.37l9.353,5.34c0.283,0.161,0.591,0.237,0.895,0.237c0.627,0,1.237-0.327,1.57-0.911
	C127.974,75.18,127.671,74.077,126.806,73.582"/>
</svg>
