<?xml version="1.0" encoding="utf-8"?>
<!-- Generator: Adobe Illustrator 16.0.0, SVG Export Plug-In . SVG Version: 6.00 Build 0)  -->
<!DOCTYPE svg PUBLIC "-//W3C//DTD SVG 1.1//EN" "http://www.w3.org/Graphics/SVG/1.1/DTD/svg11.dtd">
<svg version="1.1" id="Layer_1" xmlns="http://www.w3.org/2000/svg" xmlns:xlink="http://www.w3.org/1999/xlink" x="0px" y="0px"
	 width="414.083px" height="210.667px" viewBox="84.215 -1.782 414.083 210.667"
	 enable-background="new 84.215 -1.782 414.083 210.667" xml:space="preserve">
<path fill="#0087CC" d="M193.667,36.236c0,0-22.171-22.937-32.493-29.435c-8.72-5.49-13.242-5.693-16.294-5.624
	c-3.052-0.069-7.576,0.134-16.296,5.624c-10.321,6.498-32.493,29.435-32.493,29.435s25.994-18.731,34.022-24.465
	c6.056-4.326,12.142-4.953,14.766-5.001c2.624,0.048,8.71,0.675,14.766,5.001C167.672,17.504,193.667,36.236,193.667,36.236"/>
<path fill="#FFFFFF" stroke="#FFFFFF" stroke-width="0.216" stroke-miterlimit="2.613" d="M193.667,36.236
	c0,0-22.171-22.937-32.493-29.435c-8.72-5.49-13.242-5.693-16.294-5.624c-3.052-0.069-7.576,0.134-16.296,5.624
	c-10.321,6.498-32.493,29.435-32.493,29.435s25.994-18.731,34.022-24.465c6.056-4.326,12.142-4.953,14.766-5.001
	c2.624,0.048,8.71,0.675,14.766,5.001C167.672,17.504,193.667,36.236,193.667,36.236z"/>
<path fill="#FFFFFF" d="M179.323,50.87c0,0-15.653-16.192-22.939-20.781c-6.157-3.876-9.35-4.019-11.504-3.97
	c-2.155-0.049-5.349,0.094-11.505,3.97c-7.287,4.589-22.94,20.781-22.94,20.781s18.351-13.224,24.018-17.271
	c4.276-3.055,8.573-3.497,10.425-3.53c1.853,0.033,6.149,0.476,10.424,3.53C160.971,37.647,179.323,50.87,179.323,50.87"/>
<path fill="none" stroke="#FFFFFF" stroke-width="0.216" stroke-miterlimit="2.613" d="M179.323,50.87
	c0,0-15.653-16.192-22.939-20.781c-6.157-3.876-9.35-4.019-11.504-3.97c-2.155-0.049-5.349,0.094-11.505,3.97
	c-7.287,4.589-22.94,20.781-22.94,20.781s18.351-13.224,24.018-17.271c4.276-3.055,8.573-3.497,10.425-3.53
	c1.853,0.033,6.149,0.476,10.424,3.53C160.971,37.647,179.323,50.87,179.323,50.87z"/>
<path fill="#FFFFFF" d="M181.507,53.073c0,0,7.041,5.632,2.464,22.882c-4.576,17.25-11.617,32.035-20.418,46.117
	c-8.463,13.541-12.982,16.663-18.674,16.883c-5.693-0.22-10.212-3.342-18.675-16.883c-8.801-14.082-15.842-28.867-20.418-46.117
	c-4.577-17.25,2.464-22.882,2.464-22.882L92.056,41.455c0,0-6.688,4.93-5.632,21.475c1.056,16.545,9.153,37.667,21.122,60.197
	c11.969,22.53,22.882,34.853,28.163,39.075c2.473,1.979,5.208,2.741,7.417,2.991c0.417,0.053,1.048,0.109,1.827,0.108h0.027
	c1.503,0.003,2.478-0.195,2.478-0.195v-0.012c2.011-0.329,4.381-1.125,6.59-2.894c5.281-4.224,16.194-16.545,28.163-39.075
	c11.969-22.53,20.066-43.651,21.122-60.197c1.056-16.545-5.633-21.475-5.633-21.475L181.507,53.073z"/>
<path fill="none" stroke="#FFFFFF" stroke-width="0.216" stroke-miterlimit="2.613" d="M181.507,53.073
	c0,0,7.041,5.632,2.464,22.882c-4.576,17.25-11.617,32.035-20.418,46.117c-8.463,13.541-12.982,16.663-18.674,16.883
	c-5.693-0.22-10.212-3.342-18.675-16.883c-8.801-14.082-15.842-28.867-20.418-46.117c-4.577-17.25,2.464-22.882,2.464-22.882
	L92.056,41.455c0,0-6.688,4.93-5.632,21.475c1.056,16.545,9.153,37.667,21.122,60.197c11.969,22.53,22.882,34.853,28.163,39.075
	c2.473,1.979,5.208,2.741,7.417,2.991c0.417,0.053,1.048,0.109,1.827,0.108h0.027c1.503,0.003,2.478-0.195,2.478-0.195v-0.012
	c2.011-0.329,4.381-1.125,6.59-2.894c5.281-4.224,16.194-16.545,28.163-39.075c11.969-22.53,20.066-43.651,21.122-60.197
	c1.056-16.545-5.633-21.475-5.633-21.475L181.507,53.073z"/>
<path fill="#FFFFFF" d="M96.281,59.058c1.745,0,3.168-1.423,3.168-3.168s-1.423-3.169-3.168-3.169s-3.168,1.423-3.168,3.169
	S94.536,59.058,96.281,59.058"/>
<path fill="#FFFFFF" d="M97.824,80.871c1.745,0,3.168-1.423,3.168-3.168s-1.423-3.168-3.168-3.168s-3.168,1.423-3.168,3.168
	S96.079,80.871,97.824,80.871"/>
<path fill="#FFFFFF" d="M105.018,101.526c1.745,0,3.168-1.423,3.168-3.168s-1.423-3.168-3.168-3.168s-3.168,1.423-3.168,3.168
	S103.273,101.526,105.018,101.526"/>
<path fill="#FFFFFF" d="M115.611,123.127c1.745,0,3.168-1.424,3.168-3.168c0-1.746-1.423-3.168-3.168-3.168
	c-1.745,0-3.168,1.422-3.168,3.168C112.443,121.703,113.866,123.127,115.611,123.127"/>
<path fill="#FFFFFF" d="M127.932,142.81c1.745,0,3.168-1.423,3.168-3.168s-1.423-3.168-3.168-3.168s-3.168,1.423-3.168,3.168
	S126.187,142.81,127.932,142.81"/>
<path fill="#FFFFFF" d="M144.879,157.978c1.745,0,3.168-1.423,3.168-3.168s-1.423-3.168-3.168-3.168
	c-1.745,0-3.168,1.423-3.168,3.168S143.134,157.978,144.879,157.978"/>
<path fill="#FFFFFF" d="M106.842,43.216c1.745,0,3.168-1.424,3.168-3.169c0-1.744-1.423-3.168-3.168-3.168
	c-1.745,0-3.168,1.424-3.168,3.168C103.674,41.792,105.097,43.216,106.842,43.216"/>
<path fill="none" stroke="#FFFFFF" stroke-width="0.216" stroke-miterlimit="2.613" d="M106.842,43.216
	c1.745,0,3.168-1.424,3.168-3.169c0-1.744-1.423-3.168-3.168-3.168c-1.745,0-3.168,1.424-3.168,3.168
	C103.674,41.792,105.097,43.216,106.842,43.216z"/>
<path fill="#FFFFFF" d="M124.444,28.782c1.745,0,3.168-1.423,3.168-3.168s-1.423-3.168-3.168-3.168
	c-1.745,0-3.168,1.423-3.168,3.168S122.699,28.782,124.444,28.782"/>
<path fill="none" stroke="#FFFFFF" stroke-width="0.216" stroke-miterlimit="2.613" d="M124.444,28.782
	c1.745,0,3.168-1.423,3.168-3.168s-1.423-3.168-3.168-3.168c-1.745,0-3.168,1.423-3.168,3.168S122.699,28.782,124.444,28.782z"/>
<path fill="#FFFFFF" d="M183.234,43.216c1.745,0,3.168-1.424,3.168-3.169c0-1.744-1.423-3.168-3.168-3.168
	c-1.745,0-3.168,1.424-3.168,3.168C180.066,41.792,181.489,43.216,183.234,43.216"/>
<path fill="none" stroke="#FFFFFF" stroke-width="0.216" stroke-miterlimit="2.613" d="M183.234,43.216
	c1.745,0,3.168-1.424,3.168-3.169c0-1.744-1.423-3.168-3.168-3.168c-1.745,0-3.168,1.424-3.168,3.168
	C180.066,41.792,181.489,43.216,183.234,43.216z"/>
<path fill="#FFFFFF" d="M165.632,28.782c1.745,0,3.168-1.423,3.168-3.168s-1.423-3.168-3.168-3.168
	c-1.745,0-3.168,1.423-3.168,3.168S163.887,28.782,165.632,28.782"/>
<path fill="none" stroke="#FFFFFF" stroke-width="0.216" stroke-miterlimit="2.613" d="M165.632,28.782
	c1.745,0,3.168-1.423,3.168-3.168s-1.423-3.168-3.168-3.168c-1.745,0-3.168,1.423-3.168,3.168S163.887,28.782,165.632,28.782z"/>
<path fill="#0087CC" d="M144.879,19.629c1.745,0,3.168-1.423,3.168-3.168s-1.423-3.169-3.168-3.169
	c-1.745,0-3.168,1.424-3.168,3.169S143.134,19.629,144.879,19.629"/>
<path fill="#FFFFFF" stroke="#FFFFFF" stroke-width="0.216" stroke-miterlimit="2.613" d="M144.879,19.629
	c1.745,0,3.168-1.423,3.168-3.168s-1.423-3.169-3.168-3.169c-1.745,0-3.168,1.424-3.168,3.169S143.134,19.629,144.879,19.629z"/>
<polygon fill="#FFFFFF" points="144.879,44.654 152.937,65.964 175.625,66.991 157.879,81.14 163.881,103.136 144.879,90.472 
	125.877,103.136 131.879,81.026 114.133,66.991 136.821,65.964 "/>
<path fill="#FFFFFF" d="M193.495,59.058c1.745,0,3.168-1.423,3.168-3.168s-1.423-3.169-3.168-3.169s-3.168,1.424-3.168,3.169
	S191.749,59.058,193.495,59.058"/>
<path fill="#FFFFFF" d="M191.952,80.871c1.745,0,3.168-1.423,3.168-3.168s-1.423-3.168-3.168-3.168s-3.168,1.423-3.168,3.168
	S190.206,80.871,191.952,80.871"/>
<path fill="#FFFFFF" d="M184.757,101.526c1.745,0,3.168-1.423,3.168-3.168s-1.423-3.168-3.168-3.168
	c-1.745,0-3.168,1.423-3.168,3.168S183.012,101.526,184.757,101.526"/>
<path fill="#FFFFFF" d="M174.164,123.127c1.745,0,3.168-1.424,3.168-3.168c0-1.746-1.423-3.168-3.168-3.168
	s-3.168,1.422-3.168,3.168C170.996,121.703,172.419,123.127,174.164,123.127"/>
<path fill="#FFFFFF" d="M161.843,142.81c1.745,0,3.168-1.423,3.168-3.168s-1.423-3.168-3.168-3.168
	c-1.745,0-3.168,1.423-3.168,3.168S160.098,142.81,161.843,142.81"/>
<rect x="305.181" y="88.393" fill="#FFFFFF" width="91.279" height="15.213"/>
<rect x="305.181" y="118.819" fill="#FFFFFF" width="91.279" height="15.212"/>
<rect x="305.181" y="149.244" fill="#FFFFFF" width="91.279" height="15.213"/>
<polygon fill="#FFFFFF" points="405.019,88.392 496.298,88.392 496.298,103.605 420.232,103.605 420.232,149.244 496.298,149.244 
	496.298,164.457 405.019,164.457 405.019,159.703 405.019,149.244 405.019,103.605 405.019,93.146 "/>
<polygon fill="#FFFFFF" points="203.443,149.244 279.509,149.244 279.509,134.031 203.443,134.031 203.443,130.228 203.443,118.819 
	203.443,103.605 203.443,88.392 294.722,88.392 294.722,103.605 218.656,103.605 218.656,118.819 294.722,118.819 294.722,124.522 
	294.722,134.031 294.722,149.244 294.722,158.752 294.722,164.457 203.443,164.457 "/>
<path fill="#FFFFFF" d="M418.296,178.183c0.525,0,0.736,0.281,0.633,0.773l-5.934,26.678c-0.105,0.422-0.352,0.633-0.771,0.633
	h-3.51c-0.424,0-0.668-0.211-0.773-0.633l-5.896-26.678c-0.105-0.492,0.104-0.773,0.633-0.773h3.334
	c0.422,0,0.666,0.211,0.771,0.633l3.688,18.816l3.721-18.816c0.105-0.422,0.352-0.633,0.771-0.633H418.296z"/>
<path fill="#FFFFFF" d="M432.865,206.267c-0.314,0-0.49-0.176-0.563-0.49l-0.982-5.125h-6.248l-0.947,5.125
	c-0.07,0.314-0.246,0.49-0.563,0.49h-3.756c-0.387,0-0.563-0.211-0.457-0.596l5.828-26.996c0.07-0.352,0.279-0.492,0.596-0.492
	h4.881c0.316,0,0.525,0.141,0.596,0.492l5.828,26.996c0.07,0.385-0.068,0.596-0.49,0.596H432.865z M428.197,184.327l-2.248,12.25
	h4.494L428.197,184.327z"/>
<path fill="#FFFFFF" d="M441.289,178.745c0-0.354,0.178-0.564,0.564-0.564h8.424c3.301,0,5.055,1.791,5.055,5.092v17.938
	c0,3.301-1.754,5.057-5.055,5.057h-8.424c-0.387,0-0.564-0.176-0.564-0.563V178.745z M449.294,201.632
	c0.912,0,1.402-0.455,1.402-1.402v-15.973c0-0.949-0.49-1.439-1.402-1.439h-3.23v18.814H449.294L449.294,201.632z"/>
<path fill="#FFFFFF" d="M472.744,206.267c-0.314,0-0.492-0.176-0.563-0.49l-0.982-5.125h-6.25l-0.945,5.125
	c-0.07,0.314-0.246,0.49-0.563,0.49h-3.756c-0.389,0-0.564-0.211-0.457-0.596l5.826-26.996c0.07-0.352,0.281-0.492,0.598-0.492
	h4.881c0.314,0,0.525,0.141,0.596,0.492l5.828,26.996c0.07,0.385-0.07,0.596-0.492,0.596H472.744z M468.074,184.327l-2.246,12.25
	h4.492L468.074,184.327z"/>
<path fill="#FFFFFF" d="M496.298,191.804c0,2.354-0.877,3.896-2.563,4.635l2.422,9.195c0.105,0.422-0.104,0.633-0.492,0.633h-3.65
	c-0.352,0-0.525-0.176-0.596-0.49l-2.354-8.916h-2.424v8.846c0,0.352-0.209,0.563-0.563,0.563h-3.648
	c-0.354,0-0.564-0.211-0.564-0.563v-26.961c0-0.352,0.211-0.563,0.564-0.563h8.811c3.301,0,5.057,1.756,5.057,5.057V191.804
	L496.298,191.804z M490.119,192.224c0.914,0,1.404-0.488,1.404-1.402v-6.6c0-0.914-0.49-1.402-1.404-1.402h-3.475v9.406
	L490.119,192.224L490.119,192.224z"/>
</svg>
