<svg width="68" height="76" viewBox="0 0 68 76" fill="none" xmlns="http://www.w3.org/2000/svg">
<path d="M58.4375 8.7843C58.1852 8.7843 57.9262 8.83525 57.6672 8.9517L19.3906 25.8084H8.5C7.91562 25.8084 7.4375 26.347 7.4375 27.0166V48.7789C7.4375 49.4485 7.91562 49.9871 8.5 49.9871H15.2535C15.0078 50.8314 14.875 51.7267 14.875 52.6365C14.875 57.4329 18.4477 61.3341 22.8438 61.3341C26.5227 61.3341 29.6238 58.5975 30.5402 54.9L57.6738 66.8511C57.9328 66.9603 58.1918 67.0185 58.4441 67.0185C59.5664 67.0185 60.5691 65.985 60.5691 64.6021V11.2007C60.5625 9.81783 59.5664 8.7843 58.4375 8.7843ZM22.8438 56.1155C21.084 56.1155 19.6562 54.558 19.6562 52.6365C19.6562 51.8213 19.9152 51.0425 20.3867 50.4238L26.0246 52.9058C25.8918 54.6962 24.5172 56.1155 22.8438 56.1155ZM55.7812 60.3661L21.1703 45.1252L20.3137 44.7467H12.2188V31.0488H20.3137L21.1703 30.6704L55.7812 15.4295V60.3661Z" fill="url(#paint0_linear)"/>
<defs>
<linearGradient id="paint0_linear" x1="34.0033" y1="8.7843" x2="34.0033" y2="67.0185" gradientUnits="userSpaceOnUse">
<stop stop-color="#02ADC4"/>
<stop offset="1" stop-color="#1D4DA3"/>
</linearGradient>
</defs>
</svg>
