<svg width="31" height="41" viewBox="0 0 31 41" fill="none" xmlns="http://www.w3.org/2000/svg">
<path d="M26.9 3V8.3V25.3L25.6 26.4V26.3L15.3 34.8V40.1L21.1 35.3V35.4L26.9 30.6L30.5 27.6V22.3V5.3V0L26.9 3Z" fill="#1C42A3"/>
<path d="M23.8 22.5V18.8V17.1V14.7V12.7L15.3 19.7V24.1L21.5 18.9V20.6L15.3 25.8V30.2L23.8 23.2V22.5Z" fill="#1C42A3"/>
<path d="M23.8 6.59998L15.3 13.6V17.9L23.8 10.9V6.59998Z" fill="#1C42A3"/>
<path d="M6.70001 23.2L15.3 30.2V25.8L6.70001 18.8V23.2Z" fill="#00B3C6"/>
<path d="M15.3 17.9V13.6L6.70001 6.59998V8.99998V10.9V12.7V16.8V17.1L15.3 24.1V19.7L9.00001 14.5V12.8L15.3 17.9Z" fill="#00B3C6"/>
<path d="M4.9 26.4L3.6 25.3V8.3V3L0 0V5.3V22.3V27.6L3.6 30.6L9.4 35.4V35.3L15.3 40.1V34.8L4.9 26.3V26.4Z" fill="#00B3C6"/>
</svg>
