<svg width="64" height="64" viewBox="0 0 64 64" fill="none" xmlns="http://www.w3.org/2000/svg">
<path d="M31.7686 -0.076356C31.6645 -0.0575578 31.5617 -0.0320691 31.4609 -4.82947e-05C30.9052 0.12451 30.4098 0.437917 30.0593 0.886768C29.7087 1.33562 29.5247 1.89214 29.5385 2.46149V4.92303H7.38462C5.42609 4.92303 3.54779 5.70105 2.1629 7.08593C0.77802 8.47082 0 10.3491 0 12.3076L0 44.3076C0 48.384 3.30831 51.6923 7.38462 51.6923H29.5385V52.6153L16.1526 59.3083C15.5611 59.5939 15.1074 60.1028 14.8911 60.723C14.6748 61.3432 14.7138 62.0239 14.9994 62.6153C15.285 63.2068 15.7939 63.6606 16.4141 63.8769C17.0343 64.0931 17.715 64.0542 18.3065 63.7686L29.5385 58.1538V59.0769C29.5385 59.7297 29.7978 60.3558 30.2594 60.8175C30.7211 61.2791 31.3472 61.5384 32 61.5384C32.6528 61.5384 33.2789 61.2791 33.7406 60.8175C34.2022 60.3558 34.4615 59.7297 34.4615 59.0769V58.1538L45.6935 63.7686C46.285 64.0542 46.9657 64.0931 47.5859 63.8769C48.2061 63.6606 48.715 63.2068 49.0006 62.6153C49.2862 62.0239 49.3252 61.3432 49.1089 60.723C48.8927 60.1028 48.4389 59.5939 47.8474 59.3083L34.4615 52.6153V51.6923H56.6154C60.6917 51.6923 64 48.384 64 44.3076V12.3076C64 10.3491 63.222 8.47082 61.8371 7.08593C60.4522 5.70105 58.5739 4.92303 56.6154 4.92303H34.4615V2.46149C34.474 2.11145 34.4116 1.7628 34.2785 1.43881C34.1454 1.11482 33.9447 0.822971 33.6898 0.58275C33.4349 0.34253 33.1316 0.159473 32.8003 0.0458111C32.469 -0.0678508 32.1173 -0.109501 31.7686 -0.076356ZM4.92308 12.3076H59.0769V44.3076H4.92308V12.3076ZM51.3846 14.7692C50.8332 14.8285 50.318 15.0722 49.9225 15.4609L41.8462 23.5396L36.2314 17.92C35.9625 17.644 35.6326 17.4351 35.2682 17.3099C34.9038 17.1848 34.5152 17.1469 34.1335 17.1993C33.7518 17.2518 33.3878 17.3931 33.0707 17.6119C32.7535 17.8307 32.4922 18.1208 32.3077 18.459L24.9994 31.2295L21.9988 23.6898C21.8531 23.3005 21.6111 22.9544 21.2956 22.6839C20.98 22.4134 20.6011 22.2271 20.1941 22.1426C19.7871 22.058 19.3653 22.0779 18.9681 22.2004C18.5709 22.3229 18.2112 22.544 17.9225 22.843L10.5378 30.2276C10.0678 30.6974 9.8036 31.3346 9.80337 31.9991C9.80314 32.6636 10.0669 33.301 10.5366 33.771C11.0063 34.2411 11.6435 34.5053 12.3081 34.5055C12.9726 34.5057 13.61 34.242 14.08 33.7723L18.7717 29.0806L22.3114 37.8486C22.4784 38.2883 22.768 38.671 23.1458 38.9512C23.5236 39.2315 23.9738 39.3977 24.4431 39.4301C24.9123 39.4624 25.3811 39.3597 25.7938 39.1339C26.2065 38.9082 26.5458 38.5689 26.7717 38.1563L35.0031 23.771L40.0788 28.8492C40.3083 29.0867 40.5833 29.2755 40.8874 29.4045C41.1914 29.5335 41.5183 29.5999 41.8486 29.5999C42.1789 29.5999 42.5058 29.5335 42.8099 29.4045C43.1139 29.2755 43.3889 29.0867 43.6185 28.8492L53.4646 19.003C53.8535 18.643 54.1158 18.1672 54.2125 17.6462C54.3093 17.1252 54.2353 16.5869 54.0017 16.1113C53.768 15.6357 53.3872 15.2482 52.9156 15.0064C52.4441 14.7646 51.9072 14.6814 51.3846 14.7692Z" fill="url(#paint0_linear)"/>
<defs>
<linearGradient id="paint0_linear" x1="32" y1="-0.0874023" x2="32" y2="64.015" gradientUnits="userSpaceOnUse">
<stop stop-color="#01AFC5"/>
<stop offset="0.997802" stop-color="#1C4EA3"/>
</linearGradient>
</defs>
</svg>
