<svg width="33" height="45" viewBox="0 0 33 45" fill="none" xmlns="http://www.w3.org/2000/svg">
<g clip-path="url(#clip0)">
<path fill-rule="evenodd" clip-rule="evenodd" d="M30.2194 9.63132C30.2194 9.63132 23.9848 3.35107 21.0822 1.57189C18.6301 0.0687067 17.3585 0.0131243 16.5003 0.0320168C15.642 0.0131243 14.3699 0.0687067 11.9178 1.57189C9.01543 3.35107 2.78055 9.63132 2.78055 9.63132C2.78055 9.63132 10.0902 4.50269 12.3477 2.9327C14.0507 1.74822 15.7621 1.57655 16.5 1.5634C17.2379 1.57655 18.9493 1.74822 20.6523 2.9327C22.9095 4.50269 30.2194 9.63132 30.2194 9.63132Z" fill="#0087CC"/>
<path d="M30.2194 9.63132C30.2194 9.63132 23.9848 3.35107 21.0822 1.57189C18.6301 0.0687067 17.3585 0.0131243 16.5003 0.0320168C15.642 0.0131243 14.3699 0.0687067 11.9178 1.57189C9.01543 3.35107 2.78055 9.63132 2.78055 9.63132C2.78055 9.63132 10.0902 4.50269 12.3477 2.9327C14.0507 1.74822 15.7621 1.57655 16.5 1.5634C17.2379 1.57655 18.9493 1.74822 20.6523 2.9327C22.9095 4.50269 30.2194 9.63132 30.2194 9.63132Z" fill="#003472" stroke="#005DAB" stroke-width="0.216" stroke-miterlimit="2.613"/>
<path fill-rule="evenodd" clip-rule="evenodd" d="M26.1856 13.6385C26.1856 13.6385 21.7841 9.20474 19.7353 7.94853C18.0039 6.88726 17.1057 6.84811 16.5003 6.86152C15.8943 6.84811 14.9961 6.88726 13.265 7.94853C11.2159 9.20474 6.81418 13.6385 6.81418 13.6385C6.81418 13.6385 11.9746 10.0177 13.5682 8.90931C14.7706 8.07311 15.9789 7.95181 16.4997 7.94278C17.0211 7.95181 18.2286 8.07311 19.431 8.90931C21.0252 10.0177 26.1856 13.6385 26.1856 13.6385Z" fill="#003472"/>
<path d="M26.1856 13.6385C26.1856 13.6385 21.7841 9.20474 19.7353 7.94853C18.0039 6.88726 17.1057 6.84811 16.5003 6.86152C15.8943 6.84811 14.9961 6.88726 13.265 7.94853C11.2159 9.20474 6.81418 13.6385 6.81418 13.6385C6.81418 13.6385 11.9746 10.0177 13.5682 8.90931C14.7706 8.07311 15.9789 7.95181 16.4997 7.94278C17.0211 7.95181 18.2286 8.07311 19.431 8.90931C21.0252 10.0177 26.1856 13.6385 26.1856 13.6385Z" stroke="#005DAB" stroke-width="0.216" stroke-miterlimit="2.613"/>
<path fill-rule="evenodd" clip-rule="evenodd" d="M26.8003 14.2414C26.8003 14.2414 28.7802 15.7834 27.4929 20.5066C26.2064 25.2297 24.2264 29.2779 21.7512 33.1336C19.3714 36.8412 18.1009 37.696 16.5003 37.7562C14.8994 37.696 13.6286 36.8412 11.2488 33.1336C8.77362 29.2779 6.79365 25.2297 5.50686 20.5066C4.21978 15.7834 6.19975 14.2414 6.19975 14.2414L1.64591 11.0606C1.64591 11.0606 -0.23479 12.4102 0.0621624 16.9403C0.359115 21.4703 2.63603 27.2536 6.00178 33.4227C9.36753 39.5915 12.4363 42.9654 13.9214 44.1216C14.6168 44.6635 15.3859 44.8721 16.0071 44.9406C16.1243 44.9551 16.3018 44.9704 16.5208 44.9702H16.5284C16.9511 44.971 17.2255 44.9168 17.2255 44.9168V44.9135C17.7907 44.8234 18.4575 44.6054 19.0787 44.1214C20.5634 42.9648 23.6322 39.5913 26.998 33.4225C30.3637 27.2534 32.6406 21.4703 32.9379 16.94C33.2345 12.4099 31.3536 11.0603 31.3536 11.0603L26.8003 14.2414Z" fill="#003472"/>
<path d="M26.8003 14.2414C26.8003 14.2414 28.7802 15.7834 27.4929 20.5066C26.2064 25.2297 24.2264 29.2779 21.7512 33.1336C19.3714 36.8412 18.1009 37.696 16.5003 37.7562C14.8994 37.696 13.6286 36.8412 11.2488 33.1336C8.77362 29.2779 6.79365 25.2297 5.50686 20.5066C4.21978 15.7834 6.19975 14.2414 6.19975 14.2414L1.64591 11.0606C1.64591 11.0606 -0.23479 12.4102 0.0621624 16.9403C0.359115 21.4703 2.63603 27.2536 6.00178 33.4227C9.36753 39.5915 12.4363 42.9654 13.9214 44.1216C14.6168 44.6635 15.3859 44.8721 16.0071 44.9406C16.1243 44.9551 16.3018 44.9704 16.5208 44.9702H16.5284C16.9511 44.971 17.2255 44.9168 17.2255 44.9168V44.9135C17.7907 44.8234 18.4575 44.6054 19.0787 44.1214C20.5634 42.9648 23.6322 39.5913 26.998 33.4225C30.3637 27.2534 32.6406 21.4703 32.9379 16.94C33.2345 12.4099 31.3536 11.0603 31.3536 11.0603L26.8003 14.2414Z" stroke="#005DAB" stroke-width="0.216" stroke-miterlimit="2.613"/>
<path fill-rule="evenodd" clip-rule="evenodd" d="M2.83397 15.8801C3.32468 15.8801 3.72483 15.4904 3.72483 15.0126C3.72483 14.5349 3.32468 14.145 2.83397 14.145C2.34327 14.145 1.94312 14.5346 1.94312 15.0126C1.94312 15.4907 2.34327 15.8801 2.83397 15.8801Z" fill="white"/>
<path fill-rule="evenodd" clip-rule="evenodd" d="M3.2679 21.8529C3.75861 21.8529 4.15876 21.4632 4.15876 20.9855C4.15876 20.5077 3.75861 20.118 3.2679 20.118C2.7772 20.118 2.37704 20.5077 2.37704 20.9855C2.37704 21.4632 2.7772 21.8529 3.2679 21.8529Z" fill="white"/>
<path fill-rule="evenodd" clip-rule="evenodd" d="M5.29085 27.508C5.78156 27.508 6.18171 27.1184 6.18171 26.6406C6.18171 26.1628 5.78156 25.7732 5.29085 25.7732C4.80015 25.7732 4.39999 26.1628 4.39999 26.6406C4.39999 27.1184 4.80015 27.508 5.29085 27.508Z" fill="white"/>
<path fill-rule="evenodd" clip-rule="evenodd" d="M8.2697 33.4228C8.76041 33.4228 9.16056 33.0329 9.16056 32.5553C9.16056 32.0773 8.76041 31.6879 8.2697 31.6879C7.779 31.6879 7.37885 32.0773 7.37885 32.5553C7.37885 33.0329 7.779 33.4228 8.2697 33.4228Z" fill="white"/>
<path fill-rule="evenodd" clip-rule="evenodd" d="M11.7344 38.8117C12.2251 38.8117 12.6253 38.4221 12.6253 37.9443C12.6253 37.4665 12.2251 37.0769 11.7344 37.0769C11.2437 37.0769 10.8435 37.4665 10.8435 37.9443C10.8435 38.4221 11.2437 38.8117 11.7344 38.8117Z" fill="white"/>
<path fill-rule="evenodd" clip-rule="evenodd" d="M16.5 42.9648C16.991 42.9648 17.3906 42.5752 17.3906 42.0974C17.3906 41.6196 16.9907 41.23 16.5 41.23C16.0093 41.23 15.6091 41.6196 15.6091 42.0974C15.6091 42.5752 16.0093 42.9648 16.5 42.9648Z" fill="white"/>
<path fill-rule="evenodd" clip-rule="evenodd" d="M5.80379 11.5425C6.29449 11.5425 6.69465 11.1529 6.69465 10.6751C6.69465 10.1973 6.29449 9.80768 5.80379 9.80768C5.31309 9.80768 4.91293 10.1973 4.91293 10.6751C4.91293 11.1529 5.31309 11.5425 5.80379 11.5425Z" fill="#003472"/>
<path d="M5.80379 11.5425C6.29449 11.5425 6.69465 11.1529 6.69465 10.6751C6.69465 10.1973 6.29449 9.80768 5.80379 9.80768C5.31309 9.80768 4.91293 10.1973 4.91293 10.6751C4.91293 11.1529 5.31309 11.5425 5.80379 11.5425Z" stroke="#005DAB" stroke-width="0.216" stroke-miterlimit="2.613"/>
<path fill-rule="evenodd" clip-rule="evenodd" d="M10.7536 7.59066C11.2443 7.59066 11.6444 7.20104 11.6444 6.72325C11.6444 6.24546 11.2443 5.85583 10.7536 5.85583C10.2629 5.85583 9.8627 6.24546 9.8627 6.72325C9.8627 7.20104 10.2629 7.59066 10.7536 7.59066Z" fill="#003472"/>
<path d="M10.7536 7.59066C11.2443 7.59066 11.6444 7.20104 11.6444 6.72325C11.6444 6.24546 11.2443 5.85583 10.7536 5.85583C10.2629 5.85583 9.8627 6.24546 9.8627 6.72325C9.8627 7.20104 10.2629 7.59066 10.7536 7.59066Z" stroke="#005DAB" stroke-width="0.216" stroke-miterlimit="2.613"/>
<path fill-rule="evenodd" clip-rule="evenodd" d="M27.2856 11.5425C27.7761 11.5425 28.1765 11.1529 28.1765 10.6751C28.1765 10.1973 27.7761 9.80768 27.2856 9.80768C26.7946 9.80768 26.3948 10.1973 26.3948 10.6751C26.3948 11.1529 26.7946 11.5425 27.2856 11.5425Z" fill="#003472"/>
<path d="M27.2856 11.5425C27.7761 11.5425 28.1765 11.1529 28.1765 10.6751C28.1765 10.1973 27.7761 9.80768 27.2856 9.80768C26.7946 9.80768 26.3948 10.1973 26.3948 10.6751C26.3948 11.1529 26.7946 11.5425 27.2856 11.5425Z" stroke="#005DAB" stroke-width="0.216" stroke-miterlimit="2.613"/>
<path fill-rule="evenodd" clip-rule="evenodd" d="M22.3359 7.59066C22.8266 7.59066 23.2267 7.20104 23.2267 6.72325C23.2267 6.24546 22.8266 5.85583 22.3359 5.85583C21.8452 5.85583 21.445 6.24546 21.445 6.72325C21.445 7.20104 21.8452 7.59066 22.3359 7.59066Z" fill="#003472"/>
<path d="M22.3359 7.59066C22.8266 7.59066 23.2267 7.20104 23.2267 6.72325C23.2267 6.24546 22.8266 5.85583 22.3359 5.85583C21.8452 5.85583 21.445 6.24546 21.445 6.72325C21.445 7.20104 21.8452 7.59066 22.3359 7.59066Z" stroke="#005DAB" stroke-width="0.216" stroke-miterlimit="2.613"/>
<path fill-rule="evenodd" clip-rule="evenodd" d="M16.5 5.08458C16.991 5.08458 17.3906 4.69496 17.3906 4.21717C17.3906 3.73911 16.9907 3.34949 16.5 3.34949C16.0093 3.34949 15.6091 3.73911 15.6091 4.21717C15.6091 4.69496 16.0093 5.08458 16.5 5.08458Z" fill="#0087CC"/>
<path d="M16.5 5.08458C16.991 5.08458 17.3906 4.69496 17.3906 4.21717C17.3906 3.73911 16.9907 3.34949 16.5 3.34949C16.0093 3.34949 15.6091 3.73911 15.6091 4.21717C15.6091 4.69496 16.0093 5.08458 16.5 5.08458Z" fill="#003472" stroke="#005DAB" stroke-width="0.216" stroke-miterlimit="2.613"/>
<path fill-rule="evenodd" clip-rule="evenodd" d="M16.5 11.9362L18.766 17.7713L25.1459 18.0525L20.1557 21.9262L21.8435 27.9488L16.5 24.4814L11.1565 27.9488L12.8443 21.895L7.85406 18.0525L14.234 17.7713L16.5 11.9362Z" fill="#FFCA05"/>
<path fill-rule="evenodd" clip-rule="evenodd" d="M30.1708 15.8801C30.6618 15.8801 31.0617 15.4904 31.0617 15.0126C31.0617 14.5349 30.6618 14.145 30.1708 14.145C29.6804 14.145 29.2799 14.5349 29.2799 15.0126C29.2799 15.4904 29.6804 15.8801 30.1708 15.8801Z" fill="white"/>
<path fill-rule="evenodd" clip-rule="evenodd" d="M29.7369 21.8529C30.2279 21.8529 30.6278 21.4632 30.6278 20.9855C30.6278 20.5077 30.2279 20.118 29.7369 20.118C29.2465 20.118 28.846 20.5077 28.846 20.9855C28.846 21.4632 29.2465 21.8529 29.7369 21.8529Z" fill="white"/>
<path fill-rule="evenodd" clip-rule="evenodd" d="M27.7142 27.508C28.2046 27.508 28.6051 27.1184 28.6051 26.6406C28.6051 26.1628 28.2046 25.7732 27.7142 25.7732C27.2232 25.7732 26.8233 26.1628 26.8233 26.6406C26.8233 27.1184 27.2232 27.508 27.7142 27.508Z" fill="white"/>
<path fill-rule="evenodd" clip-rule="evenodd" d="M24.7351 33.4228C25.2261 33.4228 25.626 33.0329 25.626 32.5553C25.626 32.0773 25.2261 31.6879 24.7351 31.6879C24.2447 31.6879 23.8442 32.0773 23.8442 32.5553C23.8442 33.0329 24.2447 33.4228 24.7351 33.4228Z" fill="white"/>
<path fill-rule="evenodd" clip-rule="evenodd" d="M21.2706 38.8117C21.7611 38.8117 22.1615 38.4221 22.1615 37.9443C22.1615 37.4665 21.7611 37.0769 21.2706 37.0769C20.7797 37.0769 20.3798 37.4665 20.3798 37.9443C20.3798 38.4221 20.7797 38.8117 21.2706 38.8117Z" fill="white"/>
</g>
<defs>
<clipPath id="clip0">
<rect width="33" height="45" fill="white"/>
</clipPath>
</defs>
</svg>
