<svg width="70" height="62" viewBox="0 0 70 62" fill="none" xmlns="http://www.w3.org/2000/svg">
<g clip-path="url(#clip0)">
<path d="M29.8351 2.97177C30.9004 1.13284 32.8693 0 35.0005 0C37.1316 0 39.1006 1.13284 40.1658 2.97177L69.2015 53.0847C70.2668 54.9236 70.2668 57.1893 69.2015 59.0282C68.1363 60.8672 66.1667 62 64.0356 62H5.9648C3.83424 62 1.86473 60.8672 0.799447 59.0282C-0.265831 57.1893 -0.265831 54.9236 0.799447 53.0847L29.8351 2.97177Z" fill="#FEDA13"/>
<path d="M5.96453 59.0282C4.88912 59.0282 3.92464 58.4719 3.38484 57.5411C2.84505 56.6104 2.84385 55.4989 3.38246 54.5706L32.4176 4.45764C32.955 3.52926 33.9206 2.97473 35.0002 2.97473C36.0804 2.97473 37.0455 3.52926 37.5829 4.45764L66.618 54.5706C67.156 55.4995 67.1548 56.6104 66.615 57.5411C66.0758 58.4719 65.1113 59.0282 64.0359 59.0282H5.96453Z" fill="#2B2B2B"/>
<path d="M5.96509 56.6508C5.65553 56.6508 5.50105 56.4416 5.44856 56.3512C5.38474 56.2407 5.29944 56.0166 5.44856 55.7587L34.4843 5.64633C34.6387 5.37947 34.897 5.35034 35.0008 5.35034C35.1046 5.35034 35.3628 5.37887 35.5173 5.64574L64.553 55.7593C64.7075 56.0261 64.6037 56.2633 64.5512 56.353C64.4999 56.4422 64.3454 56.6508 64.0365 56.6508H5.96509Z" fill="#FEDA13"/>
<path d="M37.9827 49.5186C37.9827 51.1602 36.9788 52.4903 35.0004 52.4903C33.0219 52.4903 32.0181 51.1602 32.0181 49.5186C32.0181 47.877 33.0219 46.5468 35.0004 46.5468C36.9788 46.5468 37.9827 47.8776 37.9827 49.5186ZM35.0004 17.4235C32.0563 17.4235 30.5514 19.578 30.8663 22.2163H30.8621L33.2265 42.063H33.2319C33.3345 42.9177 33.925 43.575 34.9998 43.575C36.0746 43.575 36.6651 42.9183 36.7677 42.063H36.7737L39.1386 22.2163H39.1339C39.4488 19.5857 37.9547 17.4235 35.0004 17.4235Z" fill="#2B2B2B"/>
</g>
<defs>
<clipPath id="clip0">
<rect width="70" height="62" fill="white"/>
</clipPath>
</defs>
</svg>
