<svg width="30" height="30" viewBox="0 0 30 30" fill="none" xmlns="http://www.w3.org/2000/svg">
<path d="M12.64 13.9032L13.7215 14.9787L12.64 16.0539H5.02764V19.6364L0.385254 14.9787L5.02764 10.399V13.9032H12.6401H12.64ZM15.9862 4.75465H25.2357V14.0043H15.9862V4.75465Z" fill="#932279"/>
<path d="M16.0872 12.6399L15.012 13.7214L13.9368 12.6399V5.02747H10.354L15.012 0.385086L19.5913 5.02747H16.0872V12.64V12.6399ZM15.9864 15.986H25.2358V25.2356H15.9863V15.986H15.9864Z" fill="#EFA724"/>
<path d="M17.3502 16.0869L16.2685 15.0117L17.3502 13.9365H24.9624V10.3537L29.6051 15.0117L24.9624 19.591V16.0869H17.3502ZM4.75439 15.9861H14.0039V25.2357H4.75439V15.9861Z" fill="#262577"/>
<path d="M13.903 17.3504L14.9782 16.2688L16.0536 17.3504V24.9629H19.6362L14.9782 29.6053L10.399 24.9629H13.903V17.3504ZM4.75439 4.75465H14.0039V14.0043H4.75439V4.75465Z" fill="#9CCD2A"/>
<path d="M4.42432 4.4243H14.3345V14.3345H4.42432V4.4243ZM5.0849 13.6739H13.6737V5.08512H5.0849V13.6739ZM15.6559 4.4243H25.5661V14.3345H15.6559V4.4243ZM16.3165 13.6739H24.9053V5.08512H16.3165V13.6739ZM15.6559 15.6559H25.5661V25.5663H15.6559V15.6558V15.6559ZM16.3165 24.9053H24.9053V16.3165H16.3165V24.9053ZM4.42432 15.6559H14.3345V25.5663H4.42432V15.6558V15.6559ZM5.0849 24.9053H13.6737V16.3165H5.0849V24.9053Z" fill="white"/>
<path d="M7.05322 22.0029L0.0454102 14.9951L7.05311 7.9875L14.0609 14.9951L7.05334 22.0029H7.05322ZM0.979863 14.9951L7.05322 21.0684L13.1263 14.9951L7.05299 8.92196L0.979863 14.9951ZM14.995 14.0609L7.98744 7.05328L14.995 0.0454712L22.0026 7.05328L14.995 14.0609ZM8.9219 7.05328L14.995 13.1264L21.0684 7.05328L14.995 0.979924L8.9219 7.05328ZM22.937 22.0029L15.9295 14.9951L22.937 7.9875L29.9446 14.9951L22.937 22.0029ZM16.8637 14.9951L22.937 21.0684L29.0102 14.9951L22.937 8.92196L16.8637 14.9951ZM14.995 29.9447L7.98744 22.9371L14.995 15.9295L22.0026 22.9371L14.995 29.9447ZM8.9219 22.9371L14.995 29.0102L21.0684 22.9371L14.995 16.864L8.9219 22.9371Z" fill="white"/>
</svg>
