<svg width="69" height="16" viewBox="0 0 69 16" fill="none" xmlns="http://www.w3.org/2000/svg">
<g clip-path="url(#clip0)">
<path d="M0.00244141 15.7423H2.70792V8.77787C2.70792 7.40427 3.62048 6.40627 4.92437 6.40627C6.1846 6.40627 6.96699 7.1896 6.96699 8.45587V15.742H9.59633V8.71333C9.59633 7.35053 10.4872 6.40613 11.791 6.40613C13.1165 6.40613 13.8554 7.20027 13.8554 8.59533V15.7421H16.5607V7.9408C16.5607 5.666 15.0722 4.1528 12.8013 4.1528C11.139 4.1528 9.77017 5.0328 9.21578 6.43853H9.15056C8.72689 4.9792 7.56436 4.15293 5.93477 4.15293C4.37026 4.15293 3.15342 5.02213 2.65348 6.342H2.59917V4.3676H0.00244141V15.7423ZM22.4826 13.9073C21.3091 13.9073 20.5269 13.3171 20.5269 12.3835C20.5269 11.4821 21.2765 10.9027 22.5804 10.8168L25.2422 10.6559V11.5251C25.2422 12.8987 24.0146 13.9073 22.4826 13.9073ZM21.6677 15.9247C23.1453 15.9247 24.5905 15.1628 25.2533 13.9287H25.3076V15.7423H27.9151V7.90867C27.9151 5.62293 26.0572 4.13133 23.1997 4.13133C20.2661 4.13133 18.4302 5.6552 18.3105 7.77987H20.8204C20.9942 6.83547 21.8091 6.22387 23.0911 6.22387C24.4276 6.22387 25.2425 6.91053 25.2425 8.10173V8.91733L22.2001 9.08893C19.3969 9.26067 17.8216 10.4733 17.8216 12.4907C17.8216 14.5403 19.4405 15.9247 21.6677 15.9247ZM39.7909 8.42373C39.6063 6.0308 37.7265 4.13133 34.6845 4.13133C31.3381 4.13133 29.1649 6.41707 29.1649 10.0547C29.1649 13.7463 31.338 15.9673 34.7062 15.9673C37.5964 15.9673 39.5846 14.2933 39.8018 11.75H37.2485C36.9986 13.0376 36.1076 13.8103 34.7387 13.8103C33.022 13.8103 31.9139 12.4367 31.9139 10.0544C31.9139 7.71507 33.0112 6.29853 34.717 6.29853C36.1621 6.29853 37.0203 7.21067 37.2377 8.42333H39.7909V8.42373ZM48.1467 0C43.5725 0 40.7041 3.07973 40.7041 8.00533C40.7041 12.9309 43.5721 16 48.1465 16C52.7097 16 55.5783 12.9309 55.5783 8.00533C55.5783 3.07973 52.71 0 48.1465 0H48.1467ZM48.1467 2.3608C50.9388 2.3608 52.7207 4.54987 52.7207 8.00533C52.7207 11.4499 50.9388 13.6391 48.1467 13.6391C45.3435 13.6391 43.5725 11.45 43.5725 8.00533C43.5725 4.55 45.3435 2.3608 48.1467 2.3608ZM56.7195 11.3856C56.839 14.2403 59.2076 16 62.8148 16C66.6068 16 68.9971 14.1543 68.9971 11.2139C68.9971 8.9068 67.6498 7.6084 64.4663 6.88947L62.6628 6.4816C60.7398 6.03093 59.9465 5.43 59.9465 4.39987C59.9465 3.11213 61.1418 2.25373 62.9127 2.25373C64.7054 2.25373 65.933 3.12293 66.0634 4.5716H68.7363C68.6709 1.84587 66.3894 0 62.9344 0C59.5228 0 57.0999 1.8564 57.0999 4.6036C57.0999 6.81413 58.4689 8.1876 61.3589 8.84227L63.3906 9.31453C65.368 9.77587 66.1719 10.4199 66.1719 11.5359C66.1719 12.8235 64.8574 13.7464 62.9669 13.7464C61.0547 13.7464 59.6097 12.8128 59.4359 11.3856H56.7197H56.7195Z" fill="black"/>
</g>
<defs>
<clipPath id="clip0">
<rect width="69" height="16" fill="white"/>
</clipPath>
</defs>
</svg>
