<?xml version="1.0" ?><svg width="30" height="30" id="Layer_1" style="enable-background:new 0 0 512 512;" version="1.1" viewBox="0 0 512 512" xml:space="preserve" xmlns="http://www.w3.org/2000/svg" xmlns:xlink="http://www.w3.org/1999/xlink"><style type="text/css">
	.st0{fill:none;stroke:#000000;stroke-width:2;stroke-linecap:round;stroke-linejoin:round;stroke-miterlimit:10;}
	.st1{stroke:#000000;stroke-width:2;stroke-linecap:round;stroke-linejoin:round;stroke-miterlimit:10;}
	.st2{fill:#FFFFFF;}
</style><g><g><path d="M342.39,207.54H175.56c-9.82,0-17.8-7.98-17.8-17.79V93.6c0-9.81,7.98-17.79,17.8-17.79h166.83    c9.82,0,17.8,7.98,17.8,17.79v96.15C360.19,199.56,352.21,207.54,342.39,207.54z M175.56,91.26c-1.29,0-2.35,1.05-2.35,2.34v96.15    c0,1.29,1.06,2.34,2.35,2.34h166.83c1.29,0,2.35-1.05,2.35-2.34V93.6c0-1.29-1.06-2.34-2.35-2.34H175.56z"/></g><g><path d="M256,344.35c-4.27,0-7.73-3.46-7.73-7.73V199.82c0-4.27,3.46-7.73,7.73-7.73c4.27,0,7.73,3.46,7.73,7.73v136.81    C263.73,340.9,260.27,344.35,256,344.35z"/></g><g><path d="M457.35,344.35c-4.27,0-7.73-3.46-7.73-7.73c0-35.44-28.83-64.26-64.26-64.26H256c-4.27,0-7.73-3.46-7.73-7.73    c0-4.27,3.46-7.73,7.73-7.73h129.36c43.96,0,79.72,35.76,79.72,79.72C465.07,340.9,461.62,344.35,457.35,344.35z"/></g><g><path d="M54.65,344.35c-4.27,0-7.73-3.46-7.73-7.73c0-43.96,35.76-79.72,79.71-79.72H256c4.27,0,7.73,3.46,7.73,7.73    c0,4.27-3.46,7.73-7.73,7.73H126.64c-35.43,0-64.26,28.83-64.26,64.26C62.38,340.9,58.92,344.35,54.65,344.35z"/></g><g><path d="M90.51,436.2H18.8C8.98,436.2,1,428.21,1,418.4v-71.7c0-9.82,7.98-17.8,17.8-17.8h71.7c9.81,0,17.79,7.98,17.79,17.8v71.7    C108.3,428.21,100.32,436.2,90.51,436.2z M18.8,344.35c-1.29,0-2.35,1.06-2.35,2.35v71.7c0,1.29,1.06,2.34,2.35,2.34h71.7    c1.29,0,2.34-1.05,2.34-2.34v-71.7c0-1.29-1.05-2.35-2.34-2.35H18.8z"/></g><g><path d="M291.85,436.2h-71.7c-9.82,0-17.8-7.98-17.8-17.79v-71.7c0-9.82,7.98-17.8,17.8-17.8h71.7c9.82,0,17.8,7.98,17.8,17.8    v71.7C309.65,428.21,301.67,436.2,291.85,436.2z M220.15,344.35c-1.29,0-2.35,1.06-2.35,2.35v71.7c0,1.29,1.06,2.34,2.35,2.34    h71.7c1.29,0,2.35-1.05,2.35-2.34v-71.7c0-1.29-1.06-2.35-2.35-2.35H220.15z"/></g><g><path d="M493.2,436.2h-71.7c-9.81,0-17.79-7.98-17.79-17.79v-71.7c0-9.82,7.98-17.8,17.79-17.8h71.7c9.82,0,17.8,7.98,17.8,17.8    v71.7C511,428.21,503.02,436.2,493.2,436.2z M421.49,344.35c-1.29,0-2.34,1.06-2.34,2.35v71.7c0,1.29,1.05,2.34,2.34,2.34h71.7    c1.29,0,2.35-1.05,2.35-2.34v-71.7c0-1.29-1.06-2.35-2.35-2.35H421.49z"/></g><g><path d="M318.79,125.24H199.15c-4.27,0-7.73-3.46-7.73-7.73c0-4.27,3.46-7.73,7.73-7.73h119.64c4.27,0,7.73,3.46,7.73,7.73    C326.52,121.78,323.06,125.24,318.79,125.24z"/></g><g><path d="M296.39,166.39h-74.84c-4.27,0-7.73-3.46-7.73-7.73s3.46-7.73,7.73-7.73h74.84c4.27,0,7.73,3.46,7.73,7.73    S300.67,166.39,296.39,166.39z"/></g><g><g><path d="M274.65,373.14h-37.29c-4.27,0-7.73-3.46-7.73-7.73s3.46-7.73,7.73-7.73h37.29c4.27,0,7.73,3.46,7.73,7.73     S278.92,373.14,274.65,373.14z"/></g><g><path d="M274.65,407.41h-37.29c-4.27,0-7.73-3.46-7.73-7.73c0-4.27,3.46-7.73,7.73-7.73h37.29c4.27,0,7.73,3.46,7.73,7.73     C282.37,403.95,278.92,407.41,274.65,407.41z"/></g></g><g><g><path d="M73.29,373.14H36.01c-4.27,0-7.73-3.46-7.73-7.73s3.46-7.73,7.73-7.73h37.29c4.27,0,7.73,3.46,7.73,7.73     S77.56,373.14,73.29,373.14z"/></g><g><path d="M73.29,407.41H36.01c-4.27,0-7.73-3.46-7.73-7.73c0-4.27,3.46-7.73,7.73-7.73h37.29c4.27,0,7.73,3.46,7.73,7.73     C81.02,403.95,77.56,407.41,73.29,407.41z"/></g></g><g><g><path d="M475.99,373.14h-37.29c-4.27,0-7.73-3.46-7.73-7.73s3.46-7.73,7.73-7.73h37.29c4.27,0,7.73,3.46,7.73,7.73     S480.26,373.14,475.99,373.14z"/></g><g><path d="M475.99,407.41h-37.29c-4.27,0-7.73-3.46-7.73-7.73c0-4.27,3.46-7.73,7.73-7.73h37.29c4.27,0,7.73,3.46,7.73,7.73     C483.72,403.95,480.26,407.41,475.99,407.41z"/></g></g></g></svg>