<svg width="30" height="30" viewBox="0 0 30 30" fill="none" xmlns="http://www.w3.org/2000/svg">
<path d="M29.9573 14.9629C29.9573 23.2262 23.2583 29.9254 14.9945 29.9254C6.7304 29.9254 0.0314941 23.2262 0.0314941 14.9629C0.0314941 6.69902 6.73064 0 14.9945 0C23.2584 0 29.9573 6.69902 29.9573 14.9629Z" fill="#DD4814"/>
<path d="M4.82031 12.9648C3.71652 12.9648 2.82227 13.8591 2.82227 14.9629C2.82227 16.0661 3.71652 16.9604 4.82031 16.9604C5.92363 16.9604 6.81789 16.0661 6.81789 14.9629C6.81789 13.8591 5.92363 12.9648 4.82031 12.9648ZM19.0838 22.0443C18.1284 22.5962 17.8006 23.8173 18.3525 24.7723C18.9039 25.7278 20.125 26.0554 21.0805 25.5035C22.036 24.9521 22.3636 23.7311 21.8118 22.7754C21.2604 21.8205 20.0386 21.493 19.0838 22.0443ZM9.15965 14.9629C9.15965 12.9887 10.1403 11.2445 11.6406 10.1884L10.1801 7.74223C8.43238 8.91059 7.13183 10.6958 6.59137 12.7868C7.22207 13.3013 7.62566 14.0846 7.62566 14.9627C7.62566 15.8404 7.22207 16.6237 6.59137 17.1383C7.13113 19.2298 8.43168 21.0152 10.1801 22.1836L11.6406 19.7367C10.1403 18.6812 9.15965 16.9371 9.15965 14.9629ZM14.9946 9.12727C18.043 9.12727 20.5441 11.4645 20.8066 14.4452L23.653 14.4033C23.5131 12.2027 22.5517 10.2272 21.0747 8.77453C20.3151 9.06152 19.4376 9.01758 18.6794 8.58047C17.9196 8.14207 17.4433 7.4025 17.3131 6.59977C16.5579 6.39079 15.778 6.28475 14.9945 6.28453C13.6604 6.28317 12.3441 6.59052 11.1486 7.18254L12.5366 9.67008C13.3065 9.31175 14.1455 9.12647 14.9946 9.12727ZM14.9946 20.798C14.1455 20.7987 13.3066 20.6134 12.5368 20.2552L11.1487 22.7425C12.3441 23.3351 13.6605 23.6428 14.9948 23.6414C15.7783 23.6412 16.5582 23.5349 17.3132 23.3254C17.4434 22.5226 17.9199 21.7838 18.6794 21.3446C19.4383 20.9067 20.3152 20.8636 21.0747 21.1506C22.5518 19.6979 23.5131 17.7224 23.6533 15.5218L20.806 15.4799C20.5441 18.4615 18.0432 20.7979 14.9946 20.7979V20.798ZM19.0831 7.88027C20.0386 8.43199 21.2598 8.10527 21.8111 7.14973C22.363 6.19418 22.0361 4.97297 21.0805 4.42102C20.125 3.86977 18.9039 4.19719 18.3518 5.15274C17.8007 6.10781 18.1282 7.32891 19.0831 7.88027Z" fill="white"/>
</svg>
